<?xml version="1.0" encoding="UTF-8" standalone="no"?>
<!DOCTYPE svg PUBLIC "-//W3C//DTD SVG 1.1//EN"
 "http://www.w3.org/Graphics/SVG/1.1/DTD/svg11.dtd">
<!-- Generated by graphviz version 2.43.0 (0)
 -->
<!-- Title: quad Pages: 1 -->
<svg width="1001pt" height="1199pt"
 viewBox="0.00 0.00 1000.71 1199.35" xmlns="http://www.w3.org/2000/svg" xmlns:xlink="http://www.w3.org/1999/xlink">
<g id="graph0" class="graph" transform="scale(1 1) rotate(0) translate(4 1195.35)">
<title>quad</title>
<polygon fill="white" stroke="transparent" points="-4,4 -4,-1195.35 996.71,-1195.35 996.71,4 -4,4"/>
<!-- host -->
<g id="node1" class="node">
<title>host</title>
<polygon fill="none" stroke="grey" points="0,-404.69 0,-772.69 91,-772.69 91,-404.69 0,-404.69"/>
<text text-anchor="middle" x="25" y="-584.99" font-family="monospace" font-size="14.00" fill="grey">host</text>
<polyline fill="none" stroke="grey" points="50,-404.69 50,-772.69 "/>
<text text-anchor="middle" x="70.5" y="-757.49" font-family="monospace" font-size="14.00" fill="grey">d1a</text>
<polyline fill="none" stroke="grey" points="50,-749.69 91,-749.69 "/>
<text text-anchor="middle" x="70.5" y="-734.49" font-family="monospace" font-size="14.00" fill="grey">d1b</text>
<polyline fill="none" stroke="grey" points="50,-726.69 91,-726.69 "/>
<text text-anchor="middle" x="70.5" y="-711.49" font-family="monospace" font-size="14.00" fill="grey">d1c</text>
<polyline fill="none" stroke="grey" points="50,-703.69 91,-703.69 "/>
<text text-anchor="middle" x="70.5" y="-688.49" font-family="monospace" font-size="14.00" fill="grey">d1d</text>
<polyline fill="none" stroke="grey" points="50,-680.69 91,-680.69 "/>
<text text-anchor="middle" x="70.5" y="-665.49" font-family="monospace" font-size="14.00" fill="grey">d2a</text>
<polyline fill="none" stroke="grey" points="50,-657.69 91,-657.69 "/>
<text text-anchor="middle" x="70.5" y="-642.49" font-family="monospace" font-size="14.00" fill="grey">d2b</text>
<polyline fill="none" stroke="grey" points="50,-634.69 91,-634.69 "/>
<text text-anchor="middle" x="70.5" y="-619.49" font-family="monospace" font-size="14.00" fill="grey">d2c</text>
<polyline fill="none" stroke="grey" points="50,-611.69 91,-611.69 "/>
<text text-anchor="middle" x="70.5" y="-596.49" font-family="monospace" font-size="14.00" fill="grey">d2d</text>
<polyline fill="none" stroke="grey" points="50,-588.69 91,-588.69 "/>
<text text-anchor="middle" x="70.5" y="-573.49" font-family="monospace" font-size="14.00" fill="grey">d3a</text>
<polyline fill="none" stroke="grey" points="50,-565.69 91,-565.69 "/>
<text text-anchor="middle" x="70.5" y="-550.49" font-family="monospace" font-size="14.00" fill="grey">d3b</text>
<polyline fill="none" stroke="grey" points="50,-542.69 91,-542.69 "/>
<text text-anchor="middle" x="70.5" y="-527.49" font-family="monospace" font-size="14.00" fill="grey">d3c</text>
<polyline fill="none" stroke="grey" points="50,-519.69 91,-519.69 "/>
<text text-anchor="middle" x="70.5" y="-504.49" font-family="monospace" font-size="14.00" fill="grey">d3d</text>
<polyline fill="none" stroke="grey" points="50,-496.69 91,-496.69 "/>
<text text-anchor="middle" x="70.5" y="-481.49" font-family="monospace" font-size="14.00" fill="grey">d4a</text>
<polyline fill="none" stroke="grey" points="50,-473.69 91,-473.69 "/>
<text text-anchor="middle" x="70.5" y="-458.49" font-family="monospace" font-size="14.00" fill="grey">d4b</text>
<polyline fill="none" stroke="grey" points="50,-450.69 91,-450.69 "/>
<text text-anchor="middle" x="70.5" y="-435.49" font-family="monospace" font-size="14.00" fill="grey">d4c</text>
<polyline fill="none" stroke="grey" points="50,-427.69 91,-427.69 "/>
<text text-anchor="middle" x="70.5" y="-412.49" font-family="monospace" font-size="14.00" fill="grey">d4d</text>
</g>
<!-- dut1 -->
<g id="node2" class="node">
<title>dut1</title>
<polygon fill="none" stroke="black" points="756.66,-1023.99 756.66,-1115.99 938.66,-1115.99 938.66,-1023.99 756.66,-1023.99"/>
<text text-anchor="middle" x="773.16" y="-1100.79" font-family="monospace" font-size="14.00">e1</text>
<polyline fill="none" stroke="black" points="756.66,-1092.99 789.66,-1092.99 "/>
<text text-anchor="middle" x="773.16" y="-1077.79" font-family="monospace" font-size="14.00">e2</text>
<polyline fill="none" stroke="black" points="756.66,-1069.99 789.66,-1069.99 "/>
<text text-anchor="middle" x="773.16" y="-1054.79" font-family="monospace" font-size="14.00">e3</text>
<polyline fill="none" stroke="black" points="756.66,-1046.99 789.66,-1046.99 "/>
<text text-anchor="middle" x="773.16" y="-1031.79" font-family="monospace" font-size="14.00">e4</text>
<polyline fill="none" stroke="black" points="789.66,-1023.99 789.66,-1115.99 "/>
<text text-anchor="middle" x="814.66" y="-1066.29" font-family="monospace" font-size="14.00">dut1</text>
<polyline fill="none" stroke="black" points="839.66,-1023.99 839.66,-1115.99 "/>
<text text-anchor="middle" x="856.16" y="-1100.79" font-family="monospace" font-size="14.00">e5</text>
<polyline fill="none" stroke="black" points="839.66,-1092.99 872.66,-1092.99 "/>
<text text-anchor="middle" x="856.16" y="-1077.79" font-family="monospace" font-size="14.00">e6</text>
<polyline fill="none" stroke="black" points="839.66,-1069.99 872.66,-1069.99 "/>
<text text-anchor="middle" x="856.16" y="-1054.79" font-family="monospace" font-size="14.00">e7</text>
<polyline fill="none" stroke="black" points="839.66,-1046.99 872.66,-1046.99 "/>
<text text-anchor="middle" x="856.16" y="-1031.79" font-family="monospace" font-size="14.00">e8</text>
<polyline fill="none" stroke="black" points="872.66,-1023.99 872.66,-1115.99 "/>
<text text-anchor="middle" x="905.66" y="-1100.79" font-family="monospace" font-size="14.00">radio0</text>
<polyline fill="none" stroke="black" points="872.66,-1092.99 938.66,-1092.99 "/>
<text text-anchor="middle" x="905.66" y="-1077.79" font-family="monospace" font-size="14.00">radio1</text>
<polyline fill="none" stroke="black" points="872.66,-1069.99 938.66,-1069.99 "/>
<text text-anchor="middle" x="905.66" y="-1054.79" font-family="monospace" font-size="14.00">radio2</text>
<polyline fill="none" stroke="black" points="872.66,-1046.99 938.66,-1046.99 "/>
<text text-anchor="middle" x="905.66" y="-1031.79" font-family="monospace" font-size="14.00">radio3</text>
</g>
<!-- host&#45;&#45;dut1 -->
<g id="edge1" class="edge">
<title>host:d1a&#45;&#45;dut1:e1</title>
<path fill="none" stroke="lightgray" stroke-width="2" d="M91.5,-761.69C91.5,-761.69 307.4,-665.13 405.78,-764.3 405.82,-764.33 405.78,-825.07 405.8,-825.12 449.08,-914.98 756.66,-1104.99 756.66,-1104.99"/>
</g>
<!-- host&#45;&#45;dut1 -->
<g id="edge2" class="edge">
<title>host:d1b&#45;&#45;dut1:e2</title>
<path fill="none" stroke="cornflowerblue" stroke-width="2" d="M91.5,-738.69C91.5,-738.69 310.78,-661.27 405.78,-764.3 405.81,-764.33 405.77,-825.07 405.8,-825.12 493.25,-997.46 756.66,-1081.99 756.66,-1081.99"/>
</g>
<!-- host&#45;&#45;dut1 -->
<g id="edge3" class="edge">
<title>host:d1c&#45;&#45;dut1:e3</title>
<path fill="none" stroke="cornflowerblue" stroke-width="2" d="M91.5,-715.69C91.5,-715.69 313.77,-657 405.78,-764.3 405.81,-764.34 405.77,-825.08 405.8,-825.12 494.31,-990.03 756.66,-1057.99 756.66,-1057.99"/>
</g>
<!-- host&#45;&#45;dut1 -->
<g id="edge4" class="edge">
<title>host:d1d&#45;&#45;dut1:e4</title>
<path fill="none" stroke="cornflowerblue" stroke-width="2" d="M91.5,-692.69C91.5,-692.69 316.42,-652.32 405.78,-764.3 405.81,-764.34 405.77,-825.08 405.8,-825.12 495.46,-983.17 756.66,-1034.99 756.66,-1034.99"/>
</g>
<!-- dut2 -->
<g id="node3" class="node">
<title>dut2</title>
<polygon fill="none" stroke="black" points="435.8,-703.12 435.8,-795.12 617.8,-795.12 617.8,-703.12 435.8,-703.12"/>
<text text-anchor="middle" x="452.3" y="-779.92" font-family="monospace" font-size="14.00">e1</text>
<polyline fill="none" stroke="black" points="435.8,-772.12 468.8,-772.12 "/>
<text text-anchor="middle" x="452.3" y="-756.92" font-family="monospace" font-size="14.00">e2</text>
<polyline fill="none" stroke="black" points="435.8,-749.12 468.8,-749.12 "/>
<text text-anchor="middle" x="452.3" y="-733.92" font-family="monospace" font-size="14.00">e3</text>
<polyline fill="none" stroke="black" points="435.8,-726.12 468.8,-726.12 "/>
<text text-anchor="middle" x="452.3" y="-710.92" font-family="monospace" font-size="14.00">e4</text>
<polyline fill="none" stroke="black" points="468.8,-703.12 468.8,-795.12 "/>
<text text-anchor="middle" x="493.8" y="-745.42" font-family="monospace" font-size="14.00">dut2</text>
<polyline fill="none" stroke="black" points="518.8,-703.12 518.8,-795.12 "/>
<text text-anchor="middle" x="535.3" y="-779.92" font-family="monospace" font-size="14.00">e5</text>
<polyline fill="none" stroke="black" points="518.8,-772.12 551.8,-772.12 "/>
<text text-anchor="middle" x="535.3" y="-756.92" font-family="monospace" font-size="14.00">e6</text>
<polyline fill="none" stroke="black" points="518.8,-749.12 551.8,-749.12 "/>
<text text-anchor="middle" x="535.3" y="-733.92" font-family="monospace" font-size="14.00">e7</text>
<polyline fill="none" stroke="black" points="518.8,-726.12 551.8,-726.12 "/>
<text text-anchor="middle" x="535.3" y="-710.92" font-family="monospace" font-size="14.00">e8</text>
<polyline fill="none" stroke="black" points="551.8,-703.12 551.8,-795.12 "/>
<text text-anchor="middle" x="584.8" y="-776.42" font-family="monospace" font-size="14.00">radio0</text>
<polyline fill="none" stroke="black" points="551.8,-765.12 617.8,-765.12 "/>
<text text-anchor="middle" x="584.8" y="-745.92" font-family="monospace" font-size="14.00">radio1</text>
<polyline fill="none" stroke="black" points="551.8,-734.12 617.8,-734.12 "/>
<text text-anchor="middle" x="584.8" y="-714.92" font-family="monospace" font-size="14.00">radio2</text>
</g>
<!-- host&#45;&#45;dut2 -->
<g id="edge5" class="edge">
<title>host:d2a&#45;&#45;dut2:e1</title>
<path fill="none" stroke="lightgray" stroke-width="2" d="M91.5,-669.69C91.5,-669.69 273.68,-702.42 405.78,-764.3 420.26,-771.08 435.8,-784.12 435.8,-784.12"/>
</g>
<!-- host&#45;&#45;dut2 -->
<g id="edge6" class="edge">
<title>host:d2b&#45;&#45;dut2:e2</title>
<path fill="none" stroke="cornflowerblue" stroke-width="2" d="M91.5,-646.69C91.5,-646.69 435.8,-761.12 435.8,-761.12"/>
</g>
<!-- host&#45;&#45;dut2 -->
<g id="edge7" class="edge">
<title>host:d2c&#45;&#45;dut2:e3</title>
<path fill="none" stroke="cornflowerblue" stroke-width="2" d="M91.5,-623.69C91.5,-623.69 435.8,-737.12 435.8,-737.12"/>
</g>
<!-- host&#45;&#45;dut2 -->
<g id="edge8" class="edge">
<title>host:d2d&#45;&#45;dut2:e4</title>
<path fill="none" stroke="cornflowerblue" stroke-width="2" d="M91.5,-600.69C91.5,-600.69 435.8,-714.12 435.8,-714.12"/>
</g>
<!-- dut3 -->
<g id="node4" class="node">
<title>dut3</title>
<polygon fill="none" stroke="black" points="435.8,-382.26 435.8,-474.26 617.8,-474.26 617.8,-382.26 435.8,-382.26"/>
<text text-anchor="middle" x="452.3" y="-459.06" font-family="monospace" font-size="14.00">e1</text>
<polyline fill="none" stroke="black" points="435.8,-451.26 468.8,-451.26 "/>
<text text-anchor="middle" x="452.3" y="-436.06" font-family="monospace" font-size="14.00">e2</text>
<polyline fill="none" stroke="black" points="435.8,-428.26 468.8,-428.26 "/>
<text text-anchor="middle" x="452.3" y="-413.06" font-family="monospace" font-size="14.00">e3</text>
<polyline fill="none" stroke="black" points="435.8,-405.26 468.8,-405.26 "/>
<text text-anchor="middle" x="452.3" y="-390.06" font-family="monospace" font-size="14.00">e4</text>
<polyline fill="none" stroke="black" points="468.8,-382.26 468.8,-474.26 "/>
<text text-anchor="middle" x="493.8" y="-424.56" font-family="monospace" font-size="14.00">dut3</text>
<polyline fill="none" stroke="black" points="518.8,-382.26 518.8,-474.26 "/>
<text text-anchor="middle" x="535.3" y="-459.06" font-family="monospace" font-size="14.00">e5</text>
<polyline fill="none" stroke="black" points="518.8,-451.26 551.8,-451.26 "/>
<text text-anchor="middle" x="535.3" y="-436.06" font-family="monospace" font-size="14.00">e6</text>
<polyline fill="none" stroke="black" points="518.8,-428.26 551.8,-428.26 "/>
<text text-anchor="middle" x="535.3" y="-413.06" font-family="monospace" font-size="14.00">e7</text>
<polyline fill="none" stroke="black" points="518.8,-405.26 551.8,-405.26 "/>
<text text-anchor="middle" x="535.3" y="-390.06" font-family="monospace" font-size="14.00">e8</text>
<polyline fill="none" stroke="black" points="551.8,-382.26 551.8,-474.26 "/>
<text text-anchor="middle" x="584.8" y="-447.56" font-family="monospace" font-size="14.00">radio0</text>
<polyline fill="none" stroke="black" points="551.8,-428.26 617.8,-428.26 "/>
<text text-anchor="middle" x="584.8" y="-401.56" font-family="monospace" font-size="14.00">radio1</text>
</g>
<!-- host&#45;&#45;dut3 -->
<g id="edge9" class="edge">
<title>host:d3a&#45;&#45;dut3:e1</title>
<path fill="none" stroke="lightgray" stroke-width="2" d="M91.5,-576.69C91.5,-576.69 435.8,-463.26 435.8,-463.26"/>
</g>
<!-- host&#45;&#45;dut3 -->
<g id="edge10" class="edge">
<title>host:d3b&#45;&#45;dut3:e2</title>
<path fill="none" stroke="cornflowerblue" stroke-width="2" d="M91.5,-553.69C91.5,-553.69 435.8,-440.26 435.8,-440.26"/>
</g>
<!-- host&#45;&#45;dut3 -->
<g id="edge11" class="edge">
<title>host:d3c&#45;&#45;dut3:e3</title>
<path fill="none" stroke="cornflowerblue" stroke-width="2" d="M91.5,-530.69C91.5,-530.69 435.8,-416.26 435.8,-416.26"/>
</g>
<!-- host&#45;&#45;dut3 -->
<g id="edge12" class="edge">
<title>host:d3d&#45;&#45;dut3:e4</title>
<path fill="none" stroke="cornflowerblue" stroke-width="2" d="M91.5,-507.69C91.5,-507.69 273.68,-474.96 405.78,-413.08 420.26,-406.3 435.8,-393.26 435.8,-393.26"/>
</g>
<!-- dut4 -->
<g id="node5" class="node">
<title>dut4</title>
<polygon fill="none" stroke="black" points="756.66,-61.39 756.66,-153.39 938.66,-153.39 938.66,-61.39 756.66,-61.39"/>
<text text-anchor="middle" x="773.16" y="-138.19" font-family="monospace" font-size="14.00">e1</text>
<polyline fill="none" stroke="black" points="756.66,-130.39 789.66,-130.39 "/>
<text text-anchor="middle" x="773.16" y="-115.19" font-family="monospace" font-size="14.00">e2</text>
<polyline fill="none" stroke="black" points="756.66,-107.39 789.66,-107.39 "/>
<text text-anchor="middle" x="773.16" y="-92.19" font-family="monospace" font-size="14.00">e3</text>
<polyline fill="none" stroke="black" points="756.66,-84.39 789.66,-84.39 "/>
<text text-anchor="middle" x="773.16" y="-69.19" font-family="monospace" font-size="14.00">e4</text>
<polyline fill="none" stroke="black" points="789.66,-61.39 789.66,-153.39 "/>
<text text-anchor="middle" x="814.66" y="-103.69" font-family="monospace" font-size="14.00">dut4</text>
<polyline fill="none" stroke="black" points="839.66,-61.39 839.66,-153.39 "/>
<text text-anchor="middle" x="856.16" y="-138.19" font-family="monospace" font-size="14.00">e5</text>
<polyline fill="none" stroke="black" points="839.66,-130.39 872.66,-130.39 "/>
<text text-anchor="middle" x="856.16" y="-115.19" font-family="monospace" font-size="14.00">e6</text>
<polyline fill="none" stroke="black" points="839.66,-107.39 872.66,-107.39 "/>
<text text-anchor="middle" x="856.16" y="-92.19" font-family="monospace" font-size="14.00">e7</text>
<polyline fill="none" stroke="black" points="839.66,-84.39 872.66,-84.39 "/>
<text text-anchor="middle" x="856.16" y="-69.19" font-family="monospace" font-size="14.00">e8</text>
<polyline fill="none" stroke="black" points="872.66,-61.39 872.66,-153.39 "/>
<text text-anchor="middle" x="905.66" y="-126.69" font-family="monospace" font-size="14.00">radio0</text>
<polyline fill="none" stroke="black" points="872.66,-107.39 938.66,-107.39 "/>
<text text-anchor="middle" x="905.66" y="-80.69" font-family="monospace" font-size="14.00">radio1</text>
</g>
<!-- host&#45;&#45;dut4 -->
<g id="edge13" class="edge">
<title>host:d4a&#45;&#45;dut4:e1</title>
<path fill="none" stroke="lightgray" stroke-width="2" d="M91.5,-484.69C91.5,-484.69 316.42,-525.06 405.78,-413.08 405.81,-413.04 405.77,-352.3 405.8,-352.26 495.46,-194.21 756.66,-142.39 756.66,-142.39"/>
</g>
<!-- host&#45;&#45;dut4 -->
<g id="edge14" class="edge">
<title>host:d4b&#45;&#45;dut4:e2</title>
<path fill="none" stroke="cornflowerblue" stroke-width="2" d="M91.5,-461.69C91.5,-461.69 313.77,-520.38 405.78,-413.08 405.81,-413.04 405.77,-352.3 405.8,-352.26 494.31,-187.35 756.66,-119.39 756.66,-119.39"/>
</g>
<!-- host&#45;&#45;dut4 -->
<g id="edge15" class="edge">
<title>host:d4c&#45;&#45;dut4:e3</title>
<path fill="none" stroke="cornflowerblue" stroke-width="2" d="M91.5,-438.69C91.5,-438.69 310.78,-516.11 405.78,-413.08 405.81,-413.04 405.77,-352.3 405.8,-352.26 493.25,-179.91 756.66,-95.39 756.66,-95.39"/>
</g>
<!-- host&#45;&#45;dut4 -->
<g id="edge16" class="edge">
<title>host:d4d&#45;&#45;dut4:e4</title>
<path fill="none" stroke="cornflowerblue" stroke-width="2" d="M91.5,-415.69C91.5,-415.69 307.4,-512.25 405.78,-413.08 405.82,-413.05 405.78,-352.3 405.8,-352.26 449.08,-262.4 756.66,-72.39 756.66,-72.39"/>
</g>
<!-- dut1&#45;&#45;dut2 -->
<g id="edge19" class="edge">
<title>dut1:e8&#45;&#45;dut2:e5</title>
<path fill="none" stroke="black" stroke-width="2" d="M856.66,-1023.99C856.66,-1023.99 535.8,-795.12 535.8,-795.12"/>
</g>
<!-- dut1&#45;&#45;dut3 -->
<g id="edge22" class="edge">
<title>dut1:e6&#45;&#45;dut3:e7</title>
<path fill="none" stroke="red" stroke-width="2" d="M850.82,-1069.86C811.11,-987.48 581.28,-510.61 541.62,-428.34"/>
</g>
<!-- cell0 -->
<g id="node6" class="node">
<title>cell0</title>
<polygon fill="none" stroke="cornflowerblue" stroke-dasharray="5,2" points="292.78,-794.3 292.78,-832.3 375.78,-832.3 375.78,-794.3 292.78,-794.3"/>
<text text-anchor="middle" x="334.28" y="-817.1" font-family="monospace" font-size="14.00" fill="cornflowerblue">cell0</text>
<text text-anchor="middle" x="334.28" y="-802.1" font-family="monospace" font-size="14.00" fill="cornflowerblue">(radio0)</text>
</g>
<!-- dut1&#45;&#45;cell0 -->
<g id="edge24" class="edge">
<title>dut1:radio0&#45;&#45;cell0</title>
<path fill="none" stroke="cornflowerblue" stroke-width="2" d="M905.57,-1116.03C905.57,-1116.03 804.39,-1167.39 726.66,-1145.99 541.96,-1095.13 391.3,-895.93 347.31,-832.68"/>
</g>
<!-- cell1 -->
<g id="node7" class="node">
<title>cell1</title>
<polygon fill="none" stroke="cornflowerblue" stroke-dasharray="5,2" points="292.78,-345.08 292.78,-383.08 375.78,-383.08 375.78,-345.08 292.78,-345.08"/>
<text text-anchor="middle" x="334.28" y="-367.88" font-family="monospace" font-size="14.00" fill="cornflowerblue">cell1</text>
<text text-anchor="middle" x="334.28" y="-352.88" font-family="monospace" font-size="14.00" fill="cornflowerblue">(radio1)</text>
</g>
<!-- dut1&#45;&#45;cell1 -->
<g id="edge28" class="edge">
<title>dut1:radio1&#45;&#45;cell1</title>
<path fill="none" stroke="cornflowerblue" stroke-width="2" d="M938.76,-1081.95C938.76,-1081.95 985.53,-1119.49 968.66,-1145.99 939.78,-1191.35 778.43,-1160.56 726.66,-1145.99 494.04,-1080.49 394.02,-1065.22 262.78,-862.3 184.61,-741.43 218.38,-682.75 234.28,-539.69 240.65,-482.37 230.43,-460.84 262.78,-413.08 271.04,-400.89 283.44,-390.85 295.6,-383.1"/>
</g>
<!-- cell2 -->
<g id="node8" class="node">
<title>cell2</title>
<polygon fill="none" stroke="mediumseagreen" stroke-dasharray="5,2" points="264.28,-569.69 264.28,-607.69 404.28,-607.69 404.28,-569.69 264.28,-569.69"/>
<text text-anchor="middle" x="334.28" y="-592.49" font-family="monospace" font-size="14.00" fill="mediumseagreen">cell2</text>
<text text-anchor="middle" x="334.28" y="-577.49" font-family="monospace" font-size="14.00" fill="mediumseagreen">(band steering)</text>
</g>
<!-- dut1&#45;&#45;cell2 -->
<g id="edge32" class="edge">
<title>dut1:radio2&#45;&#45;cell2</title>
<path fill="none" stroke="cornflowerblue" stroke-width="2" d="M938.76,-1058.02C938.76,-1058.02 992.71,-1112.42 968.66,-1145.99 937.35,-1189.71 778.43,-1160.56 726.66,-1145.99 494.04,-1080.49 394.02,-1065.22 262.78,-862.3 208.13,-777.8 186.54,-726.27 234.28,-637.69 241.38,-624.51 253.34,-614.82 266.56,-607.71"/>
</g>
<!-- dut1&#45;&#45;cell2 -->
<g id="edge33" class="edge">
<title>dut1:radio3&#45;&#45;cell2</title>
<path fill="none" stroke="cornflowerblue" stroke-width="2" d="M905.66,-1023.99C905.66,-1023.99 472.93,-924.04 405.8,-825.12 405.77,-825.08 405.79,-764.35 405.78,-764.3 394.07,-704.53 361.94,-639.44 345.03,-607.93"/>
</g>
<!-- dut2&#45;&#45;dut3 -->
<g id="edge17" class="edge">
<title>dut2:e7&#45;&#45;dut3:e6</title>
<path fill="none" stroke="black" stroke-width="3" d="M535.8,-725.85C535.8,-678.82 535.8,-498.59 535.8,-451.54"/>
</g>
<!-- dut2&#45;&#45;dut3 -->
<g id="edge18" class="edge">
<title>dut2:e8&#45;&#45;dut3:e5</title>
<path fill="none" stroke="black" stroke-width="3" d="M535.8,-703.12C535.8,-703.12 535.8,-474.26 535.8,-474.26"/>
</g>
<!-- dut2&#45;&#45;dut4 -->
<g id="edge23" class="edge">
<title>dut2:e6&#45;&#45;dut4:e7</title>
<path fill="none" stroke="red" stroke-width="2" d="M541.64,-749C581.35,-666.61 811.19,-189.75 850.84,-107.48"/>
</g>
<!-- dut2&#45;&#45;cell0 -->
<g id="edge25" class="edge">
<title>dut2:radio0&#45;&#45;cell0</title>
<path fill="none" stroke="cornflowerblue" stroke-width="2" d="M584.71,-795.17C584.71,-795.17 486.42,-825.04 405.8,-825.12 396.11,-825.13 385.78,-824.07 376.07,-822.57"/>
</g>
<!-- dut2&#45;&#45;cell1 -->
<g id="edge29" class="edge">
<title>dut2:radio1&#45;&#45;cell1</title>
<path fill="none" stroke="cornflowerblue" stroke-width="2" d="M617.9,-750.12C617.9,-750.12 658.49,-708.24 647.8,-673.12 609.59,-547.66 491.95,-603.14 405.8,-504.26 373.32,-466.97 351.01,-412.34 340.73,-383.53"/>
</g>
<!-- dut2&#45;&#45;cell2 -->
<g id="edge34" class="edge">
<title>dut2:radio2&#45;&#45;cell2</title>
<path fill="none" stroke="cornflowerblue" stroke-width="2" d="M584.8,-703.12C584.8,-703.12 500.51,-668.26 434.28,-637.69 413.57,-628.13 390.71,-617 372.08,-607.77"/>
</g>
<!-- dut3&#45;&#45;dut4 -->
<g id="edge20" class="edge">
<title>dut3:e8&#45;&#45;dut4:e5</title>
<path fill="none" stroke="black" stroke-width="2" d="M535.8,-382.26C535.8,-382.26 856.66,-153.39 856.66,-153.39"/>
</g>
<!-- dut3&#45;&#45;cell0 -->
<g id="edge26" class="edge">
<title>dut3:radio0&#45;&#45;cell0</title>
<path fill="none" stroke="cornflowerblue" stroke-width="2" d="M584.8,-474.26C584.8,-474.26 422.64,-648.62 405.8,-673.12 377.94,-713.64 353.9,-766.48 342.08,-794.28"/>
</g>
<!-- dut3&#45;&#45;cell1 -->
<g id="edge30" class="edge">
<title>dut3:radio1&#45;&#45;cell1</title>
<path fill="none" stroke="cornflowerblue" stroke-width="2" d="M584.71,-382.21C584.71,-382.21 486.42,-352.34 405.8,-352.26 396.11,-352.25 385.78,-353.31 376.07,-354.81"/>
</g>
<!-- dut4&#45;&#45;dut1 -->
<g id="edge21" class="edge">
<title>dut4:e8&#45;&#45;dut1:e5</title>
<path fill="none" stroke="black" stroke-width="2" d="M856.63,-61.3C856.63,-61.3 927.79,0 968.66,-31.39 968.66,-31.39 856.63,-1116.08 856.63,-1116.08"/>
</g>
<!-- dut4&#45;&#45;cell0 -->
<g id="edge27" class="edge">
<title>dut4:radio0&#45;&#45;cell0</title>
<path fill="none" stroke="cornflowerblue" stroke-width="2" d="M905.66,-153.39C905.66,-153.39 786.31,-369.1 647.8,-504.26 553.93,-595.85 491.95,-574.23 405.8,-673.12 373.32,-710.41 351.01,-765.04 340.73,-793.85"/>
</g>
<!-- dut4&#45;&#45;cell1 -->
<g id="edge31" class="edge">
<title>dut4:radio1&#45;&#45;cell1</title>
<path fill="none" stroke="cornflowerblue" stroke-width="2" d="M905.57,-61.35C905.57,-61.35 804.39,-9.99 726.66,-31.39 541.96,-82.25 391.3,-281.45 347.31,-344.7"/>
</g>
</g>
</svg>
