<?xml version="1.0" encoding="UTF-8" standalone="no"?>
<!-- Created with Inkscape (http://www.inkscape.org/) -->

<svg
   width="210mm"
   height="297mm"
   viewBox="0 0 210 297"
   version="1.1"
   id="svg5"
   inkscape:version="1.2.2 (b0a8486541, 2022-12-01)"
   sodipodi:docname="datadatafinal2.svg"
   xmlns:inkscape="http://www.inkscape.org/namespaces/inkscape"
   xmlns:sodipodi="http://sodipodi.sourceforge.net/DTD/sodipodi-0.dtd"
   xmlns="http://www.w3.org/2000/svg"
   xmlns:svg="http://www.w3.org/2000/svg">
  <sodipodi:namedview
     id="namedview7"
     pagecolor="#ffffff"
     bordercolor="#000000"
     borderopacity="0.25"
     inkscape:showpageshadow="2"
     inkscape:pageopacity="0.0"
     inkscape:pagecheckerboard="0"
     inkscape:deskcolor="#d1d1d1"
     inkscape:document-units="mm"
     showgrid="false"
     inkscape:zoom="4.1146545"
     inkscape:cx="339.51818"
     inkscape:cy="495.54586"
     inkscape:window-width="2560"
     inkscape:window-height="1385"
     inkscape:window-x="1920"
     inkscape:window-y="0"
     inkscape:window-maximized="1"
     inkscape:current-layer="layer5" />
  <defs
     id="defs2">
    <rect
       x="505.95288"
       y="579.6032"
       width="127.6438"
       height="127.94966"
       id="rect1266" />
    <rect
       x="309.92126"
       y="404.51989"
       width="483.77954"
       height="358.02926"
       id="rect600" />
    <inkscape:path-effect
       effect="bspline"
       id="path-effect5591"
       is_visible="true"
       lpeversion="1"
       weight="33.333333"
       steps="2"
       helper_size="0"
       apply_no_weight="true"
       apply_with_weight="true"
       only_selected="false" />
  </defs>
  <g
     inkscape:groupmode="layer"
     id="layer6"
     inkscape:label="bg"
     style="display:none;fill:#ff0000;fill-opacity:1"
     transform="matrix(1.2831201,0,0,3.2117929,-26.690111,-224.39813)">
    <rect
       style="fill:#22272e;fill-opacity:1;stroke:#000000;stroke-width:0;stroke-miterlimit:0;stroke-dasharray:none;stroke-opacity:1"
       id="rect10264"
       width="163.66356"
       height="92.471725"
       x="20.800945"
       y="69.866936"
       inkscape:label="bg" />
  </g>
  <g
     inkscape:groupmode="layer"
     id="layer5"
     inkscape:label="tagline"
     style="display:inline">
    <g
       aria-label="Immutable . Friendly . Secure"
       transform="scale(0.95128779,1.0512066)"
       id="text9503"
       style="font-size:6.44339px;font-family:Laksaman;-inkscape-font-specification:'Laksaman, Normal';stroke:#5c5f5c;stroke-width:0;stroke-miterlimit:0"
       inkscape:label="linux-netconf"
       inkscape:export-filename="minidata3.png"
       inkscape:export-xdpi="191.95932"
       inkscape:export-ydpi="191.95932">
      <path
         d="m 62.472956,124.15871 h -0.386604 v -4.61347 h 0.386604 z"
         id="path2380" />
      <path
         d="m 67.144418,120.79526 q 0.573462,0 0.869857,0.4317 0.296396,0.43171 0.296396,1.10182 v 1.82993 h -0.386603 v -1.82348 q 0,-0.54125 -0.219075,-0.8763 -0.212632,-0.3415 -0.663669,-0.3415 -0.367274,0 -0.657226,0.28995 -0.289953,0.28995 -0.289953,0.65722 v 2.09411 h -0.386603 v -1.99745 q 0,-1.04383 -0.831197,-1.04383 -0.38016,0 -0.689443,0.32861 -0.309283,0.32861 -0.309283,0.71522 v 1.99745 H 63.491016 V 121.678 q 0,-0.28995 -0.06443,-0.81187 h 0.354386 q 0.06443,0.19975 0.07732,0.58635 0.373717,-0.65722 1.108263,-0.65722 0.670113,0 0.998725,0.73454 0.386604,-0.73454 1.179141,-0.73454 z"
         id="path2382" />
      <path
         d="m 72.969238,120.79526 q 0.573462,0 0.869858,0.4317 0.296396,0.43171 0.296396,1.10182 v 1.82993 h -0.386604 v -1.82348 q 0,-0.54125 -0.219075,-0.8763 -0.212632,-0.3415 -0.663669,-0.3415 -0.367273,0 -0.657226,0.28995 -0.289953,0.28995 -0.289953,0.65722 v 2.09411 h -0.386603 v -1.99745 q 0,-1.04383 -0.831197,-1.04383 -0.38016,0 -0.689443,0.32861 -0.309283,0.32861 -0.309283,0.71522 v 1.99745 H 69.315836 V 121.678 q 0,-0.28995 -0.06443,-0.81187 h 0.354386 q 0.06443,0.19975 0.07732,0.58635 0.373717,-0.65722 1.108263,-0.65722 0.670113,0 0.998726,0.73454 0.386603,-0.73454 1.17914,-0.73454 z"
         id="path2384" />
      <path
         d="m 78.078841,124.14582 -0.36083,0.0838 q -0.115981,-0.32861 -0.154641,-0.64434 -0.431707,0.66367 -1.237131,0.66367 -1.185584,0 -1.185584,-1.53352 v -1.84926 h 0.386604 v 1.77838 q 0,1.28223 0.882744,1.28223 0.457481,0 0.786094,-0.30928 0.328613,-0.31572 0.328613,-0.76032 v -1.99101 h 0.386603 v 2.48715 q 0,0.34795 0.167528,0.79254 z"
         id="path2386" />
      <path
         d="m 79.973201,124.24891 q -0.39949,0 -0.625009,-0.29639 -0.219075,-0.30284 -0.219075,-0.76032 v -2.03611 h -0.657226 v -0.28996 h 0.657226 v -0.97939 l 0.386603,-0.17397 v 1.15336 h 1.050273 v 0.28996 H 79.51572 v 2.03611 q 0,0.73454 0.489698,0.73454 0.302839,0 0.444594,-0.058 l 0.03866,0.28996 q -0.199745,0.0902 -0.515471,0.0902 z"
         id="path2388" />
      <path
         d="m 82.015758,124.24891 q -0.43815,0 -0.747433,-0.25129 -0.302839,-0.25773 -0.302839,-0.66367 0,-1.23068 2.190752,-1.23068 0,-0.47037 -0.225519,-0.72811 -0.225518,-0.25773 -0.663669,-0.25773 -0.354386,0 -1.050272,0.21907 l -0.0451,-0.36727 q 0.541245,-0.17397 1.12115,-0.17397 1.250018,0 1.250018,1.37888 v 1.17914 q 0,0.40594 0.115981,0.80543 l -0.335057,0.0709 -0.135311,-0.5348 q -0.444594,0.55413 -1.172697,0.55413 z m -0.663669,-0.97939 q 0,0.30284 0.186858,0.48325 0.186859,0.17397 0.489698,0.17397 0.386603,0 0.753876,-0.2384 0.373717,-0.24485 0.373717,-0.59279 v -0.67012 q -1.804149,0 -1.804149,0.84409 z"
         id="path2390" />
      <path
         d="m 86.178189,120.79526 q 0.683,0 1.08249,0.47681 0.39949,0.47037 0.39949,1.19847 0,0.77965 -0.412377,1.28223 -0.412377,0.49614 -1.127593,0.49614 -0.766764,0 -1.224244,-0.67011 0,0.32861 -0.01933,0.57991 h -0.354387 q 0.02577,-0.22552 0.02577,-0.80543 v -4.09155 h 0.386603 v 2.22941 q 0.425264,-0.69588 1.243574,-0.69588 z m -1.243574,2.04255 q 0,0.46393 0.328613,0.77965 0.328613,0.30928 0.805424,0.30928 1.204914,0 1.204914,-1.44331 0,-0.61213 -0.30284,-0.98584 -0.302839,-0.38016 -0.863414,-0.38016 -0.489698,0 -0.831197,0.3415 -0.3415,0.3415 -0.3415,0.83119 z"
         id="path2392" />
      <path
         d="m 89.696285,123.92674 -0.03866,0.32217 q -1.224244,-0.058 -1.224244,-1.74615 v -3.24103 h 0.386603 v 3.10571 q 0,0.36728 0.03222,0.61857 0.03222,0.25129 0.115981,0.48325 0.09021,0.23197 0.270623,0.34795 0.180415,0.10953 0.457481,0.10953 z"
         id="path2394" />
      <path
         d="m 90.51459,122.54142 q 0.01933,0.625 0.373717,1.00516 0.36083,0.38016 0.960065,0.38016 0.560575,0 1.153367,-0.23196 l 0.03222,0.31573 q -0.573462,0.2384 -1.224245,0.2384 -0.740989,0 -1.211357,-0.45748 -0.470367,-0.46392 -0.470367,-1.19202 0,-0.77965 0.451037,-1.28868 0.457481,-0.51547 1.192027,-0.51547 1.385329,0 1.417546,1.74616 z m 2.287403,-0.32217 q -0.01289,-0.50259 -0.309282,-0.79898 -0.289953,-0.30284 -0.766764,-0.30284 -0.47681,0 -0.79898,0.31572 -0.322169,0.30929 -0.393047,0.7861 z"
         id="path2396" />
      <path
         d="m 96.345854,123.54658 q 0.135311,0 0.238405,0.1031 0.103095,0.10309 0.103095,0.2384 0,0.13532 -0.103095,0.23197 -0.103094,0.0966 -0.238405,0.0966 -0.135311,0 -0.231962,-0.0966 -0.09665,-0.0967 -0.09665,-0.23197 0,-0.13531 0.09665,-0.2384 0.09665,-0.1031 0.231962,-0.1031 z"
         id="path2398" />
      <path
         d="m 102.20934,121.94218 h -2.07477 v 2.21653 h -0.386608 v -4.61347 h 2.609578 v 0.32217 h -2.22297 v 1.7526 h 2.07477 z"
         id="path2400" />
      <path
         d="m 104.6385,121.13031 q -0.0387,-0.0129 -0.11598,-0.0129 -0.42527,0 -0.72166,0.34794 -0.28996,0.3415 -0.28996,0.9214 v 1.77194 h -0.3866 v -2.21653 q 0,-0.7281 -0.0967,-1.07605 h 0.32861 q 0.1031,0.20619 0.1031,0.65723 0.30928,-0.7281 0.99228,-0.7281 0.0902,0 0.18686,0.0193 z"
         id="path2402" />
      <path
         d="m 105.60501,124.15871 h -0.38661 v -3.29258 h 0.38661 z m -0.20619,-4.60058 q 0.13531,0 0.21907,0.0902 0.0902,0.0838 0.0902,0.21908 0,0.13531 -0.0902,0.21907 -0.0838,0.0773 -0.21907,0.0773 -0.13531,0 -0.21908,-0.0773 -0.0773,-0.0838 -0.0773,-0.21907 0,-0.13531 0.0773,-0.21908 0.0838,-0.0902 0.21908,-0.0902 z"
         id="path2404" />
      <path
         d="m 106.75838,122.54142 q 0.0193,0.625 0.37371,1.00516 0.36083,0.38016 0.96007,0.38016 0.56057,0 1.15336,-0.23196 l 0.0322,0.31573 q -0.57346,0.2384 -1.22424,0.2384 -0.74099,0 -1.21136,-0.45748 -0.47037,-0.46392 -0.47037,-1.19202 0,-0.77965 0.45104,-1.28868 0.45748,-0.51547 1.19203,-0.51547 1.38533,0 1.41754,1.74616 z m 2.2874,-0.32217 q -0.0129,-0.50259 -0.30928,-0.79898 -0.28996,-0.30284 -0.76677,-0.30284 -0.47681,0 -0.79898,0.31572 -0.32217,0.30929 -0.39304,0.7861 z"
         id="path2406" />
      <path
         d="m 113.00202,124.15871 h -0.3866 v -1.86859 q 0,-1.17269 -0.9794,-1.17269 -0.3866,0 -0.70233,0.32861 -0.31572,0.32861 -0.31572,0.71522 v 1.99745 h -0.38661 V 121.678 q 0,-0.28995 -0.0644,-0.81187 h 0.36083 q 0.0644,0.19975 0.0773,0.58635 0.37372,-0.65722 1.10826,-0.65722 1.28868,0 1.28868,1.49486 z"
         id="path2408" />
      <path
         d="m 113.77523,122.47054 q 0,-0.72166 0.39949,-1.19847 0.40593,-0.47681 1.08249,-0.47681 0.81831,0 1.24357,0.69588 v -2.22941 h 0.38661 v 4.09155 q 0,0.57991 0.0258,0.80543 h -0.35439 q -0.0193,-0.2513 -0.0193,-0.57991 -0.45748,0.67011 -1.22424,0.67011 -0.72166,0 -1.13404,-0.49614 -0.40593,-0.50258 -0.40593,-1.28223 z m 1.59152,1.4562 q 0.47681,0 0.80542,-0.30928 0.32861,-0.31572 0.32861,-0.77965 v -0.54769 q 0,-0.49614 -0.3415,-0.83119 -0.33505,-0.3415 -0.83119,-0.3415 -0.56058,0 -0.86342,0.38016 -0.30284,0.38016 -0.30284,0.98584 0,1.44331 1.20492,1.44331 z"
         id="path2410" />
      <path
         d="m 119.15547,123.92674 -0.0387,0.32217 q -1.22424,-0.058 -1.22424,-1.74615 v -3.24103 h 0.3866 v 3.10571 q 0,0.36728 0.0322,0.61857 0.0322,0.25129 0.11598,0.48325 0.0902,0.23197 0.27062,0.34795 0.18042,0.10953 0.45749,0.10953 z"
         id="path2412" />
      <path
         d="m 121.10781,124.15871 q -0.57346,1.28867 -1.52064,1.51419 l -0.0902,-0.30284 q 0.82476,-0.18685 1.25002,-1.32089 0,-0.058 -0.0258,-0.11598 l -1.366,-3.06706 h 0.40593 l 1.23069,2.78999 1.15337,-2.78999 h 0.41237 z"
         id="path2414" />
      <path
         d="m 125.44421,123.54658 q 0.13531,0 0.2384,0.1031 0.1031,0.10309 0.1031,0.2384 0,0.13532 -0.1031,0.23197 -0.10309,0.0966 -0.2384,0.0966 -0.13531,0 -0.23196,-0.0966 -0.0966,-0.0967 -0.0966,-0.23197 0,-0.13531 0.0966,-0.2384 0.0966,-0.1031 0.23196,-0.1031 z"
         id="path2416" />
      <path
         d="m 131.42367,122.95379 q 0,0.59924 -0.45103,0.94718 -0.4446,0.34794 -1.11471,0.34794 -0.76032,0 -1.26935,-0.35438 l 0.15464,-0.32862 q 0.47681,0.36083 1.15337,0.36083 0.50903,0 0.82475,-0.24484 0.31573,-0.24485 0.31573,-0.69589 0,-0.43815 -0.25129,-0.65723 -0.2513,-0.22551 -0.75388,-0.38016 -1.28868,-0.41882 -1.28868,-1.30156 0,-0.54125 0.41238,-0.85697 0.41238,-0.32217 1.01805,-0.32217 0.64434,0 1.05672,0.24485 -0.0129,0.0258 -0.0773,0.14175 -0.058,0.10954 -0.0838,0.16109 -0.41882,-0.22552 -0.90208,-0.22552 -0.45104,0 -0.74743,0.21263 -0.28995,0.21263 -0.28995,0.59924 0,0.63789 0.99872,0.98583 0.32217,0.11599 0.51547,0.21264 0.19975,0.0902 0.39949,0.24484 0.19975,0.15465 0.28995,0.38016 0.0902,0.22552 0.0902,0.52836 z"
         id="path2418" />
      <path
         d="m 132.38373,122.54142 q 0.0193,0.625 0.37372,1.00516 0.36083,0.38016 0.96006,0.38016 0.56058,0 1.15337,-0.23196 l 0.0322,0.31573 q -0.57347,0.2384 -1.22425,0.2384 -0.74099,0 -1.21136,-0.45748 -0.47036,-0.46392 -0.47036,-1.19202 0,-0.77965 0.45103,-1.28868 0.45749,-0.51547 1.19203,-0.51547 1.38533,0 1.41755,1.74616 z m 2.2874,-0.32217 q -0.0129,-0.50259 -0.30928,-0.79898 -0.28995,-0.30284 -0.76676,-0.30284 -0.47681,0 -0.79898,0.31572 -0.32217,0.30929 -0.39305,0.7861 z"
         id="path2420" />
      <path
         d="m 137.3387,121.11743 q -0.61212,0 -0.97295,0.3866 -0.36083,0.3866 -0.36083,1.01806 0,0.625 0.36727,1.01805 0.36727,0.3866 0.96651,0.3866 0.54124,0 0.90207,-0.23196 l 0.13531,0.31573 q -0.42526,0.2384 -1.01805,0.2384 -0.79898,0 -1.26935,-0.46392 -0.47037,-0.47037 -0.47037,-1.2629 0,-0.79254 0.47037,-1.25647 0.47037,-0.47036 1.26935,-0.47036 0.59923,0 1.01805,0.23196 l -0.13531,0.32217 q -0.36083,-0.23196 -0.90207,-0.23196 z"
         id="path2422" />
      <path
         d="m 141.99727,124.14582 -0.36083,0.0838 q -0.11598,-0.32861 -0.15464,-0.64434 -0.4317,0.66367 -1.23713,0.66367 -1.18558,0 -1.18558,-1.53352 v -1.84926 h 0.3866 v 1.77838 q 0,1.28223 0.88275,1.28223 0.45748,0 0.78609,-0.30928 0.32861,-0.31572 0.32861,-0.76032 v -1.99101 h 0.38661 v 2.48715 q 0,0.34795 0.16752,0.79254 z"
         id="path2424" />
      <path
         d="m 144.34911,121.13031 q -0.0387,-0.0129 -0.11598,-0.0129 -0.42526,0 -0.72166,0.34794 -0.28995,0.3415 -0.28995,0.9214 v 1.77194 h -0.38661 v -2.21653 q 0,-0.7281 -0.0967,-1.07605 h 0.32862 q 0.10309,0.20619 0.10309,0.65723 0.30928,-0.7281 0.99228,-0.7281 0.0902,0 0.18686,0.0193 z"
         id="path2426" />
      <path
         d="m 145.08366,122.54142 q 0.0193,0.625 0.37372,1.00516 0.36083,0.38016 0.96006,0.38016 0.56058,0 1.15337,-0.23196 l 0.0322,0.31573 q -0.57346,0.2384 -1.22424,0.2384 -0.74099,0 -1.21136,-0.45748 -0.47036,-0.46392 -0.47036,-1.19202 0,-0.77965 0.45103,-1.28868 0.45748,-0.51547 1.19203,-0.51547 1.38533,0 1.41755,1.74616 z m 2.2874,-0.32217 q -0.0129,-0.50259 -0.30928,-0.79898 -0.28995,-0.30284 -0.76676,-0.30284 -0.47681,0 -0.79898,0.31572 -0.32217,0.30929 -0.39305,0.7861 z"
         id="path2428" />
    </g>
    <path
       style="fill:#5c5f5c;fill-opacity:1;stroke:#5c5f5c;stroke-width:0.194246;stroke-linejoin:bevel"
       d="m 223.38329,484.15901 v -9.03246 h 0.58274 0.58274 v 9.03246 9.03245 h -0.58274 -0.58274 z"
       id="path1834"
       transform="scale(0.26458333)" />
    <path
       style="fill:#5c5f5c;fill-opacity:1;stroke:#5c5f5c;stroke-width:0.194246;stroke-linejoin:bevel"
       d="m 228.43253,488.38386 c -6.4e-4,-2.64417 -0.0579,-5.53584 -0.12713,-6.42592 l -0.12597,-1.61833 0.56419,0.0644 c 0.53405,0.0609 0.56732,0.11883 0.6229,1.08415 0.0323,0.56089 0.12967,1.01979 0.21639,1.01979 0.0867,0 0.38929,-0.33422 0.67238,-0.74271 0.91393,-1.3188 2.66926,-2.00044 4.13506,-1.60574 0.86092,0.23182 2.04111,1.29757 2.40217,2.16924 0.12933,0.31224 0.2901,0.56535 0.35727,0.56248 0.0672,-0.003 0.34006,-0.35837 0.60644,-0.78999 1.62805,-2.638 5.25262,-2.76519 6.73464,-0.23631 0.85471,1.45845 1.03015,2.6805 1.03347,7.19885 l 0.003,4.12773 h -0.58274 -0.58274 v -3.85841 c 0,-4.04906 -0.16272,-5.48953 -0.74837,-6.62489 -0.97524,-1.89066 -3.35323,-2.11305 -4.92303,-0.4604 -1.03875,1.09356 -1.12722,1.60138 -1.12722,6.4698 v 4.4739 h -0.56535 -0.56534 l -0.0723,-4.8076 c -0.0781,-5.19309 -0.16625,-5.68505 -1.188,-6.62687 -0.5343,-0.49249 -1.87288,-0.75083 -2.74992,-0.53071 -0.72522,0.18202 -2.04937,1.44652 -2.46084,2.34999 -0.30871,0.67784 -0.35441,1.34084 -0.35813,5.19609 l -0.004,4.4191 h -0.58274 -0.58274 z"
       id="path1836"
       transform="scale(0.26458333)" />
    <path
       style="fill:#5c5f5c;fill-opacity:1;stroke:#5c5f5c;stroke-width:0.194246;stroke-linejoin:bevel"
       d="m 249.39406,488.57811 c -0.01,-2.53734 -0.0756,-5.42192 -0.14569,-6.41017 l -0.12744,-1.79683 0.53048,5e-5 c 0.57465,5e-5 0.68172,0.2256 0.77747,1.63776 l 0.0518,0.76361 0.5691,-0.82445 c 1.00313,-1.45322 2.80602,-2.19608 4.33232,-1.78509 0.80947,0.21797 1.99805,1.32577 2.42291,2.25823 0.11908,0.26135 0.26804,0.47242 0.33102,0.46905 0.063,-0.003 0.34597,-0.38783 0.62888,-0.85432 0.7501,-1.23686 2.06363,-1.95451 3.57903,-1.95541 1.33872,-8e-4 2.22364,0.46503 2.97983,1.56862 0.89814,1.31075 1.04718,2.23303 1.13543,7.02607 l 0.0831,4.51623 h -0.60091 -0.60092 l -0.006,-3.44787 c -0.007,-4.03899 -0.2174,-5.95631 -0.77305,-7.04547 -1.0695,-2.09639 -3.90894,-2.05963 -5.38561,0.0697 l -0.53685,0.77414 -0.0581,4.82474 -0.0581,4.82474 h -0.54937 -0.54937 l -0.0848,-4.71047 c -0.0769,-4.27252 -0.12307,-4.79578 -0.49627,-5.62796 -1.17692,-2.62436 -4.42294,-2.20832 -5.94644,0.76215 -0.26842,0.52335 -0.31884,1.32971 -0.31884,5.09897 v 4.47731 h -0.58274 -0.58274 z"
       id="path1838"
       transform="scale(0.26458333)" />
    <path
       style="fill:#5c5f5c;fill-opacity:1;stroke:#5c5f5c;stroke-width:0.194246;stroke-linejoin:bevel"
       d="m 273.01323,493.28817 c -0.42734,-0.15111 -1.05549,-0.57696 -1.3959,-0.94634 -1.08415,-1.17645 -1.27314,-2.18958 -1.37243,-7.35728 l -0.0886,-4.61335 h 0.60294 0.60294 l 0.003,3.15651 c 0.004,3.91414 0.25019,6.36807 0.73168,7.3013 1.13174,2.19355 4.30257,2.12242 5.93754,-0.1332 l 0.61157,-0.84373 0.0582,-4.74044 0.0582,-4.74044 h 0.67021 0.67021 l 0.005,5.48746 c 0.003,3.0181 0.0937,5.87338 0.20243,6.34505 0.15249,0.66158 0.14031,0.89461 -0.0533,1.01955 -0.55281,0.35673 -0.83165,0.0557 -1.09962,-1.18733 -0.24582,-1.14025 -0.29208,-1.21548 -0.53608,-0.87175 -1.45497,2.04964 -3.5618,2.84756 -5.60816,2.12399 z"
       id="path1840"
       transform="scale(0.26458333)" />
    <path
       style="fill:#5c5f5c;fill-opacity:1;stroke:#5c5f5c;stroke-width:0.0228637;stroke-linejoin:bevel"
       d="m 287.30474,493.62291 c -0.5234,-0.0325 -0.99929,-0.2067 -1.39355,-0.51007 -0.0711,-0.0547 -0.21266,-0.18756 -0.31455,-0.2952 -0.51237,-0.54129 -0.84906,-1.32221 -1.01656,-2.35786 l -0.0518,-0.32009 -0.007,-4.39554 -0.007,-4.39554 h -1.17681 -1.17681 v -0.56016 -0.56016 h 1.17748 1.17748 v -1.94931 -1.9493 l 0.67458,-0.33706 c 0.37102,-0.18538 0.67968,-0.33706 0.68591,-0.33706 0.006,0 0.0113,1.02886 0.0113,2.28637 v 2.28636 h 1.88625 1.88625 v 0.56016 0.56016 h -1.88681 -1.8868 l 0.007,4.42983 c 0.008,4.76198 0.003,4.54099 0.11952,5.05219 0.16032,0.70049 0.47404,1.17713 0.91502,1.3902 0.25035,0.12096 0.40253,0.14734 0.85223,0.14773 0.56364,4.8e-4 1.01334,-0.0544 1.32518,-0.16168 0.0702,-0.0241 0.13023,-0.0412 0.13351,-0.0379 0.003,0.003 0.0357,0.2528 0.072,0.5545 l 0.066,0.54854 -0.0472,0.0278 c -0.0785,0.0463 -0.33404,0.13919 -0.51588,0.18759 -0.42382,0.11279 -1.01712,0.16607 -1.509,0.13551 z"
       id="path1842"
       transform="scale(0.26458333)" />
    <path
       style="fill:#5c5f5c;fill-opacity:1;stroke:#5c5f5c;stroke-width:0.0228637;stroke-linejoin:bevel"
       d="m 294.5861,493.62213 c -1.33382,-0.0703 -2.53644,-0.82061 -3.09275,-1.92964 -0.24094,-0.48033 -0.34819,-0.94143 -0.36461,-1.5675 -0.0163,-0.62035 0.0506,-1.12228 0.21568,-1.62005 0.34649,-1.04458 1.07298,-1.83524 2.204,-2.3987 1.19263,-0.59414 2.78564,-0.91132 4.79719,-0.95516 l 0.64935,-0.0142 -0.0145,-0.368 c -0.0763,-1.94209 -0.90557,-3.17288 -2.34847,-3.4855 -0.11953,-0.0259 -0.35827,-0.0588 -0.53054,-0.0732 -0.83261,-0.0693 -2.06866,0.17313 -3.73081,0.73187 -0.18772,0.0631 -0.34391,0.11214 -0.34708,0.10897 -0.003,-0.003 -0.0374,-0.29372 -0.0761,-0.64564 -0.0386,-0.35192 -0.0755,-0.67149 -0.0819,-0.71015 l -0.0116,-0.0703 0.37182,-0.11744 c 1.20391,-0.38027 2.32736,-0.55784 3.54986,-0.5611 0.7727,-0.002 1.23902,0.0602 1.77856,0.23734 1.46594,0.48137 2.35205,1.64256 2.66841,3.49679 0.12045,0.70598 0.11904,0.66437 0.1383,4.08126 0.01,1.7605 0.0238,3.23692 0.0308,3.28093 0.007,0.044 0.0291,0.23435 0.0491,0.42298 0.0465,0.43878 0.14592,1.02673 0.2474,1.4631 0.0438,0.18852 0.0764,0.34605 0.0724,0.35005 -0.01,0.01 -1.16361,0.2786 -1.16815,0.2723 -0.002,-0.003 -0.10844,-0.46785 -0.23669,-1.03372 -0.12825,-0.56588 -0.23848,-1.0443 -0.24496,-1.06316 -0.009,-0.0258 -0.0241,-0.0174 -0.0616,0.0341 -0.24974,0.34282 -0.61859,0.73947 -0.92993,1.00003 -0.98835,0.82713 -2.1679,1.2056 -3.53328,1.13367 z m 0.93086,-1.28687 c 0.65714,-0.0991 1.29513,-0.35128 1.90495,-0.7531 0.81304,-0.53573 1.28846,-1.12731 1.48996,-1.85402 l 0.0634,-0.22864 0.008,-1.55251 0.008,-1.55252 -0.63565,0.0142 c -3.56014,0.0798 -5.51289,1.02626 -5.8264,2.82409 -0.0446,0.25589 -0.0441,0.85092 10e-4,1.11538 0.18522,1.08602 0.8607,1.80366 1.87004,1.98675 0.22689,0.0412 0.84543,0.0413 1.1175,3.3e-4 z"
       id="path1844"
       transform="scale(0.26458333)" />
    <path
       style="fill:#5c5f5c;fill-opacity:1;stroke:#5c5f5c;stroke-width:0.0228637;stroke-linejoin:bevel"
       d="m 309.32244,493.62288 c -0.96944,-0.0469 -1.85038,-0.37861 -2.65218,-0.99851 -0.41295,-0.31926 -0.94289,-0.9117 -1.28908,-1.44113 l -0.1399,-0.21394 -0.005,0.14535 c -0.003,0.0799 -0.0158,0.50031 -0.0286,0.93415 -0.0128,0.43384 -0.03,0.88911 -0.0382,1.01172 l -0.0148,0.22292 h -0.62644 -0.62644 l 0.0136,-0.13147 c 0.0609,-0.58676 0.0652,-1.17336 0.0733,-10.07144 l 0.008,-9.2312 h 0.68506 0.68507 l 7.2e-4,4.42983 c 5.8e-4,3.48836 0.007,4.42158 0.0286,4.39101 0.0153,-0.0214 0.0947,-0.14835 0.17647,-0.28221 0.23909,-0.39153 0.48968,-0.7084 0.83324,-1.05364 0.79409,-0.79798 1.61045,-1.19749 2.77922,-1.36008 0.2959,-0.0412 1.07923,-0.0347 1.40611,0.0117 1.32147,0.18728 2.34057,0.79358 3.15682,1.87808 0.76131,1.0115 1.19388,2.16861 1.36296,3.64582 0.0403,0.35233 0.0407,1.83298 6e-4,2.20634 -0.11974,1.1141 -0.37776,2.05613 -0.79532,2.90368 -1.03324,2.09723 -2.72255,3.11307 -4.99399,3.00306 z m 0.86193,-1.2892 c 1.76169,-0.22995 2.85867,-1.28108 3.34269,-3.20299 0.30067,-1.19391 0.35369,-2.89198 0.12825,-4.108 -0.29692,-1.60162 -1.09958,-2.84593 -2.19579,-3.40403 -0.57991,-0.29523 -1.09671,-0.4111 -1.83985,-0.41248 -0.63377,-0.001 -1.01616,0.0697 -1.55843,0.28899 -0.58207,0.23535 -1.2143,0.72589 -1.6676,1.29385 -0.44764,0.56087 -0.77863,1.27537 -0.92145,1.98914 -0.0992,0.49576 -0.10972,0.74403 -0.0998,2.35496 0.0101,1.63879 0.0104,1.64172 0.15709,2.19491 0.35782,1.34881 1.39583,2.46469 2.66595,2.86592 0.16235,0.0513 0.55199,0.13409 0.74972,0.15934 0.19748,0.0252 0.99214,0.0126 1.23918,-0.0196 z"
       id="path1846"
       transform="scale(0.26458333)" />
    <path
       style="fill:#5c5f5c;fill-opacity:1;stroke:#5c5f5c;stroke-width:0.0228637;stroke-linejoin:bevel"
       d="m 321.87459,493.58992 c -0.8696,-0.12637 -1.59301,-0.47045 -2.17909,-1.03646 -1.03984,-1.00425 -1.58419,-2.59401 -1.70723,-4.98593 -0.0142,-0.27698 -0.023,-2.95931 -0.0231,-7.08202 l -2.2e-4,-6.63618 h 0.68513 0.68513 l 0.009,6.87625 c 0.009,7.02584 0.008,7.00928 0.0967,7.81365 0.10578,0.96416 0.35005,1.9335 0.62093,2.46402 0.44664,0.87476 1.13121,1.30724 2.15714,1.36279 l 0.26385,0.0143 -0.0674,0.62303 -0.0674,0.62304 -0.12782,-0.002 c -0.0703,-0.001 -0.22557,-0.0167 -0.34503,-0.034 z"
       id="path1848"
       transform="scale(0.26458333)" />
    <path
       style="fill:#5c5f5c;fill-opacity:1;stroke:#5c5f5c;stroke-width:0.0228637;stroke-linejoin:bevel"
       d="m 329.71682,493.62332 c -0.82899,-0.0372 -1.61396,-0.23055 -2.30398,-0.56754 -0.37825,-0.18472 -0.54944,-0.28931 -0.89693,-0.54795 -1.01662,-0.7567 -1.78269,-1.89329 -2.17055,-3.22039 -0.0777,-0.26591 -0.16487,-0.69455 -0.21981,-1.08101 -0.0576,-0.40513 -0.0709,-1.55129 -0.0238,-2.04475 0.11581,-1.21225 0.35793,-2.09011 0.8324,-3.01808 0.61749,-1.20767 1.53413,-2.14784 2.59917,-2.66589 0.77538,-0.37715 1.4905,-0.53207 2.44641,-0.52996 0.56508,0.001 0.9552,0.047 1.4181,0.16637 1.6679,0.43005 2.77783,1.70533 3.2916,3.78196 0.19164,0.7746 0.29118,1.5435 0.34432,2.65973 l 0.0144,0.30294 h -4.81566 -4.81566 l 0.0115,0.1086 c 0.006,0.0597 0.0176,0.21149 0.025,0.33724 0.0636,1.07931 0.381,2.14843 0.87454,2.9463 0.31378,0.50727 0.79874,1.03354 1.23804,1.3435 0.55763,0.39346 1.23414,0.64767 1.97432,0.74188 0.37368,0.0476 1.35758,0.0353 1.79434,-0.0224 0.9694,-0.12807 2.04082,-0.42013 2.89393,-0.78886 0.0608,-0.0263 0.11819,-0.0478 0.1276,-0.0478 0.0179,0 0.13106,1.20581 0.11442,1.21964 -0.005,0.004 -0.11245,0.0518 -0.2382,0.10527 -1.16468,0.49571 -2.41589,0.77766 -3.61246,0.81404 -0.21378,0.007 -0.42469,0.0143 -0.46871,0.0174 -0.044,0.003 -0.23949,-0.002 -0.43441,-0.0103 z m 3.95534,-8.11924 c -2.5e-4,-0.30965 -0.0819,-0.91311 -0.17265,-1.27644 -0.21244,-0.85027 -0.58191,-1.49481 -1.19286,-2.08098 -0.59602,-0.57184 -1.29064,-0.86751 -2.19852,-0.93583 -1.41629,-0.10657 -2.61061,0.44344 -3.51878,1.62047 -0.52227,0.67689 -0.89262,1.54618 -1.04384,2.45013 -0.02,0.11931 -0.0415,0.24008 -0.0478,0.26838 l -0.0115,0.0514 h 4.09303 4.09303 l -7e-5,-0.0972 z"
       id="path1850"
       transform="scale(0.26458333)" />
    <path
       style="fill:#5c5f5c;fill-opacity:1;stroke:#5c5f5c;stroke-width:0.0228637;stroke-linejoin:bevel"
       d="m 358.63935,484.12654 v -9.15689 h 4.68705 4.68705 v 0.62875 0.62875 h -4.00114 -4.00114 v 3.49814 3.49814 h 3.72678 3.72678 v 0.62875 0.62875 h -3.72678 -3.72678 v 4.40126 4.40125 h -0.68591 -0.68591 z"
       id="path1852"
       transform="scale(0.26458333)" />
    <path
       style="fill:#5c5f5c;fill-opacity:1;stroke:#5c5f5c;stroke-width:0.0228637;stroke-linejoin:bevel"
       d="m 370.77972,488.3849 c -2.5e-4,-5.30842 -0.0101,-5.84482 -0.12715,-6.89911 -0.0383,-0.34527 -0.13012,-0.92558 -0.17819,-1.12641 l -0.0315,-0.13185 0.58559,0.006 0.58559,0.006 0.0735,0.21721 c 0.15373,0.45451 0.2441,1.0906 0.27609,1.94333 l 0.0167,0.44577 0.11057,-0.26286 c 0.36692,-0.87227 0.86854,-1.56026 1.46921,-2.01506 0.22423,-0.16978 0.70767,-0.41064 0.98068,-0.48859 0.44934,-0.1283 1.03347,-0.17067 1.45783,-0.10575 l 0.20005,0.0306 v 0.61599 0.61599 l -0.0857,-0.0182 c -0.13914,-0.0295 -0.64614,-0.0138 -0.8626,0.0268 -0.61492,0.11523 -1.11795,0.37837 -1.59623,0.83501 -0.69911,0.66749 -1.13847,1.50376 -1.35187,2.57318 -0.14099,0.70651 -0.13497,0.50782 -0.144,4.74916 l -0.008,3.88111 h -0.68498 -0.68498 z"
       id="path1854"
       transform="scale(0.26458333)" />
    <path
       style="fill:#5c5f5c;fill-opacity:1;stroke:#5c5f5c;stroke-width:0.0228637;stroke-linejoin:bevel"
       d="m 378.32496,486.75587 v -6.52758 h 0.67448 0.67448 v 6.52758 6.52757 h -0.67448 -0.67448 z"
       id="path1856"
       transform="scale(0.26458333)" />
    <path
       style="fill:#5c5f5c;fill-opacity:1;stroke:#5c5f5c;stroke-width:0.0228637;stroke-linejoin:bevel"
       d="m 388.12204,493.62228 c -1.25745,-0.0534 -2.37679,-0.45935 -3.33031,-1.20766 -0.24611,-0.19314 -0.70076,-0.64519 -0.89683,-0.89168 -1.00908,-1.26862 -1.47423,-2.80387 -1.42354,-4.69848 0.0143,-0.53323 0.0346,-0.79039 0.0969,-1.22321 0.23095,-1.60525 0.88593,-2.99875 1.90618,-4.05551 0.84662,-0.87693 1.87353,-1.39202 3.11031,-1.5601 0.38666,-0.0525 1.16134,-0.0519 1.56251,0.001 2.18606,0.29027 3.51464,1.7209 4.04732,4.35822 0.13263,0.65663 0.24325,1.71374 0.24325,2.32446 v 0.18901 h -4.80137 -4.80136 l 4.6e-4,0.1429 c 6.4e-4,0.19414 0.0574,0.76627 0.10322,1.03965 0.36981,2.20844 1.63422,3.74849 3.43951,4.18933 0.48183,0.11766 0.80028,0.14581 1.48681,0.13141 1.20975,-0.0254 2.2518,-0.2443 3.51863,-0.73929 0.20618,-0.0806 0.37851,-0.14284 0.38295,-0.1384 0.0189,0.0189 0.11827,1.19481 0.10234,1.21087 -0.0372,0.0375 -0.75552,0.31882 -1.09377,0.42834 -1.19108,0.38565 -2.40723,0.55167 -3.65322,0.49872 z m 3.93653,-8.32397 c -0.0603,-1.26072 -0.4967,-2.31101 -1.28476,-3.09231 -0.61702,-0.61174 -1.3169,-0.92024 -2.25737,-0.99504 -0.82674,-0.0657 -1.6698,0.12102 -2.31532,0.51292 -0.68961,0.41867 -1.32032,1.12589 -1.72724,1.93675 -0.26734,0.53273 -0.48183,1.23016 -0.56034,1.82199 l -0.0157,0.11863 h 4.08763 4.08763 z"
       id="path1858"
       transform="scale(0.26458333)" />
    <path
       style="fill:#5c5f5c;fill-opacity:1;stroke:#5c5f5c;stroke-width:0.0228637;stroke-linejoin:bevel"
       d="m 396.33573,487.92763 c -0.007,-4.85115 -0.0113,-5.40106 -0.0474,-5.83595 -0.0419,-0.50482 -0.14345,-1.56986 -0.16734,-1.75479 l -0.014,-0.1086 h 0.64122 0.64123 l 0.0468,0.20006 c 0.0992,0.42383 0.17468,1.04371 0.20039,1.64553 0.0218,0.50978 0.0231,0.51241 0.14388,0.29078 0.59123,-1.08475 1.43569,-1.84809 2.4257,-2.19269 1.10461,-0.38449 2.66603,-0.27883 3.70071,0.25042 0.8891,0.45479 1.5357,1.23968 1.9221,2.3332 0.1634,0.46242 0.3086,1.13494 0.37746,1.74821 0.0675,0.60122 0.0799,1.38673 0.0803,5.07001 l 3.9e-4,3.70963 h -0.68487 -0.68486 l -0.009,-4.08688 c -0.009,-4.35633 -0.007,-4.24692 -0.11966,-4.90345 -0.28126,-1.6339 -1.06832,-2.63359 -2.33622,-2.96739 -0.50206,-0.13217 -1.2151,-0.16247 -1.65293,-0.0702 -0.60486,0.12742 -1.12382,0.4215 -1.65451,0.9376 -0.72158,0.70173 -1.17829,1.50047 -1.36742,2.39144 l -0.0532,0.25081 -0.006,4.22406 -0.006,4.22406 h -0.68464 -0.68464 z"
       id="path1860"
       transform="scale(0.26458333)" />
    <path
       style="fill:#5c5f5c;fill-opacity:1;stroke:#5c5f5c;stroke-width:0.0228637;stroke-linejoin:bevel"
       d="m 414.26664,493.62294 c -1.83788,-0.0825 -3.26746,-1.00338 -4.2008,-2.70589 -0.3807,-0.69442 -0.68091,-1.57878 -0.82789,-2.43875 -0.32417,-1.89678 -0.14434,-3.83422 0.49126,-5.29275 0.72289,-1.65881 1.92778,-2.75033 3.42854,-3.10596 0.98187,-0.23267 2.13233,-0.17008 3.02943,0.16481 0.9147,0.34146 1.69547,0.97787 2.32066,1.89159 0.088,0.12864 0.2012,0.30739 0.2515,0.39721 0.0503,0.0898 0.0992,0.16355 0.10861,0.16384 0.009,2.9e-4 0.0171,-1.99033 0.0171,-4.42359 v -4.42412 h 0.68591 0.68591 l 5e-5,8.92254 c 5e-5,8.49944 0.007,9.65931 0.0654,10.32295 l 0.0165,0.18862 h -0.62082 -0.62083 l -0.014,-0.12003 c -0.0166,-0.14264 -0.0605,-1.34328 -0.0674,-1.84624 l -0.005,-0.35439 -0.11162,0.17148 c -0.3375,0.51847 -0.89762,1.15186 -1.29751,1.46724 -0.83405,0.65779 -1.75585,0.99446 -2.82064,1.03019 -0.1006,0.003 -0.3321,-5.6e-4 -0.51443,-0.009 z m 1.3558,-1.32012 c 0.35926,-0.0732 0.62876,-0.16658 0.96486,-0.33421 0.37422,-0.18665 0.66148,-0.3911 0.97956,-0.69717 0.53286,-0.51277 0.9243,-1.15698 1.12209,-1.84669 0.17991,-0.62736 0.20239,-0.94624 0.18986,-2.69281 -0.0111,-1.54266 -0.0188,-1.64719 -0.16426,-2.21467 -0.22385,-0.8734 -0.6468,-1.57951 -1.34393,-2.24368 -0.60411,-0.57555 -1.26473,-0.90366 -2.07518,-1.0307 -0.31902,-0.05 -0.99883,-0.0499 -1.32396,3e-4 -0.46296,0.0714 -0.93142,0.22332 -1.26637,0.41064 -1.12396,0.62855 -1.91578,1.9733 -2.16607,3.67865 -0.15488,1.05527 -0.10279,2.50934 0.12831,3.58196 0.36088,1.67489 1.20542,2.76253 2.49248,3.20992 0.54115,0.18811 0.93885,0.24428 1.66696,0.23545 0.45707,-0.006 0.58998,-0.0151 0.79565,-0.057 z"
       id="path1862"
       transform="scale(0.26458333)" />
    <path
       style="fill:#5c5f5c;fill-opacity:1;stroke:#5c5f5c;stroke-width:0.0228637;stroke-linejoin:bevel"
       d="m 427.79049,493.5892 c -1.40617,-0.21864 -2.4022,-0.95029 -3.05109,-2.24123 -0.40773,-0.81115 -0.64172,-1.72903 -0.79471,-3.1174 -0.0358,-0.3249 -0.0396,-0.93786 -0.0463,-7.36781 l -0.007,-7.01343 h 0.67359 0.6736 l 0.009,6.70477 c 0.01,6.82326 0.0118,7.00237 0.0974,7.84795 0.12779,1.26122 0.41372,2.29884 0.79658,2.89067 0.13134,0.20304 0.44038,0.52728 0.61719,0.64753 0.38213,0.25992 0.95533,0.42813 1.46027,0.42851 0.12463,9e-5 0.1772,0.008 0.1772,0.0282 0,0.0501 -0.11612,1.12498 -0.12726,1.17801 -0.01,0.0465 -0.0234,0.0512 -0.14183,0.0489 -0.0721,-0.001 -0.22363,-0.017 -0.3368,-0.0346 z"
       id="path1864"
       transform="scale(0.26458333)" />
    <path
       style="fill:#5c5f5c;fill-opacity:1;stroke:#5c5f5c;stroke-width:0.0228637;stroke-linejoin:bevel"
       d="m 429.95866,499.23186 c -0.008,-0.0336 -0.0795,-0.29767 -0.15796,-0.58689 -0.0785,-0.28923 -0.14107,-0.52669 -0.13906,-0.52769 0.002,-10e-4 0.1333,-0.0436 0.29174,-0.0947 1.13222,-0.36509 2.10503,-1.1714 2.90787,-2.41017 0.43294,-0.66802 0.86412,-1.56618 1.19488,-2.489 0.0949,-0.26487 0.10313,-0.37893 0.0425,-0.59175 -0.0193,-0.0677 -1.09304,-2.74786 -2.38612,-5.95598 -1.29307,-3.20811 -2.39757,-5.94868 -2.45443,-6.09015 l -0.10338,-0.25722 h 0.71428 0.71428 l 1.18482,2.96656 c 0.65166,1.63161 1.64529,4.11889 2.20807,5.52729 0.56279,1.4084 1.032,2.55843 1.0427,2.55562 0.0107,-0.003 0.94775,-2.4864 2.08233,-5.5191 1.13458,-3.0327 2.06671,-5.51783 2.07139,-5.52251 0.005,-0.005 0.33206,-0.006 0.72749,-0.002 l 0.71899,0.006 -1.49381,3.74964 c -3.35876,8.43093 -3.81479,9.57116 -3.95489,9.88854 -1.3015,2.94837 -2.97284,4.73642 -5.00775,5.35742 l -0.18866,0.0576 z"
       id="path1866"
       transform="scale(0.26458333)" />
    <path
       style="fill:#5c5f5c;fill-opacity:1;stroke:#5c5f5c;stroke-width:0.0228637;stroke-linejoin:bevel"
       d="m 466.4758,493.62314 c -1.45181,-0.0518 -2.74209,-0.444 -3.79537,-1.15362 -0.13832,-0.0932 -0.27004,-0.18378 -0.29271,-0.20131 -0.0388,-0.03 -0.0255,-0.0688 0.22467,-0.65706 0.14623,-0.34386 0.26967,-0.62899 0.27431,-0.63362 0.005,-0.005 0.10416,0.0634 0.22117,0.1512 0.67232,0.50442 1.34476,0.82699 2.15829,1.03532 0.54738,0.14018 0.89369,0.18432 1.55671,0.19842 0.63362,0.0135 0.92514,-0.007 1.3677,-0.0968 1.32858,-0.26911 2.35262,-1.09378 2.72806,-2.19693 0.18459,-0.54239 0.26064,-1.19762 0.2121,-1.82751 -0.0878,-1.1388 -0.41159,-1.84567 -1.11432,-2.4323 -0.61331,-0.51197 -1.2819,-0.86992 -2.3653,-1.26634 -1.26557,-0.46308 -2.05129,-0.86777 -2.82085,-1.4529 -0.28325,-0.21536 -0.82457,-0.75065 -1.01574,-1.00442 -0.65231,-0.86591 -0.952,-1.83625 -0.90894,-2.94301 0.0533,-1.37071 0.52091,-2.37763 1.48963,-3.20783 0.644,-0.55192 1.4352,-0.94552 2.25611,-1.12235 0.46021,-0.0991 0.66417,-0.12051 1.26489,-0.13258 1.07258,-0.0215 1.99133,0.11405 2.81436,0.41535 0.24038,0.088 0.79477,0.35451 0.974,0.46822 l 0.1073,0.0681 -0.2759,0.56664 c -0.15175,0.31165 -0.28315,0.57464 -0.292,0.58442 -0.009,0.01 -0.10274,-0.0303 -0.20865,-0.089 -0.72347,-0.40119 -1.56973,-0.65953 -2.43295,-0.74271 -0.35408,-0.0341 -1.16128,-0.0144 -1.45209,0.0356 -0.86066,0.14772 -1.5369,0.47184 -2.04917,0.98215 -0.42088,0.41927 -0.65249,0.86296 -0.77831,1.491 -0.0586,0.2927 -0.0587,1.06224 -1.6e-4,1.33409 0.19406,0.90065 0.66802,1.58854 1.54586,2.24356 0.50705,0.37834 1.11699,0.69785 2.07057,1.08465 1.7404,0.70595 2.67043,1.24813 3.40775,1.98661 0.43957,0.44027 0.68634,0.84041 0.87774,1.42329 0.21093,0.64235 0.28583,1.22039 0.26905,2.07638 -0.0123,0.62679 -0.0378,0.85377 -0.1452,1.2918 -0.28152,1.14819 -0.97439,2.0959 -2.04295,2.79439 -1.06152,0.69388 -2.2618,0.98509 -3.82966,0.92913 z"
       id="path1868"
       transform="scale(0.26458333)" />
    <path
       style="fill:#5c5f5c;fill-opacity:1;stroke:#5c5f5c;stroke-width:0.0228637;stroke-linejoin:bevel"
       d="m 480.25115,493.62391 c -1.76943,-0.0824 -3.28993,-0.87015 -4.32828,-2.24257 -0.2674,-0.35344 -0.42444,-0.60902 -0.62244,-1.01302 -0.33343,-0.68033 -0.52948,-1.35217 -0.64384,-2.20634 -0.0591,-0.44104 -0.0584,-1.736 0.001,-2.22921 0.1851,-1.53321 0.63888,-2.7246 1.44812,-3.802 0.22897,-0.30485 0.71268,-0.81249 0.97864,-1.02706 0.75983,-0.61301 1.63095,-0.98187 2.64075,-1.11816 0.34389,-0.0464 1.1342,-0.0519 1.47471,-0.0103 1.60517,0.19621 2.76041,0.99424 3.47192,2.39837 0.53771,1.06112 0.81782,2.35304 0.89687,4.13649 l 0.0155,0.34867 h -4.81007 -4.81008 l 0.0166,0.31284 c 0.1063,2.00432 0.90234,3.6062 2.23549,4.49853 0.52294,0.35002 1.20005,0.58817 1.92006,0.67532 0.251,0.0304 1.0811,0.03 1.41814,-6e-4 1.00947,-0.0917 2.10982,-0.3665 3.10524,-0.77539 0.12971,-0.0533 0.23905,-0.0933 0.24296,-0.0888 0.004,0.004 0.0321,0.27911 0.0627,0.61042 l 0.0556,0.60239 -0.1271,0.0563 c -1.16017,0.51427 -2.50008,0.82649 -3.7167,0.86607 -0.2012,0.007 -0.41211,0.0147 -0.4687,0.0182 -0.0566,0.003 -0.26236,-10e-4 -0.45728,-0.0102 z m 3.95517,-8.15413 c -3.8e-4,-0.20384 -0.0628,-0.7459 -0.11648,-1.01171 -0.19744,-0.97746 -0.63711,-1.77073 -1.32584,-2.39213 -0.6974,-0.62923 -1.67691,-0.93541 -2.73725,-0.85562 -0.56747,0.0427 -0.96231,0.14731 -1.43321,0.37975 -0.40065,0.19776 -0.67408,0.39776 -1.02924,0.75282 -0.60261,0.60243 -0.9847,1.22701 -1.25817,2.05663 -0.11691,0.35465 -0.26189,0.97972 -0.26189,1.12908 v 0.0727 h 4.08116 4.08117 l -2.5e-4,-0.13147 z"
       id="path1870"
       transform="scale(0.26458333)" />
    <path
       style="fill:#5c5f5c;fill-opacity:1;stroke:#5c5f5c;stroke-width:0.0228637;stroke-linejoin:bevel"
       d="m 493.46635,493.62321 c -2.04371,-0.0792 -3.6873,-0.97429 -4.73803,-2.58041 -0.19454,-0.29736 -0.48014,-0.86462 -0.60714,-1.20589 -0.36186,-0.97241 -0.53611,-2.1313 -0.49935,-3.32111 0.0624,-2.02032 0.59394,-3.50094 1.69299,-4.71605 0.80338,-0.88822 1.84034,-1.47099 3.05407,-1.71638 1.36434,-0.27584 3.03495,-0.14656 4.22978,0.32732 0.23352,0.0926 0.69485,0.31495 0.8358,0.4028 l 0.0699,0.0435 -0.23456,0.61435 c -0.12902,0.33789 -0.23782,0.6176 -0.24179,0.62157 -0.004,0.004 -0.079,-0.0396 -0.16683,-0.0969 -0.23026,-0.15027 -0.71251,-0.37932 -1.01699,-0.48303 -1.18521,-0.40372 -2.66961,-0.4219 -3.74881,-0.0459 -1.39343,0.48545 -2.47138,1.75971 -2.89099,3.41748 -0.15698,0.62019 -0.2079,1.09369 -0.20616,1.91704 0.002,0.71863 0.0298,1.03925 0.13792,1.56474 0.41693,2.02586 1.72207,3.48002 3.48881,3.88718 0.68218,0.15721 1.7335,0.15662 2.52189,-10e-4 0.63562,-0.12742 1.28939,-0.38719 1.73463,-0.68923 0.10289,-0.0698 0.13852,-0.084 0.15283,-0.0608 0.0491,0.0794 0.45768,1.17263 0.44786,1.19824 -0.019,0.0494 -0.83248,0.43882 -1.12355,0.53787 -0.91263,0.31054 -1.79248,0.42769 -2.89225,0.38508 z"
       id="path1872"
       transform="scale(0.26458333)" />
    <path
       style="fill:#5c5f5c;fill-opacity:1;stroke:#5c5f5c;stroke-width:0.0228637;stroke-linejoin:bevel"
       d="m 503.93791,493.62356 c -2.07746,-0.096 -3.36279,-1.42647 -3.78398,-3.91681 -0.16081,-0.95079 -0.17097,-1.28755 -0.17122,-5.67738 l -2.2e-4,-3.80108 h 0.6849 0.6849 l 0.009,3.99543 c 0.01,4.29399 0.006,4.17411 0.12928,4.93283 0.20902,1.29048 0.65545,2.18782 1.34885,2.71126 0.22059,0.16652 0.57424,0.33239 0.88637,0.41571 0.26636,0.0711 0.27564,0.0719 0.81814,0.0723 0.60452,3.7e-4 0.79632,-0.0264 1.23464,-0.17254 0.98027,-0.32675 1.85898,-1.11843 2.34438,-2.11214 0.22207,-0.45462 0.35237,-0.91771 0.40987,-1.45666 0.0154,-0.14456 0.0237,-1.64625 0.0237,-4.30408 v -4.08207 h 0.68539 0.68539 l 0.007,5.25293 c 0.007,4.8294 0.0106,5.27483 0.0469,5.52463 0.09,0.61989 0.24915,1.3115 0.43807,1.90345 0.0554,0.17357 0.0987,0.31745 0.0962,0.31975 -0.002,0.002 -0.27202,0.0726 -0.59897,0.15629 -0.32695,0.0837 -0.61099,0.15692 -0.63119,0.16279 -0.0837,0.0243 -0.40863,-1.27913 -0.53383,-2.14145 -0.0314,-0.2163 -0.0614,-0.39756 -0.0666,-0.4028 -0.005,-0.005 -0.0427,0.0484 -0.0832,0.11926 -0.19471,0.34032 -0.67239,0.94143 -0.95894,1.20673 -0.73586,0.68127 -1.55316,1.08244 -2.52759,1.24065 -0.29945,0.0486 -0.79251,0.0708 -1.17747,0.053 z"
       id="path1874"
       transform="scale(0.26458333)" />
    <path
       style="fill:#5c5f5c;fill-opacity:1;stroke:#5c5f5c;stroke-width:0.0228637;stroke-linejoin:bevel"
       d="m 513.56348,488.56781 c -3e-5,-5.43156 -0.016,-6.15699 -0.16068,-7.29922 -0.0428,-0.33756 -0.14488,-0.93016 -0.17285,-1.00305 -0.013,-0.0338 0.0394,-0.0372 0.56954,-0.0372 h 0.58382 l 0.0498,0.13147 c 0.0757,0.19985 0.17257,0.60415 0.21498,0.8974 0.0351,0.24236 0.0545,0.49597 0.0991,1.29179 l 0.0167,0.29723 0.0661,-0.17148 c 0.10456,-0.27115 0.39165,-0.82502 0.56014,-1.08066 0.60146,-0.91256 1.36468,-1.43844 2.33457,-1.60862 0.26524,-0.0465 0.87847,-0.0489 1.09746,-0.004 l 0.14861,0.0303 0.006,0.61334 0.006,0.61333 -0.0633,-0.0124 c -0.26434,-0.0519 -0.73294,-0.0272 -1.07303,0.0566 -0.79128,0.19479 -1.48057,0.7114 -2.0224,1.51578 -0.37454,0.556 -0.62369,1.1928 -0.76406,1.95278 -0.12391,0.67092 -0.12487,0.70772 -0.12487,4.77523 v 3.7574 h -0.68591 -0.68591 l -3e-5,-4.71563 z"
       id="path1876"
       transform="scale(0.26458333)" />
    <path
       style="fill:#5c5f5c;fill-opacity:1;stroke:#5c5f5c;stroke-width:0.0228637;stroke-linejoin:bevel"
       d="m 525.93275,493.62391 c -1.65452,-0.0715 -3.07447,-0.7456 -4.11474,-1.9535 -0.83427,-0.9687 -1.30115,-2.06319 -1.50149,-3.51986 -0.0581,-0.42251 -0.0589,-1.70686 -10e-4,-2.18348 0.0779,-0.64501 0.16884,-1.09602 0.32509,-1.61225 0.51873,-1.71385 1.6463,-3.14863 3.02432,-3.84831 0.84066,-0.42683 1.82792,-0.61855 2.85487,-0.55438 1.07584,0.0672 1.89386,0.35168 2.60276,0.90508 0.20635,0.16109 0.56637,0.52552 0.72259,0.73147 0.72056,0.94989 1.15786,2.26485 1.32302,3.97828 0.0318,0.32999 0.0691,0.94289 0.0692,1.13746 l 8e-5,0.15433 h -4.80491 -4.80491 l 0.0146,0.30473 c 0.0472,0.98364 0.27777,1.91316 0.66744,2.69041 0.2357,0.47015 0.50073,0.85081 0.83361,1.19731 0.63858,0.66471 1.37965,1.06361 2.30458,1.24049 0.26668,0.051 0.39656,0.0617 0.86587,0.0714 0.33057,0.007 0.67463,7.4e-4 0.85739,-0.0151 1.01661,-0.0883 1.99119,-0.32316 3.01133,-0.72583 0.20569,-0.0812 0.37732,-0.14428 0.3814,-0.1402 0.004,0.004 0.0286,0.2439 0.0545,0.53294 0.0259,0.28904 0.0517,0.55935 0.0574,0.60069 0.01,0.0723 0.005,0.0774 -0.11982,0.13367 -1.12856,0.5072 -2.5105,0.82826 -3.73119,0.86686 -0.20749,0.007 -0.41326,0.0145 -0.45728,0.0175 -0.044,0.003 -0.23949,-0.001 -0.4344,-0.01 z m 3.92525,-8.30586 c -0.0373,-0.73639 -0.22124,-1.47872 -0.50762,-2.04889 -0.28846,-0.57429 -0.77842,-1.14091 -1.28138,-1.48185 -0.64227,-0.43537 -1.49807,-0.64373 -2.37308,-0.57777 -0.56959,0.0429 -0.99582,0.15659 -1.46652,0.39103 -0.3711,0.18484 -0.65462,0.39226 -0.98382,0.71975 -0.65559,0.65217 -1.08507,1.38337 -1.34693,2.29315 -0.0801,0.27833 -0.19568,0.82804 -0.19568,0.93077 v 0.057 h 4.08469 4.08469 z"
       id="path1878"
       transform="scale(0.26458333)" />
    <path
       style="fill:#ff7f2a;fill-opacity:1;stroke:#5c5f5c;stroke-width:0.00390625;stroke-linejoin:bevel"
       d="m 346.33008,493.51692 c -0.19105,-0.0158 -0.34947,-0.0666 -0.4961,-0.15884 -0.0726,-0.0457 -0.13623,-0.0975 -0.20933,-0.17041 -0.1413,-0.14094 -0.23085,-0.27268 -0.30043,-0.44196 -0.11571,-0.28148 -0.132,-0.6355 -0.0434,-0.94224 0.0788,-0.27256 0.25714,-0.54021 0.47695,-0.71562 0.25991,-0.20741 0.58983,-0.27683 0.91602,-0.19276 0.13845,0.0357 0.27496,0.10481 0.40429,0.20471 0.0575,0.0444 0.19,0.1766 0.24059,0.24004 0.1757,0.22033 0.27037,0.44545 0.30308,0.72071 0.007,0.0569 0.007,0.25165 0,0.30859 -0.0388,0.32638 -0.16923,0.58254 -0.41682,0.81856 -0.20563,0.19601 -0.44692,0.30676 -0.71433,0.32786 -0.0469,0.004 -0.12443,0.004 -0.16056,0.001 z"
       id="path2003"
       transform="scale(0.26458333)" />
    <path
       style="fill:#ff7f2a;fill-opacity:1;stroke:#5c5f5c;stroke-width:0.00692709;stroke-linejoin:bevel"
       d="m 450.94689,493.51322 c -0.32583,-0.0199 -0.61424,-0.18585 -0.83574,-0.48077 -0.15606,-0.2078 -0.23824,-0.43252 -0.26022,-0.71159 -0.0326,-0.41326 0.11286,-0.81204 0.4093,-1.12247 0.16176,-0.16939 0.36357,-0.28049 0.58322,-0.32108 0.0889,-0.0164 0.2697,-0.0166 0.35975,-3.6e-4 0.24158,0.0436 0.45295,0.16241 0.64304,0.3615 0.25309,0.26509 0.38491,0.56712 0.40054,0.91773 0.0166,0.37248 -0.10928,0.7059 -0.36849,0.97597 -0.26495,0.27604 -0.57497,0.40288 -0.9314,0.38107 z"
       id="path2005"
       transform="scale(0.26458333)" />
    <path
       style="fill:#5c5f5c;fill-opacity:1;stroke:#5c5f5c;stroke-width:0.0142009;stroke-linejoin:bevel"
       d="m 378.70973,477.38924 c -0.30862,-0.0605 -0.54776,-0.23712 -0.67364,-0.49739 -0.10967,-0.22674 -0.12982,-0.3282 -0.12944,-0.65164 2.8e-4,-0.24333 0.004,-0.29156 0.0328,-0.39763 0.10884,-0.40416 0.38122,-0.69509 0.74078,-0.79124 0.11521,-0.0308 0.41144,-0.0341 0.52544,-0.006 0.11426,0.0283 0.29411,0.1165 0.38193,0.18723 0.19583,0.15773 0.3649,0.41716 0.42983,0.65955 0.0444,0.16582 0.0446,0.53239 3.3e-4,0.69584 -0.11118,0.41058 -0.39121,0.69673 -0.7709,0.78775 -0.128,0.0307 -0.41275,0.0378 -0.53716,0.0134 z"
       id="path2161"
       transform="scale(0.26458333)" />
  </g>
  <g
     inkscape:groupmode="layer"
     id="layer3"
     inkscape:label="heading">
    <g
       aria-label="Infix"
       id="text1160"
       style="font-size:25.4px;font-family:'URW Bookman';-inkscape-font-specification:'URW Bookman, Normal';fill:#5c5f5c;stroke-width:1.029"
       inkscape:label="infix">
      <path
         d="m 85.532731,107.6593 0.508,0.0762 c 1.3462,0.1778 1.6256,0.635 1.651,2.794 v 9.9822 c -0.0254,2.159 -0.3048,2.6162 -1.651,2.794 l -0.508,0.0762 v 0.7874 h 6.858 v -0.7874 l -0.508,-0.0762 c -1.3462,-0.1778 -1.6256,-0.635 -1.651,-2.794 v -9.9822 c 0.0254,-2.159 0.3048,-2.6162 1.651,-2.794 l 0.508,-0.0762 v -0.7874 h -6.858 z"
         id="path2431" />
      <path
         d="m 98.588334,111.8503 h -0.8636 c -1.5748,0.3048 -2.413,0.4064 -3.8354,0.508 v 0.762 l 0.6096,0.0508 c 1.3462,0.1524 1.6764,0.5588 1.6764,2.1082 v 5.969 c 0,1.397 -0.4572,2.0066 -1.5748,2.1082 l -0.635,0.0508 v 0.762 h 6.832596 v -0.762 l -0.635,-0.0508 c -1.117596,-0.1016 -1.574796,-0.7112 -1.574796,-2.1082 v -6.2738 c 1.574796,-1.4224 3.073396,-2.1336 4.495796,-2.1336 1.397,0 2.159,0.889 2.159,2.54 v 5.8674 c 0,1.397 -0.4826,2.0066 -1.5748,2.1082 l -0.635,0.0508 v 0.762 h 6.8326 v -0.762 l -0.635,-0.0508 c -1.1176,-0.1016 -1.5748,-0.7112 -1.5748,-2.1082 v -6.2738 c 0,-2.1082 -1.4224,-3.3528 -3.8354,-3.3528 -1.9558,0 -3.429,0.635 -5.232396,2.2352 z"
         id="path2433" />
      <path
         d="m 115.27613,111.8503 v -1.5748 c 0,-1.651 0.0508,-1.9812 0.4064,-2.5908 0.4826,-0.8382 1.4986,-1.3462 2.6416,-1.3462 1.27,0 2.4638,0.762 2.4638,1.6256 0.0254,1.0414 0.0254,1.0414 0.2286,1.397 0.2286,0.4064 0.635,0.635 1.143,0.635 0.762,0 1.27,-0.5334 1.27,-1.27 0,-0.5842 -0.2286,-1.0668 -0.762,-1.6256 -1.016,-1.0414 -2.413,-1.5748 -4.191,-1.5748 -1.9558,0 -3.7338,0.6604 -4.6482,1.7272 -0.6858,0.8128 -0.9652,1.8542 -0.9652,3.6322 v 0.9652 h -2.159 v 0.8382 h 2.159 v 8.5598 c 0,1.397 -0.4572,2.0066 -1.5748,2.1082 l -0.635,0.0508 v 0.762 h 6.8326 v -0.762 l -0.635,-0.0508 c -1.1176,-0.1016 -1.5748,-0.7112 -1.5748,-2.1082 v -8.5598 h 3.3782 c 1.8288,0 2.3368,0.5842 2.3114,2.667 v 5.8928 c 0,1.397 -0.4572,2.0066 -1.5748,2.1082 l -0.635,0.0508 v 0.762 h 6.8326 v -0.762 l -0.635,-0.0508 c -1.1176,-0.1016 -1.5748,-0.7112 -1.5748,-2.1082 v -9.398 z"
         id="path2435" />
      <path
         d="m 134.09755,117.0827 2.2098,-2.3622 c 1.397,-1.3716 2.1082,-1.778 3.81,-2.1082 v -0.762 h -5.3594 v 0.762 c 0.9144,0.1016 1.143,0.2286 1.143,0.6604 0,0.2032 -0.0762,0.4064 -0.254,0.6096 l -2.159,2.4384 -2.0066,-2.4384 c -0.1778,-0.254 -0.3048,-0.4826 -0.3048,-0.635 0,-0.3556 0.3048,-0.5334 1.0414,-0.6096 l 0.254,-0.0254 v -0.762 h -6.2992 v 0.762 c 1.2192,0.1778 1.7018,0.4826 2.5908,1.5494 l 2.9718,3.7338 -3.2258,3.6322 c -1.143,1.2954 -1.8034,1.7018 -3.0226,1.8796 v 0.762 h 5.6896 v -0.762 c -0.889,-0.1524 -1.0922,-0.2032 -1.27,-0.3048 -0.254,-0.1524 -0.4318,-0.4064 -0.4318,-0.6604 0,-0.254 0.1778,-0.5842 0.4572,-0.9144 l 2.54,-2.8448 2.286,3.2004 c 0.1524,0.2286 0.254,0.4826 0.254,0.6858 0,0.4826 -0.3048,0.6604 -1.524,0.8382 v 0.762 h 7.0358 v -0.762 c -1.3716,-0.2286 -1.8288,-0.5334 -2.9464,-1.8796 z"
         id="path2437" />
    </g>
  </g>
  <g
     inkscape:label="tux"
     inkscape:groupmode="layer"
     id="layer1"
     style="display:inline">
    <path
       id="rect1698"
       style="fill:#f9f9f9;stroke:#5c5f5c;stroke-width:1.029;stroke-linejoin:round"
       inkscape:label="body"
       d="M 59.529221,107.02922 H 82 V 124 H 59.529221 Z" />
    <path
       id="rect184-3"
       style="fill:#ff7f2a;stroke:#5c5f5c;stroke-linejoin:round"
       inkscape:label="foot-r"
       d="m 76,120 h 6 v 4 h -6 z" />
    <path
       id="rect184"
       style="fill:#ff7f2a;stroke:#5c5f5c;stroke-linejoin:round"
       inkscape:label="foot-l"
       d="m 59.529221,120 h 6 v 4 h -6 z" />
    <path
       id="path11801"
       style="fill:#ff7f2a"
       inkscape:label="nose"
       inkscape:transform-center-y="0.49151511"
       transform="translate(28.350554,16.321792)"
       d="m 42.414055,100.66737 -1.702663,-2.949101 3.405325,0 z" />
    <path
       id="path6519-5"
       style="display:inline;fill:#5c5f5c;stroke-width:4.99999"
       inkscape:label="eye-r"
       d="m 73.711082,111.02191 a 0.5,0.5 0 0 1 -0.5,0.5 0.5,0.5 0 0 1 -0.5,-0.5 0.5,0.5 0 0 1 0.5,-0.5 0.5,0.5 0 0 1 0.5,0.5 z" />
    <path
       id="path6519"
       style="fill:#5c5f5c;stroke-width:4.99999"
       inkscape:label="eye-l"
       d="m 68.81813,111.02191 a 0.5,0.5 0 0 1 -0.5,0.5 0.5,0.5 0 0 1 -0.5,-0.5 0.5,0.5 0 0 1 0.5,-0.5 0.5,0.5 0 0 1 0.5,0.5 z" />
  </g>
</svg>
