<?xml version="1.0" encoding="UTF-8" standalone="no"?>
<!-- Created with Inkscape (http://www.inkscape.org/) -->

<svg
   width="489.27203mm"
   height="159.49489mm"
   viewBox="0 0 489.27202 159.49489"
   version="1.1"
   id="svg5"
   inkscape:version="1.2.2 (b0a8486541, 2022-12-01)"
   sodipodi:docname="logo-large.svg"
   xmlns:inkscape="http://www.inkscape.org/namespaces/inkscape"
   xmlns:sodipodi="http://sodipodi.sourceforge.net/DTD/sodipodi-0.dtd"
   xmlns="http://www.w3.org/2000/svg"
   xmlns:svg="http://www.w3.org/2000/svg">
  <sodipodi:namedview
     id="namedview7"
     pagecolor="#ffffff"
     bordercolor="#000000"
     borderopacity="0.25"
     inkscape:showpageshadow="2"
     inkscape:pageopacity="0.0"
     inkscape:pagecheckerboard="0"
     inkscape:deskcolor="#d1d1d1"
     inkscape:document-units="mm"
     showgrid="false"
     inkscape:zoom="0.57493546"
     inkscape:cx="104.35954"
     inkscape:cy="264.3775"
     inkscape:window-width="2560"
     inkscape:window-height="1385"
     inkscape:window-x="1920"
     inkscape:window-y="0"
     inkscape:window-maximized="1"
     inkscape:current-layer="layer6" />
  <defs
     id="defs2" />
  <g
     inkscape:groupmode="layer"
     id="layer6"
     inkscape:label="bg"
     style="display:none;fill:#ff0000;fill-opacity:1"
     transform="matrix(1.2831201,0,0,3.2117929,118.15852,-263.46763)">
    <rect
       style="fill:#22272e;fill-opacity:1;stroke:#000000;stroke-width:0;stroke-miterlimit:0;stroke-dasharray:none;stroke-opacity:1"
       id="rect10264"
       width="163.66356"
       height="92.471725"
       x="20.800945"
       y="69.866936"
       inkscape:label="bg" />
  </g>
  <g
     inkscape:groupmode="layer"
     id="layer5"
     inkscape:label="tagline"
     style="display:inline"
     transform="translate(144.84863,-39.0695)">
    <g
       aria-label="Immutable . Friendly . Secure"
       transform="matrix(5.7077268,0,0,6.3072396,-498.93695,-594.0847)"
       id="text9503"
       style="font-size:6.44339px;font-family:Laksaman;-inkscape-font-specification:'Laksaman, Normal';stroke:#5c5f5c;stroke-width:0;stroke-miterlimit:0"
       inkscape:label="linux-netconf"
       inkscape:export-filename="../../../Pictures/logo-medium.svg"
       inkscape:export-xdpi="191.95932"
       inkscape:export-ydpi="191.95932">
      <path
         d="m 62.472956,124.15871 h -0.386604 v -4.61347 h 0.386604 z"
         id="path2380" />
      <path
         d="m 67.144418,120.79526 q 0.573462,0 0.869857,0.4317 0.296396,0.43171 0.296396,1.10182 v 1.82993 h -0.386603 v -1.82348 q 0,-0.54125 -0.219075,-0.8763 -0.212632,-0.3415 -0.663669,-0.3415 -0.367274,0 -0.657226,0.28995 -0.289953,0.28995 -0.289953,0.65722 v 2.09411 h -0.386603 v -1.99745 q 0,-1.04383 -0.831197,-1.04383 -0.38016,0 -0.689443,0.32861 -0.309283,0.32861 -0.309283,0.71522 v 1.99745 H 63.491016 V 121.678 q 0,-0.28995 -0.06443,-0.81187 h 0.354386 q 0.06443,0.19975 0.07732,0.58635 0.373717,-0.65722 1.108263,-0.65722 0.670113,0 0.998725,0.73454 0.386604,-0.73454 1.179141,-0.73454 z"
         id="path2382" />
      <path
         d="m 72.969238,120.79526 q 0.573462,0 0.869858,0.4317 0.296396,0.43171 0.296396,1.10182 v 1.82993 h -0.386604 v -1.82348 q 0,-0.54125 -0.219075,-0.8763 -0.212632,-0.3415 -0.663669,-0.3415 -0.367273,0 -0.657226,0.28995 -0.289953,0.28995 -0.289953,0.65722 v 2.09411 h -0.386603 v -1.99745 q 0,-1.04383 -0.831197,-1.04383 -0.38016,0 -0.689443,0.32861 -0.309283,0.32861 -0.309283,0.71522 v 1.99745 H 69.315836 V 121.678 q 0,-0.28995 -0.06443,-0.81187 h 0.354386 q 0.06443,0.19975 0.07732,0.58635 0.373717,-0.65722 1.108263,-0.65722 0.670113,0 0.998726,0.73454 0.386603,-0.73454 1.17914,-0.73454 z"
         id="path2384" />
      <path
         d="m 78.078841,124.14582 -0.36083,0.0838 q -0.115981,-0.32861 -0.154641,-0.64434 -0.431707,0.66367 -1.237131,0.66367 -1.185584,0 -1.185584,-1.53352 v -1.84926 h 0.386604 v 1.77838 q 0,1.28223 0.882744,1.28223 0.457481,0 0.786094,-0.30928 0.328613,-0.31572 0.328613,-0.76032 v -1.99101 h 0.386603 v 2.48715 q 0,0.34795 0.167528,0.79254 z"
         id="path2386" />
      <path
         d="m 79.973201,124.24891 q -0.39949,0 -0.625009,-0.29639 -0.219075,-0.30284 -0.219075,-0.76032 v -2.03611 h -0.657226 v -0.28996 h 0.657226 v -0.97939 l 0.386603,-0.17397 v 1.15336 h 1.050273 v 0.28996 H 79.51572 v 2.03611 q 0,0.73454 0.489698,0.73454 0.302839,0 0.444594,-0.058 l 0.03866,0.28996 q -0.199745,0.0902 -0.515471,0.0902 z"
         id="path2388" />
      <path
         d="m 82.015758,124.24891 q -0.43815,0 -0.747433,-0.25129 -0.302839,-0.25773 -0.302839,-0.66367 0,-1.23068 2.190752,-1.23068 0,-0.47037 -0.225519,-0.72811 -0.225518,-0.25773 -0.663669,-0.25773 -0.354386,0 -1.050272,0.21907 l -0.0451,-0.36727 q 0.541245,-0.17397 1.12115,-0.17397 1.250018,0 1.250018,1.37888 v 1.17914 q 0,0.40594 0.115981,0.80543 l -0.335057,0.0709 -0.135311,-0.5348 q -0.444594,0.55413 -1.172697,0.55413 z m -0.663669,-0.97939 q 0,0.30284 0.186858,0.48325 0.186859,0.17397 0.489698,0.17397 0.386603,0 0.753876,-0.2384 0.373717,-0.24485 0.373717,-0.59279 v -0.67012 q -1.804149,0 -1.804149,0.84409 z"
         id="path2390" />
      <path
         d="m 86.178189,120.79526 q 0.683,0 1.08249,0.47681 0.39949,0.47037 0.39949,1.19847 0,0.77965 -0.412377,1.28223 -0.412377,0.49614 -1.127593,0.49614 -0.766764,0 -1.224244,-0.67011 0,0.32861 -0.01933,0.57991 h -0.354387 q 0.02577,-0.22552 0.02577,-0.80543 v -4.09155 h 0.386603 v 2.22941 q 0.425264,-0.69588 1.243574,-0.69588 z m -1.243574,2.04255 q 0,0.46393 0.328613,0.77965 0.328613,0.30928 0.805424,0.30928 1.204914,0 1.204914,-1.44331 0,-0.61213 -0.30284,-0.98584 -0.302839,-0.38016 -0.863414,-0.38016 -0.489698,0 -0.831197,0.3415 -0.3415,0.3415 -0.3415,0.83119 z"
         id="path2392" />
      <path
         d="m 89.696285,123.92674 -0.03866,0.32217 q -1.224244,-0.058 -1.224244,-1.74615 v -3.24103 h 0.386603 v 3.10571 q 0,0.36728 0.03222,0.61857 0.03222,0.25129 0.115981,0.48325 0.09021,0.23197 0.270623,0.34795 0.180415,0.10953 0.457481,0.10953 z"
         id="path2394" />
      <path
         d="m 90.51459,122.54142 q 0.01933,0.625 0.373717,1.00516 0.36083,0.38016 0.960065,0.38016 0.560575,0 1.153367,-0.23196 l 0.03222,0.31573 q -0.573462,0.2384 -1.224245,0.2384 -0.740989,0 -1.211357,-0.45748 -0.470367,-0.46392 -0.470367,-1.19202 0,-0.77965 0.451037,-1.28868 0.457481,-0.51547 1.192027,-0.51547 1.385329,0 1.417546,1.74616 z m 2.287403,-0.32217 q -0.01289,-0.50259 -0.309282,-0.79898 -0.289953,-0.30284 -0.766764,-0.30284 -0.47681,0 -0.79898,0.31572 -0.322169,0.30929 -0.393047,0.7861 z"
         id="path2396" />
      <path
         d="m 96.345854,123.54658 q 0.135311,0 0.238405,0.1031 0.103095,0.10309 0.103095,0.2384 0,0.13532 -0.103095,0.23197 -0.103094,0.0966 -0.238405,0.0966 -0.135311,0 -0.231962,-0.0966 -0.09665,-0.0967 -0.09665,-0.23197 0,-0.13531 0.09665,-0.2384 0.09665,-0.1031 0.231962,-0.1031 z"
         id="path2398" />
      <path
         d="m 102.20934,121.94218 h -2.07477 v 2.21653 h -0.386608 v -4.61347 h 2.609578 v 0.32217 h -2.22297 v 1.7526 h 2.07477 z"
         id="path2400" />
      <path
         d="m 104.6385,121.13031 q -0.0387,-0.0129 -0.11598,-0.0129 -0.42527,0 -0.72166,0.34794 -0.28996,0.3415 -0.28996,0.9214 v 1.77194 h -0.3866 v -2.21653 q 0,-0.7281 -0.0967,-1.07605 h 0.32861 q 0.1031,0.20619 0.1031,0.65723 0.30928,-0.7281 0.99228,-0.7281 0.0902,0 0.18686,0.0193 z"
         id="path2402" />
      <path
         d="m 105.60501,124.15871 h -0.38661 v -3.29258 h 0.38661 z m -0.20619,-4.60058 q 0.13531,0 0.21907,0.0902 0.0902,0.0838 0.0902,0.21908 0,0.13531 -0.0902,0.21907 -0.0838,0.0773 -0.21907,0.0773 -0.13531,0 -0.21908,-0.0773 -0.0773,-0.0838 -0.0773,-0.21907 0,-0.13531 0.0773,-0.21908 0.0838,-0.0902 0.21908,-0.0902 z"
         id="path2404" />
      <path
         d="m 106.75838,122.54142 q 0.0193,0.625 0.37371,1.00516 0.36083,0.38016 0.96007,0.38016 0.56057,0 1.15336,-0.23196 l 0.0322,0.31573 q -0.57346,0.2384 -1.22424,0.2384 -0.74099,0 -1.21136,-0.45748 -0.47037,-0.46392 -0.47037,-1.19202 0,-0.77965 0.45104,-1.28868 0.45748,-0.51547 1.19203,-0.51547 1.38533,0 1.41754,1.74616 z m 2.2874,-0.32217 q -0.0129,-0.50259 -0.30928,-0.79898 -0.28996,-0.30284 -0.76677,-0.30284 -0.47681,0 -0.79898,0.31572 -0.32217,0.30929 -0.39304,0.7861 z"
         id="path2406" />
      <path
         d="m 113.00202,124.15871 h -0.3866 v -1.86859 q 0,-1.17269 -0.9794,-1.17269 -0.3866,0 -0.70233,0.32861 -0.31572,0.32861 -0.31572,0.71522 v 1.99745 h -0.38661 V 121.678 q 0,-0.28995 -0.0644,-0.81187 h 0.36083 q 0.0644,0.19975 0.0773,0.58635 0.37372,-0.65722 1.10826,-0.65722 1.28868,0 1.28868,1.49486 z"
         id="path2408" />
      <path
         d="m 113.77523,122.47054 q 0,-0.72166 0.39949,-1.19847 0.40593,-0.47681 1.08249,-0.47681 0.81831,0 1.24357,0.69588 v -2.22941 h 0.38661 v 4.09155 q 0,0.57991 0.0258,0.80543 h -0.35439 q -0.0193,-0.2513 -0.0193,-0.57991 -0.45748,0.67011 -1.22424,0.67011 -0.72166,0 -1.13404,-0.49614 -0.40593,-0.50258 -0.40593,-1.28223 z m 1.59152,1.4562 q 0.47681,0 0.80542,-0.30928 0.32861,-0.31572 0.32861,-0.77965 v -0.54769 q 0,-0.49614 -0.3415,-0.83119 -0.33505,-0.3415 -0.83119,-0.3415 -0.56058,0 -0.86342,0.38016 -0.30284,0.38016 -0.30284,0.98584 0,1.44331 1.20492,1.44331 z"
         id="path2410" />
      <path
         d="m 119.15547,123.92674 -0.0387,0.32217 q -1.22424,-0.058 -1.22424,-1.74615 v -3.24103 h 0.3866 v 3.10571 q 0,0.36728 0.0322,0.61857 0.0322,0.25129 0.11598,0.48325 0.0902,0.23197 0.27062,0.34795 0.18042,0.10953 0.45749,0.10953 z"
         id="path2412" />
      <path
         d="m 121.10781,124.15871 q -0.57346,1.28867 -1.52064,1.51419 l -0.0902,-0.30284 q 0.82476,-0.18685 1.25002,-1.32089 0,-0.058 -0.0258,-0.11598 l -1.366,-3.06706 h 0.40593 l 1.23069,2.78999 1.15337,-2.78999 h 0.41237 z"
         id="path2414" />
      <path
         d="m 125.44421,123.54658 q 0.13531,0 0.2384,0.1031 0.1031,0.10309 0.1031,0.2384 0,0.13532 -0.1031,0.23197 -0.10309,0.0966 -0.2384,0.0966 -0.13531,0 -0.23196,-0.0966 -0.0966,-0.0967 -0.0966,-0.23197 0,-0.13531 0.0966,-0.2384 0.0966,-0.1031 0.23196,-0.1031 z"
         id="path2416" />
      <path
         d="m 131.42367,122.95379 q 0,0.59924 -0.45103,0.94718 -0.4446,0.34794 -1.11471,0.34794 -0.76032,0 -1.26935,-0.35438 l 0.15464,-0.32862 q 0.47681,0.36083 1.15337,0.36083 0.50903,0 0.82475,-0.24484 0.31573,-0.24485 0.31573,-0.69589 0,-0.43815 -0.25129,-0.65723 -0.2513,-0.22551 -0.75388,-0.38016 -1.28868,-0.41882 -1.28868,-1.30156 0,-0.54125 0.41238,-0.85697 0.41238,-0.32217 1.01805,-0.32217 0.64434,0 1.05672,0.24485 -0.0129,0.0258 -0.0773,0.14175 -0.058,0.10954 -0.0838,0.16109 -0.41882,-0.22552 -0.90208,-0.22552 -0.45104,0 -0.74743,0.21263 -0.28995,0.21263 -0.28995,0.59924 0,0.63789 0.99872,0.98583 0.32217,0.11599 0.51547,0.21264 0.19975,0.0902 0.39949,0.24484 0.19975,0.15465 0.28995,0.38016 0.0902,0.22552 0.0902,0.52836 z"
         id="path2418" />
      <path
         d="m 132.38373,122.54142 q 0.0193,0.625 0.37372,1.00516 0.36083,0.38016 0.96006,0.38016 0.56058,0 1.15337,-0.23196 l 0.0322,0.31573 q -0.57347,0.2384 -1.22425,0.2384 -0.74099,0 -1.21136,-0.45748 -0.47036,-0.46392 -0.47036,-1.19202 0,-0.77965 0.45103,-1.28868 0.45749,-0.51547 1.19203,-0.51547 1.38533,0 1.41755,1.74616 z m 2.2874,-0.32217 q -0.0129,-0.50259 -0.30928,-0.79898 -0.28995,-0.30284 -0.76676,-0.30284 -0.47681,0 -0.79898,0.31572 -0.32217,0.30929 -0.39305,0.7861 z"
         id="path2420" />
      <path
         d="m 137.3387,121.11743 q -0.61212,0 -0.97295,0.3866 -0.36083,0.3866 -0.36083,1.01806 0,0.625 0.36727,1.01805 0.36727,0.3866 0.96651,0.3866 0.54124,0 0.90207,-0.23196 l 0.13531,0.31573 q -0.42526,0.2384 -1.01805,0.2384 -0.79898,0 -1.26935,-0.46392 -0.47037,-0.47037 -0.47037,-1.2629 0,-0.79254 0.47037,-1.25647 0.47037,-0.47036 1.26935,-0.47036 0.59923,0 1.01805,0.23196 l -0.13531,0.32217 q -0.36083,-0.23196 -0.90207,-0.23196 z"
         id="path2422" />
      <path
         d="m 141.99727,124.14582 -0.36083,0.0838 q -0.11598,-0.32861 -0.15464,-0.64434 -0.4317,0.66367 -1.23713,0.66367 -1.18558,0 -1.18558,-1.53352 v -1.84926 h 0.3866 v 1.77838 q 0,1.28223 0.88275,1.28223 0.45748,0 0.78609,-0.30928 0.32861,-0.31572 0.32861,-0.76032 v -1.99101 h 0.38661 v 2.48715 q 0,0.34795 0.16752,0.79254 z"
         id="path2424" />
      <path
         d="m 144.34911,121.13031 q -0.0387,-0.0129 -0.11598,-0.0129 -0.42526,0 -0.72166,0.34794 -0.28995,0.3415 -0.28995,0.9214 v 1.77194 h -0.38661 v -2.21653 q 0,-0.7281 -0.0967,-1.07605 h 0.32862 q 0.10309,0.20619 0.10309,0.65723 0.30928,-0.7281 0.99228,-0.7281 0.0902,0 0.18686,0.0193 z"
         id="path2426" />
      <path
         d="m 145.08366,122.54142 q 0.0193,0.625 0.37372,1.00516 0.36083,0.38016 0.96006,0.38016 0.56058,0 1.15337,-0.23196 l 0.0322,0.31573 q -0.57346,0.2384 -1.22424,0.2384 -0.74099,0 -1.21136,-0.45748 -0.47036,-0.46392 -0.47036,-1.19202 0,-0.77965 0.45103,-1.28868 0.45748,-0.51547 1.19203,-0.51547 1.38533,0 1.41755,1.74616 z m 2.2874,-0.32217 q -0.0129,-0.50259 -0.30928,-0.79898 -0.28995,-0.30284 -0.76676,-0.30284 -0.47681,0 -0.79898,0.31572 -0.32217,0.30929 -0.39305,0.7861 z"
         id="path2428" />
    </g>
    <path
       style="fill:#5c5f5c;fill-opacity:1;stroke:#5c5f5c;stroke-width:0.308367;stroke-linejoin:bevel"
       d="m -144.31598,174.51773 v -14.33904 h 0.9251 0.9251 v 14.33904 14.33901 h -0.9251 -0.9251 z"
       id="path1834" />
    <path
       style="fill:#5c5f5c;fill-opacity:1;stroke:#5c5f5c;stroke-width:0.308367;stroke-linejoin:bevel"
       d="m -136.30031,181.22465 c -0.001,-4.1976 -0.0919,-8.78814 -0.20181,-10.20114 l -0.19998,-2.56908 0.89565,0.1023 c 0.8478,0.0966 0.90062,0.1887 0.98885,1.7211 0.0513,0.8904 0.20586,1.61892 0.34352,1.61892 0.13764,0 0.618,-0.53058 1.0674,-1.17906 1.45087,-2.09358 4.23746,-3.17568 6.56441,-2.5491 1.36671,0.36801 3.24026,2.05989 3.81345,3.44367 0.20532,0.49566 0.46053,0.89748 0.56716,0.89292 0.10668,-0.006 0.53985,-0.56889 0.96272,-1.25409 2.58453,-4.18785 8.33854,-4.38975 10.69125,-0.37515 1.35685,2.31528 1.63536,4.25529 1.64063,11.42817 l 0.005,6.55278 h -0.92514 -0.9251 v -6.12522 c 0,-6.42789 -0.25833,-8.71464 -1.18804,-10.51704 -1.54819,-3.00141 -5.32325,-3.35445 -7.81531,-0.73086 -1.64902,1.73601 -1.78946,2.54217 -1.78946,10.2708 v 7.10232 h -0.8975 -0.89747 l -0.11478,-7.63206 c -0.12399,-8.24403 -0.26391,-9.02502 -1.88595,-10.52016 -0.8482,-0.78183 -2.9732,-1.19196 -4.3655,-0.84252 -1.15129,0.2889 -3.25337,2.29635 -3.90658,3.73062 -0.49008,1.07607 -0.56263,2.12859 -0.56854,8.2488 l -0.006,7.01532 h -0.92514 -0.9251 z"
       id="path1836" />
    <path
       style="fill:#5c5f5c;fill-opacity:1;stroke:#5c5f5c;stroke-width:0.308367;stroke-linejoin:bevel"
       d="m -103.02389,181.53305 c -0.0159,-4.02804 -0.12003,-8.6073 -0.23127,-10.17615 l -0.20232,-2.85249 0.84214,9e-5 c 0.91226,9e-5 1.08223,0.35814 1.23423,2.59995 l 0.0822,1.21224 0.90345,-1.30884 c 1.592469,-2.30697 4.454556,-3.48627 6.877557,-2.83383 1.285035,0.34605 3.171906,2.10468 3.846369,3.58494 0.18903,0.4149 0.425514,0.74997 0.525495,0.74463 0.10002,-0.006 0.549228,-0.61569 0.998349,-1.35624 1.190781,-1.9635 3.276012,-3.10278 5.681709,-3.10422 2.125218,-0.001 3.530028,0.73824 4.730481,2.49021 1.425795,2.0808 1.662396,3.54492 1.802493,11.15388 l 0.13191,7.16952 h -0.953946 -0.953958 l -0.0096,-5.4735 c -0.0111,-6.4119 -0.345123,-9.45564 -1.227219,-11.18469 -1.697829,-3.32802 -6.20544,-3.26967 -8.549655,0.1107 l -0.852249,1.22895 -0.09222,7.65927 -0.09222,7.6593 h -0.872124 -0.872127 l -0.13461,-7.47789 c -0.12207,-6.78261 -0.19539,-7.61328 -0.78783,-8.93439 -1.868358,-4.16616 -7.021416,-3.50571 -9.439975,1.20993 -0.42611,0.83082 -0.50616,2.11092 -0.50616,8.0946 v 7.10775 h -0.9251 -0.92509 z"
       id="path1838" />
    <path
       style="fill:#5c5f5c;fill-opacity:1;stroke:#5c5f5c;stroke-width:0.308367;stroke-linejoin:bevel"
       d="m -65.528455,189.01025 c -0.678402,-0.24 -1.67559,-0.91593 -2.215989,-1.50231 -1.721088,-1.86762 -2.021112,-3.47595 -2.178735,-11.67969 l -0.14064,-7.32369 h 0.957168 0.957168 l 0.0048,5.01096 c 0.0063,6.21369 0.397179,10.10931 1.161543,11.59083 1.796637,3.48225 6.830331,3.36933 9.425844,-0.2115 l 0.970869,-1.33941 0.0924,-7.52544 0.0924,-7.52547 h 1.063956 1.063959 l 0.0078,8.71134 c 0.0048,4.79124 0.14874,9.324 0.321357,10.07277 0.24207,1.05027 0.22275,1.4202 -0.0846,1.61853 -0.877587,0.56631 -1.320246,0.0885 -1.745649,-1.88487 -0.390237,-1.81014 -0.463677,-1.92957 -0.851025,-1.3839 -2.309766,3.2538 -5.654358,4.52049 -8.902956,3.37182 z"
       id="path1840" />
    <path
       style="fill:#5c5f5c;fill-opacity:1;stroke:#5c5f5c;stroke-width:0.0362961;stroke-linejoin:bevel"
       d="m -42.840682,189.54167 c -0.830898,-0.0516 -1.586373,-0.32814 -2.21226,-0.80976 -0.11286,-0.0867 -0.337599,-0.2976 -0.49935,-0.46863 -0.813387,-0.85929 -1.347882,-2.09901 -1.613787,-3.7431 l -0.08223,-0.50814 -0.0111,-6.97791 -0.0111,-6.97791 h -1.868187 -1.868187 v -0.88926 -0.88926 h 1.869252 1.869249 v -3.09453 -3.09453 l 1.070895,-0.53508 c 0.588993,-0.2943 1.078992,-0.53508 1.088883,-0.53508 0.0096,0 0.018,1.63332 0.018,3.62961 v 3.62961 h 2.994423 2.99442 v 0.88926 0.88926 h -2.995308 -2.995296 l 0.0111,7.03233 c 0.0126,7.55964 0.0048,7.20882 0.18975,8.02035 0.25452,1.11204 0.752538,1.8687 1.452594,2.20695 0.397431,0.192 0.639018,0.234 1.352916,0.2346 0.894777,7.5e-4 1.608678,-0.0864 2.103723,-0.2568 0.11145,-0.0381 0.20673,-0.0654 0.21195,-0.0603 0.0048,0.006 0.05667,0.40134 0.1143,0.88029 l 0.10479,0.87081 -0.07494,0.0441 c -0.12462,0.0735 -0.530289,0.2211 -0.818958,0.2979 -0.672816,0.1791 -1.614678,0.2637 -2.395539,0.2151 z"
       id="path1842" />
    <path
       style="fill:#5c5f5c;fill-opacity:1;stroke:#5c5f5c;stroke-width:0.0362961;stroke-linejoin:bevel"
       d="m -31.281523,189.54041 c -2.117439,-0.1116 -4.0266,-1.30272 -4.90974,-3.0633 -0.382494,-0.76251 -0.552753,-1.49451 -0.57882,-2.48841 -0.0258,-0.98481 0.08034,-1.78161 0.342393,-2.57181 0.550053,-1.65828 1.703355,-2.91345 3.498849,-3.80796 1.8933,-0.94317 4.422204,-1.44672 7.615539,-1.51629 l 1.030845,-0.024 -0.0231,-0.58419 c -0.12114,-3.08307 -1.437594,-5.03694 -3.728196,-5.53323 -0.18975,-0.0411 -0.568755,-0.0933 -0.842232,-0.1161 -1.32177,-0.1101 -3.283998,0.2748 -5.922663,1.16184 -0.29799,0.1002 -0.545955,0.1779 -0.550989,0.1731 -0.0048,-0.006 -0.05937,-0.46629 -0.12081,-1.02495 -0.06129,-0.55869 -0.11985,-1.06599 -0.13002,-1.12737 l -0.0183,-0.1116 0.590262,-0.1863 c 1.911207,-0.60366 3.694686,-0.88557 5.635404,-0.89073 1.226661,-0.003 1.966944,0.0957 2.823465,0.37677 2.327178,0.76416 3.733878,2.60757 4.236099,5.55114 0.19122,1.12077 0.18897,1.05471 0.21954,6.47901 0.0159,2.7948 0.03777,5.13861 0.0489,5.20848 0.0111,0.0699 0.0462,0.37203 0.07794,0.67149 0.07383,0.69654 0.23166,1.62993 0.392748,2.32266 0.06954,0.2994 0.12129,0.54936 0.11493,0.55569 -0.0159,0.015 -1.847232,0.44229 -1.854438,0.4323 -0.0033,-0.006 -0.17214,-0.74271 -0.375747,-1.64103 -0.20358,-0.89835 -0.378585,-1.65783 -0.388872,-1.68777 -0.0144,-0.0411 -0.03825,-0.027 -0.0978,0.054 -0.396462,0.54423 -0.982011,1.17393 -1.476264,1.58757 -1.569006,1.31304 -3.44154,1.91388 -5.609082,1.7997 z m 1.47774,-2.04291 c 1.043211,-0.1572 2.05602,-0.55764 3.024108,-1.19553 1.290702,-0.85047 2.04543,-1.78962 2.365311,-2.94327 l 0.10065,-0.36297 0.0126,-2.46459 0.0126,-2.46462 -1.009095,0.024 c -5.651721,0.1266 -8.751711,1.62918 -9.249408,4.48323 -0.0708,0.40623 -0.07002,1.35084 0.0016,1.77069 0.29403,1.72404 1.366362,2.86329 2.968689,3.15396 0.360186,0.0654 1.342119,0.0657 1.774029,5.1e-4 z"
       id="path1844" />
    <path
       style="fill:#5c5f5c;fill-opacity:1;stroke:#5c5f5c;stroke-width:0.0362961;stroke-linejoin:bevel"
       d="m -7.8875825,189.54161 c -1.538988,-0.0744 -2.9374805,-0.60105 -4.2103355,-1.58514 -0.65556,-0.50682 -1.496838,-1.44732 -2.046417,-2.2878 l -0.22209,-0.33963 -0.0078,0.2307 c -0.0048,0.1269 -0.0252,0.79425 -0.04539,1.48296 -0.0204,0.68871 -0.04764,1.41147 -0.06063,1.60611 l -0.0234,0.35388 h -0.994473 -0.994473 l 0.0216,-0.2088 c 0.09669,-0.93147 0.1035,-1.8627 0.11637,-15.98841 l 0.0126,-14.65452 h 1.087533 1.087548 l 0.0011,7.03233 c 9.21e-4,5.53779 0.0111,7.01928 0.04539,6.97074 0.0243,-0.0339 0.15033,-0.2355 0.28014,-0.44802 0.379557,-0.62154 0.777366,-1.12458 1.322769,-1.67265 1.260618,-1.26678 2.5565885,-1.90101 4.4120105,-2.15913 0.469743,-0.0654 1.713279,-0.0552 2.232201,0.018 2.097834,0.2973 3.715656,1.25979 5.01145196,2.98143 1.20858,1.60575 1.89528304,3.44268 2.16369904,5.78775 0.06396,0.55932 0.06462,2.90985 9.51e-4,3.50256 -0.19008,1.76865 -0.59969404,3.26412 -1.26256804,4.60959 -1.64027096,3.32937 -4.32204896,4.94199 -7.92795896,4.76736 z m 1.368312,-2.0466 c 2.796684,-0.36504 4.538139,-2.03373 5.306523,-5.08476 0.47731196,-1.89534 0.56147996,-4.59102 0.20358,-6.52143 -0.47136,-2.54259 -1.745583,-4.51794 -3.485817,-5.4039 -0.920607,-0.46869 -1.741026,-0.65262 -2.920761,-0.65481 -1.00611,-0.002 -1.613154,0.1107 -2.474007,0.45876 -0.9240365,0.37362 -1.9277015,1.15236 -2.6473175,2.05398 -0.710628,0.8904 -1.236075,2.02467 -1.4628,3.15777 -0.15747,0.78702 -0.17418,1.18113 -0.15843,3.73848 0.0159,2.6016 0.0165,2.60625 0.24939,3.48444 0.568038,2.14122 2.215881,3.91269 4.2321965,4.54965 0.25773,0.0813 0.876282,0.2127 1.190181,0.2529 0.313497,0.0399 1.575021,0.021 1.967196,-0.0312 z"
       id="path1846" />
    <path
       style="fill:#5c5f5c;fill-opacity:1;stroke:#5c5f5c;stroke-width:0.0362961;stroke-linejoin:bevel"
       d="m 12.038954,189.48929 c -1.380489,-0.2007 -2.5289035,-0.74685 -3.4593055,-1.64538 -1.650744,-1.59426 -2.5149,-4.11801 -2.710227,-7.91517 -0.0225,-0.43971 -0.03651,-4.69791 -0.03666,-11.24271 l -3.48e-4,-10.53492 h 1.087644 1.087644 l 0.0144,10.91604 c 0.0144,11.15352 0.0126,11.12724 0.15351,12.40416 0.16794,1.5306 0.555705,3.06945 0.985725,3.91164 0.709041,1.38867 1.7957965,2.07525 3.4244605,2.16342 l 0.41886,0.024 -0.10701,0.98907 -0.10701,0.98907 -0.20292,-0.003 c -0.1116,-0.002 -0.358092,-0.027 -0.547737,-0.054 z"
       id="path1848" />
    <path
       style="fill:#5c5f5c;fill-opacity:1;stroke:#5c5f5c;stroke-width:0.0362961;stroke-linejoin:bevel"
       d="m 24.488495,189.5423 c -1.316022,-0.0591 -2.562162,-0.366 -3.65757,-0.90096 -0.600471,-0.2931 -0.872235,-0.45927 -1.423875,-0.86988 -1.613886,-1.20126 -2.83002,-3.00558 -3.445749,-5.11236 -0.12336,-0.42213 -0.26172,-1.10259 -0.348948,-1.71612 -0.09144,-0.64314 -0.11256,-2.46267 -0.03777,-3.24603 0.18384,-1.92444 0.568215,-3.31806 1.321434,-4.79121 0.980265,-1.91715 2.435433,-3.40968 4.126182,-4.2321 1.230918,-0.59871 2.366169,-0.84465 3.883677,-0.84129 0.897063,0.002 1.51638,0.0747 2.251233,0.264 2.647791,0.68271 4.409805,2.70723 5.225415,6.00387 0.30423,1.22967 0.462249,2.45031 0.546609,4.22232 l 0.0228,0.48093 h -7.644861 -7.644861 l 0.0183,0.1725 c 0.0096,0.0948 0.0279,0.33576 0.03969,0.53538 0.10095,1.71342 0.604836,3.41064 1.388331,4.67724 0.498126,0.80532 1.268001,1.64076 1.96539,2.13282 0.885237,0.62463 1.959198,1.02819 3.134232,1.17774 0.593217,0.0756 2.155158,0.0561 2.848515,-0.0357 1.538922,-0.2034 3.239802,-0.66696 4.594113,-1.25232 0.09651,-0.0417 0.18762,-0.0759 0.20256,-0.0759 0.0285,0 0.20805,1.91424 0.18165,1.9362 -0.0078,0.006 -0.1785,0.0822 -0.378141,0.1671 -1.84893,0.78693 -3.835227,1.23453 -5.734782,1.29228 -0.339375,0.012 -0.674193,0.024 -0.744075,0.027 -0.06984,0.006 -0.38019,-0.003 -0.689628,-0.015 z m 6.279102,-12.88929 c -3.96e-4,-0.49158 -0.13002,-1.44957 -0.27408,-2.02635 -0.337248,-1.34979 -0.923781,-2.373 -1.893666,-3.30354 -0.946179,-0.9078 -2.048889,-1.37718 -3.490149,-1.48563 -2.248362,-0.1692 -4.144344,0.70395 -5.586063,2.5725 -0.829104,1.07454 -1.417035,2.45454 -1.657095,3.88956 -0.03174,0.1893 -0.06588,0.38112 -0.07587,0.42606 l -0.0183,0.0816 h 6.497685 6.497685 l -1.11e-4,-0.1542 z"
       id="path1850" />
    <path
       style="fill:#5c5f5c;fill-opacity:1;stroke:#5c5f5c;stroke-width:0.0362961;stroke-linejoin:bevel"
       d="M 70.403009,174.46616 V 159.9296 h 7.440693 7.440693 v 0.99816 0.99813 h -6.35181 -6.35181 v 5.5533 5.5533 h 5.916261 5.916264 v 0.99813 0.99813 h -5.916264 -5.916261 v 6.987 6.987 h -1.088883 -1.088883 z"
       id="path1852" />
    <path
       style="fill:#5c5f5c;fill-opacity:1;stroke:#5c5f5c;stroke-width:0.0362961;stroke-linejoin:bevel"
       d="m 89.675846,181.22633 c -3.96e-4,-8.42712 -0.0159,-9.27867 -0.20184,-10.95234 -0.06081,-0.54813 -0.20655,-1.46937 -0.28287,-1.78818 l -0.05001,-0.2094 0.929625,0.009 0.929622,0.009 0.11667,0.34482 c 0.24405,0.72153 0.38751,1.73133 0.438294,3.08502 l 0.0264,0.70767 0.17553,-0.4173 c 0.582486,-1.38471 1.378806,-2.47692 2.332371,-3.1989 0.355965,-0.2694 1.123425,-0.6519 1.556829,-0.77565 0.713328,-0.2037 1.640634,-0.2709 2.314305,-0.1677 l 0.31758,0.0486 v 0.97788 0.97788 l -0.13605,-0.03 c -0.22089,-0.0468 -1.025748,-0.021 -1.369377,0.0426 -0.976185,0.183 -1.774746,0.60066 -2.534016,1.32558 -1.109838,1.05963 -1.80732,2.38722 -2.146092,4.08492 -0.22383,1.12158 -0.21426,0.80616 -0.2286,7.5393 l -0.0126,6.16125 h -1.087404 -1.087407 z"
       id="path1854" />
    <path
       style="fill:#5c5f5c;fill-opacity:1;stroke:#5c5f5c;stroke-width:0.0362961;stroke-linejoin:bevel"
       d="M 101.65393,178.64024 V 168.2777 h 1.07073 1.07073 v 10.36254 10.36251 h -1.07073 -1.07073 z"
       id="path1856" />
    <path
       style="fill:#5c5f5c;fill-opacity:1;stroke:#5c5f5c;stroke-width:0.0362961;stroke-linejoin:bevel"
       d="m 117.20677,189.54065 c -1.9962,-0.0849 -3.77313,-0.72921 -5.28687,-1.91715 -0.39069,-0.3066 -1.11243,-1.02423 -1.42371,-1.41555 -1.60191,-2.01393 -2.34033,-4.45113 -2.25987,-7.45884 0.024,-0.84651 0.0549,-1.25475 0.1539,-1.94184 0.36663,-2.54832 1.4064,-4.76052 3.02607,-6.43812 1.344,-1.39212 2.97423,-2.20983 4.93761,-2.47665 0.61383,-0.0834 1.84362,-0.0825 2.48049,0.002 3.47037,0.4608 5.57949,2.73192 6.4251,6.91866 0.2106,1.04241 0.38616,2.72055 0.38616,3.69009 v 0.30006 h -7.62216 -7.62216 l 7.2e-4,0.2268 c 10e-4,0.30822 0.0912,1.21647 0.1638,1.65045 0.58707,3.50589 2.59434,5.95074 5.46024,6.65055 0.76488,0.1869 1.27044,0.2316 2.36031,0.2085 1.92048,-0.0402 3.57471,-0.38781 5.58582,-1.1736 0.3273,-0.1281 0.60087,-0.2268 0.60792,-0.2196 0.03,0.03 0.1878,1.89675 0.1626,1.92225 -0.0591,0.0594 -1.1994,0.50613 -1.73637,0.67998 -1.89084,0.61224 -3.82146,0.87579 -5.79948,0.79173 z m 6.24924,-13.21431 c -0.0957,-2.00139 -0.78849,-3.6687 -2.03955,-4.90902 -0.9795,-0.97116 -2.09058,-1.46088 -3.58356,-1.57962 -1.31247,-0.1044 -2.65083,0.192 -3.67557,0.81426 -1.09476,0.66462 -2.09601,1.78734 -2.742,3.07458 -0.42441,0.8457 -0.76491,1.95288 -0.88953,2.89242 l -0.024,0.1884 h 6.48912 6.48909 z"
       id="path1858" />
    <path
       style="fill:#5c5f5c;fill-opacity:1;stroke:#5c5f5c;stroke-width:0.0362961;stroke-linejoin:bevel"
       d="m 130.246,180.50039 c -0.012,-7.70118 -0.018,-8.57418 -0.0753,-9.26457 -0.0666,-0.80139 -0.2277,-2.49213 -0.2658,-2.78571 l -0.021,-0.1725 h 1.01796 1.01793 l 0.0744,0.31758 c 0.1575,0.67284 0.2772,1.6569 0.31812,2.61228 0.0345,0.80928 0.0366,0.81345 0.2283,0.46161 0.93858,-1.72203 2.27916,-2.93382 3.8508,-3.48087 1.75359,-0.61038 4.23234,-0.44265 5.8749,0.39753 1.41144,0.72198 2.43792,1.968 3.05133,3.70395 0.2595,0.7341 0.4899,1.80171 0.59922,2.7753 0.1071,0.95442 0.1269,2.20143 0.1275,8.04864 l 6.3e-4,5.88903 h -1.08726 -1.0872 l -0.015,-6.48792 c -0.015,-6.91569 -0.012,-6.74199 -0.1899,-7.78422 -0.44652,-2.59383 -1.69596,-4.18083 -3.70875,-4.71075 -0.79704,-0.2097 -1.92897,-0.258 -2.62404,-0.1113 -0.96021,0.2022 -1.78407,0.66915 -2.62653,1.48845 -1.14552,1.11399 -1.87053,2.382 -2.17077,3.79641 l -0.0843,0.39816 -0.009,6.70569 -0.009,6.70572 h -1.08687 -1.08687 z"
       id="path1860" />
    <path
       style="fill:#5c5f5c;fill-opacity:1;stroke:#5c5f5c;stroke-width:0.0362961;stroke-linejoin:bevel"
       d="m 158.71132,189.5417 c -2.91762,-0.1311 -5.18709,-1.59285 -6.66876,-4.29561 -0.60435,-1.10238 -1.08093,-2.50629 -1.31427,-3.8715 -0.51462,-3.01113 -0.2292,-6.08682 0.77988,-8.40225 1.14759,-2.63334 3.06033,-4.36614 5.44281,-4.93071 1.55871,-0.36936 3.38505,-0.27 4.80921,0.2616 1.45209,0.54207 2.69157,1.55238 3.68406,3.00291 0.1398,0.2043 0.31938,0.48798 0.39924,0.63057 0.0798,0.1425 0.1575,0.2598 0.1725,0.2601 0.015,4.5e-4 0.027,-3.15966 0.027,-7.02246 v -7.02327 h 1.08888 1.08888 l 9e-5,14.16453 c 9e-5,13.49286 0.012,15.33414 0.1038,16.38768 l 0.027,0.2994 h -0.98556 -0.98556 l -0.021,-0.1905 c -0.027,-0.2265 -0.096,-2.13246 -0.1071,-2.93091 l -0.009,-0.56259 -0.1773,0.2721 c -0.53577,0.82308 -1.42497,1.82859 -2.05977,2.32926 -1.32408,1.04424 -2.78742,1.57869 -4.47777,1.63542 -0.1596,0.006 -0.52722,-8.7e-4 -0.81666,-0.015 z m 2.15235,-2.09568 c 0.57033,-0.1161 0.99816,-0.2643 1.53171,-0.53058 0.59409,-0.2964 1.05009,-0.62085 1.55505,-1.10673 0.84591,-0.81402 1.46733,-1.83672 1.78131,-2.93163 0.2856,-0.99594 0.3213,-1.50216 0.30141,-4.27485 -0.018,-2.44896 -0.03,-2.61489 -0.2607,-3.51579 -0.35535,-1.38651 -1.02678,-2.50746 -2.13348,-3.56184 -0.95904,-0.91368 -2.00778,-1.43454 -3.29436,-1.63623 -0.50643,-0.0795 -1.58565,-0.0792 -2.10177,4.8e-4 -0.73497,0.1134 -1.47864,0.35451 -2.01039,0.6519 -1.78428,0.9978 -3.04128,3.1326 -3.43863,5.83986 -0.246,1.67523 -0.1632,3.98358 0.2037,5.68635 0.57291,2.6589 1.91361,4.38552 3.95682,5.09574 0.85908,0.2985 1.49043,0.38781 2.6463,0.37377 0.72558,-0.009 0.9366,-0.024 1.26309,-0.0906 z"
       id="path1862" />
    <path
       style="fill:#5c5f5c;fill-opacity:1;stroke:#5c5f5c;stroke-width:0.0362961;stroke-linejoin:bevel"
       d="m 180.18046,189.48815 c -2.2323,-0.3471 -3.81351,-1.50858 -4.84362,-3.55797 -0.64728,-1.28769 -1.01874,-2.74482 -1.26159,-4.94886 -0.057,-0.51579 -0.063,-1.48887 -0.0735,-11.6964 l -0.012,-11.13381 h 1.06932 1.06935 l 0.015,10.64382 c 0.015,10.83192 0.018,11.11626 0.1545,12.45861 0.2028,2.0022 0.65679,3.64941 1.26459,4.58895 0.2085,0.32232 0.69909,0.83706 0.97977,1.02795 0.60663,0.41262 1.51659,0.67965 2.31819,0.68025 0.198,1.5e-4 0.2814,0.012 0.2814,0.0447 0,0.0795 -0.1842,1.78593 -0.2019,1.87011 -0.015,0.0738 -0.0372,0.0813 -0.2253,0.0777 -0.1146,-0.002 -0.35499,-0.027 -0.53466,-0.0549 z"
       id="path1864" />
    <path
       style="fill:#5c5f5c;fill-opacity:1;stroke:#5c5f5c;stroke-width:0.0362961;stroke-linejoin:bevel"
       d="m 183.62242,198.44585 c -0.012,-0.0534 -0.1263,-0.47253 -0.2508,-0.93168 -0.1245,-0.45915 -0.2238,-0.8361 -0.2208,-0.83769 0.003,-0.002 0.2115,-0.0693 0.46311,-0.1503 1.79742,-0.57957 3.34176,-1.85958 4.61625,-3.82614 0.6873,-1.06047 1.37181,-2.48631 1.89687,-3.95127 0.1506,-0.42048 0.1638,-0.60156 0.0675,-0.93942 -0.0306,-0.1074 -1.7352,-4.36221 -3.78795,-9.4551 -2.05275,-5.09289 -3.80616,-9.44355 -3.89643,-9.66813 l -0.1641,-0.40833 h 1.13391 1.13394 l 1.88088,4.7094 c 1.03452,2.5902 2.61192,6.53874 3.50532,8.77458 0.89343,2.23584 1.6383,4.06152 1.65528,4.05705 0.018,-0.006 1.50456,-3.94716 3.3057,-8.76156 1.80114,-4.81443 3.28092,-8.75955 3.28833,-8.76699 0.009,-0.009 0.52716,-0.009 1.15491,-0.003 l 1.14138,0.009 -2.37141,5.95254 c -5.33205,13.38411 -6.05598,15.19422 -6.2784,15.69807 -2.06613,4.68051 -4.71939,7.51905 -7.94979,8.50488 l -0.2994,0.0915 z"
       id="path1866" />
    <path
       style="fill:#5c5f5c;fill-opacity:1;stroke:#5c5f5c;stroke-width:0.0362961;stroke-linejoin:bevel"
       d="m 241.59337,189.54203 c -2.30475,-0.0822 -4.35306,-0.70485 -6.02514,-1.83138 -0.2196,-0.1479 -0.4287,-0.2919 -0.46467,-0.31959 -0.0615,-0.0477 -0.0405,-0.1092 0.35664,-1.04307 0.2322,-0.54588 0.4281,-0.99852 0.43548,-1.00587 0.009,-0.009 0.1653,0.1008 0.35112,0.24 1.06728,0.80076 2.1348,1.31283 3.42627,1.64358 0.86898,0.2226 1.41873,0.2925 2.47128,0.31497 1.00587,0.021 1.46865,-0.012 2.17122,-0.1536 2.10912,-0.4272 3.73479,-1.73637 4.3308,-3.48762 0.2931,-0.86106 0.41376,-1.90122 0.33672,-2.90118 -0.1395,-1.80786 -0.6534,-2.93001 -1.76901,-3.86127 -0.97362,-0.81276 -2.03499,-1.38099 -3.75489,-2.01033 -2.0091,-0.73512 -3.25644,-1.37757 -4.4781,-2.30646 -0.44967,-0.34188 -1.30902,-1.19166 -1.6125,-1.59453 -1.03554,-1.37463 -1.51131,-2.91504 -1.44294,-4.67202 0.0846,-2.17602 0.82695,-3.77448 2.36478,-5.09244 1.02237,-0.87618 2.27838,-1.50102 3.58158,-1.78173 0.73059,-0.1572 1.05438,-0.1914 2.00802,-0.2106 1.70271,-0.0342 3.16122,0.1812 4.46778,0.65937 0.3816,0.1398 1.26171,0.5628 1.54623,0.74331 l 0.1704,0.108 -0.438,0.89952 c -0.2409,0.49476 -0.44949,0.91224 -0.46353,0.92778 -0.015,0.015 -0.1632,-0.048 -0.33123,-0.1413 -1.14852,-0.63687 -2.49195,-1.047 -3.86232,-1.17903 -0.56211,-0.054 -1.84353,-0.024 -2.3052,0.0564 -1.36629,0.2346 -2.43981,0.74907 -3.25305,1.55919 -0.66813,0.66558 -1.03581,1.36992 -1.23555,2.36694 -0.093,0.46467 -0.0933,1.6863 -2.7e-4,2.11788 0.30807,1.42977 1.06047,2.5218 2.45406,3.56166 0.80493,0.6006 1.77321,1.10781 3.28704,1.72188 2.76288,1.12068 4.2393,1.98141 5.40978,3.15372 0.69783,0.69894 1.08957,1.33416 1.39341,2.25948 0.33486,1.01973 0.45378,1.93737 0.42714,3.29625 -0.021,0.99504 -0.06,1.35537 -0.2304,2.05074 -0.44691,1.82274 -1.54683,3.32724 -3.24318,4.4361 -1.68516,1.10154 -3.59061,1.56384 -6.07959,1.47498 z"
       id="path1868" />
    <path
       style="fill:#5c5f5c;fill-opacity:1;stroke:#5c5f5c;stroke-width:0.0362961;stroke-linejoin:bevel"
       d="m 263.46175,189.54323 c -2.80899,-0.1308 -5.22276,-1.38135 -6.87114,-3.56007 -0.4245,-0.56109 -0.6738,-0.96681 -0.98814,-1.60818 -0.52932,-1.08 -0.84054,-2.14656 -1.0221,-3.50256 -0.0939,-0.70014 -0.0927,-2.75589 0.002,-3.53886 0.2937,-2.43396 1.01424,-4.32531 2.2989,-6.03567 0.36348,-0.48396 1.13139,-1.28982 1.55358,-1.63047 1.20624,-0.97314 2.58915,-1.55871 4.1922,-1.77507 0.54591,-0.0738 1.80054,-0.0825 2.34111,-0.015 2.5482,0.31149 4.38213,1.57836 5.51166,3.80742 0.85362,1.68453 1.29828,3.73545 1.42377,6.56667 l 0.024,0.5535 h -7.63599 -7.63602 l 0.027,0.49665 c 0.1689,3.18186 1.43247,5.72484 3.54882,7.14141 0.83019,0.55566 1.90509,0.93372 3.04812,1.07208 0.39846,0.0483 1.71624,0.0477 2.25129,-9.6e-4 1.60254,-0.1455 3.34935,-0.58182 4.92957,-1.23093 0.2058,-0.0846 0.3795,-0.1482 0.38568,-0.141 0.006,0.006 0.051,0.44307 0.0996,0.96903 l 0.0882,0.95631 -0.2019,0.0894 c -1.84176,0.81639 -3.96888,1.31205 -5.90028,1.37487 -0.31938,0.012 -0.65421,0.024 -0.74406,0.03 -0.0897,0.006 -0.41649,-0.002 -0.72591,-0.015 z m 6.27882,-12.94467 c -6e-4,-0.32358 -0.0996,-1.1841 -0.1848,-1.60608 -0.31341,-1.55172 -1.01139,-2.81103 -2.10477,-3.79752 -1.10712,-0.99891 -2.66208,-1.48497 -4.34538,-1.35828 -0.90084,0.0678 -1.52766,0.2337 -2.2752,0.60285 -0.63606,0.31395 -1.07013,0.63144 -1.63392,1.19508 -0.95667,0.95637 -1.56321,1.9479 -1.99737,3.2649 -0.1857,0.56301 -0.41574,1.55532 -0.41574,1.79244 v 0.1155 h 6.47883 6.47886 l -3.9e-4,-0.2088 z"
       id="path1870" />
    <path
       style="fill:#5c5f5c;fill-opacity:1;stroke:#5c5f5c;stroke-width:0.0362961;stroke-linejoin:bevel"
       d="m 284.44087,189.54212 c -3.24438,-0.1257 -5.8536,-1.54668 -7.52163,-4.09638 -0.30882,-0.47208 -0.76221,-1.37259 -0.96384,-1.91436 -0.57444,-1.54371 -0.85107,-3.38343 -0.79269,-5.27226 0.099,-3.20727 0.94287,-5.55774 2.68761,-7.48674 1.27536,-1.41003 2.92155,-2.3352 4.84833,-2.72475 2.16588,-0.43788 4.818,-0.2328 6.71478,0.51963 0.37071,0.147 1.10307,0.49998 1.32684,0.63945 l 0.111,0.069 -0.37239,0.97527 c -0.2049,0.5364 -0.37752,0.98043 -0.38382,0.98673 -0.006,0.006 -0.1254,-0.0627 -0.2649,-0.1539 -0.36555,-0.2385 -1.13112,-0.60219 -1.61448,-0.76683 -1.88151,-0.64089 -4.23801,-0.66975 -5.95125,-0.0729 -2.21205,0.77064 -3.92331,2.79354 -4.58943,5.42523 -0.2493,0.98457 -0.33003,1.73625 -0.32727,3.04332 0.003,1.14081 0.0474,1.64979 0.219,2.484 0.66186,3.21606 2.73378,5.52453 5.53848,6.17091 1.08297,0.2496 2.75193,0.2487 4.0035,-0.002 1.00905,-0.2022 2.0469,-0.61467 2.75373,-1.09416 0.1632,-0.1107 0.2199,-0.1335 0.2427,-0.0966 0.078,0.126 0.72657,1.86156 0.71097,1.90221 -0.0303,0.0783 -1.32156,0.69663 -1.78362,0.85386 -1.44879,0.49299 -2.84556,0.67896 -4.59144,0.61131 z"
       id="path1872" />
    <path
       style="fill:#5c5f5c;fill-opacity:1;stroke:#5c5f5c;stroke-width:0.0362961;stroke-linejoin:bevel"
       d="m 301.06447,189.54269 c -3.29796,-0.1524 -5.33844,-2.26452 -6.00708,-6.21795 -0.2553,-1.50936 -0.2715,-2.04396 -0.2718,-9.01284 l -3.6e-4,-6.0342 h 1.08729 1.08729 l 0.015,6.34275 c 0.015,6.81669 0.009,6.6264 0.2052,7.83087 0.33183,2.04864 1.04052,3.47316 2.14131,4.3041 0.35019,0.2643 0.91161,0.52767 1.40709,0.65994 0.42285,0.1128 0.43758,0.114 1.29882,0.1149 0.95967,6e-4 1.26414,-0.042 1.95999,-0.2739 1.55616,-0.5187 2.95113,-1.77549 3.72168,-3.35301 0.35256,-0.72171 0.55941,-1.45686 0.65067,-2.31246 0.024,-0.2295 0.0378,-2.61342 0.0378,-6.83271 v -6.4803 h 1.08804 1.08807 l 0.012,8.33904 c 0.012,7.66665 0.018,8.37378 0.0744,8.77035 0.1428,0.98406 0.39552,2.082 0.69543,3.02172 0.0879,0.2754 0.1566,0.50394 0.1527,0.5076 -0.003,0.003 -0.43185,0.1152 -0.95088,0.2481 -0.51903,0.1329 -0.96993,0.249 -1.002,0.2586 -0.1329,0.0384 -0.64872,-2.03064 -0.84747,-3.39957 -0.0498,-0.34338 -0.0975,-0.63111 -0.1056,-0.63945 -0.009,-0.009 -0.0678,0.0768 -0.132,0.1893 -0.30909,0.54027 -1.0674,1.49451 -1.52232,1.91568 -1.16817,1.08153 -2.46564,1.71837 -4.01253,1.96953 -0.47538,0.0771 -1.25811,0.1125 -1.86924,0.0843 z"
       id="path1874" />
    <path
       style="fill:#5c5f5c;fill-opacity:1;stroke:#5c5f5c;stroke-width:0.0362961;stroke-linejoin:bevel"
       d="m 316.34506,181.51667 c -3e-5,-8.6226 -0.024,-9.77421 -0.255,-11.5875 -0.0678,-0.53586 -0.2301,-1.47663 -0.2745,-1.59234 -0.021,-0.0537 0.0627,-0.0591 0.90414,-0.0591 h 0.92682 l 0.0792,0.2088 c 0.1203,0.31725 0.2739,0.95907 0.34128,1.42461 0.0558,0.38475 0.0864,0.78735 0.1572,2.05071 l 0.027,0.47187 0.105,-0.2721 c 0.1659,-0.43044 0.62172,-1.30971 0.8892,-1.71555 0.95484,-1.44867 2.16645,-2.28351 3.70614,-2.55366 0.42108,-0.0738 1.39458,-0.0777 1.74222,-0.006 l 0.2358,0.048 0.009,0.97368 0.009,0.97368 -0.1005,-0.021 c -0.41964,-0.0825 -1.16352,-0.0432 -1.70343,0.09 -1.25616,0.30921 -2.35041,1.12935 -3.21057,2.4063 -0.59457,0.88263 -0.99009,1.89357 -1.21293,3.10002 -0.1968,1.06509 -0.1983,1.1235 -0.1983,7.58067 v 5.9649 h -1.08888 -1.08888 l -3e-5,-7.48608 z"
       id="path1876" />
    <path
       style="fill:#5c5f5c;fill-opacity:1;stroke:#5c5f5c;stroke-width:0.0362961;stroke-linejoin:bevel"
       d="m 335.98129,189.54323 c -2.62656,-0.1134 -4.88073,-1.18362 -6.53217,-3.10116 -1.32438,-1.53783 -2.06556,-3.27531 -2.38359,-5.5878 -0.0924,-0.67071 -0.0936,-2.70963 -0.002,-3.46626 0.1236,-1.02396 0.2679,-1.73994 0.51606,-2.55945 0.8235,-2.72073 2.61351,-4.99845 4.80111,-6.1092 1.33455,-0.67758 2.90184,-0.98193 4.5321,-0.88008 1.7079,0.1068 3.00651,0.5583 4.1319,1.43682 0.32757,0.2559 0.8991,0.83427 1.14711,1.16121 1.1439,1.50795 1.8381,3.59547 2.1003,6.31554 0.0504,0.52383 0.1098,1.49682 0.1098,1.8057 l 1.2e-4,0.2451 h -7.6278 -7.6278 l 0.024,0.48375 c 0.075,1.56153 0.44094,3.03714 1.05954,4.27104 0.37419,0.74634 0.79491,1.35066 1.32336,1.90071 1.01376,1.05522 2.19021,1.68849 3.65853,1.96929 0.42336,0.081 0.62955,0.0978 1.37457,0.1134 0.52479,0.012 1.07097,0.001 1.3611,-0.024 1.61388,-0.1401 3.16101,-0.51303 4.7805,-1.15224 0.32652,-0.129 0.59898,-0.2292 0.60546,-0.2226 0.006,0.006 0.0453,0.38718 0.0864,0.84603 0.0411,0.45885 0.0822,0.88797 0.0912,0.95361 0.015,0.1149 0.009,0.1227 -0.1902,0.2121 -1.7916,0.80517 -3.98541,1.31487 -5.92326,1.37613 -0.3294,0.012 -0.65604,0.024 -0.72594,0.027 -0.0699,0.006 -0.38019,-0.002 -0.68961,-0.015 z m 6.23133,-13.18554 c -0.0591,-1.16901 -0.35121,-2.34747 -0.80586,-3.2526 -0.45792,-0.9117 -1.23573,-1.81122 -2.03418,-2.35245 -1.01961,-0.69114 -2.37819,-1.02192 -3.76728,-0.91722 -0.9042,0.0681 -1.58085,0.2487 -2.32809,0.62076 -0.58911,0.2934 -1.0392,0.62271 -1.5618,1.14261 -1.04076,1.03533 -1.72257,2.19609 -2.13825,3.64038 -0.1272,0.44184 -0.31065,1.31451 -0.31065,1.47759 v 0.0906 h 6.48444 6.48444 z"
       id="path1878" />
    <path
       style="fill:#ff7f2a;fill-opacity:1;stroke:#5c5f5c;stroke-width:0.00620118;stroke-linejoin:bevel"
       d="m 50.862044,189.3734 c -0.303291,-0.024 -0.554784,-0.1056 -0.78756,-0.252 -0.11526,-0.0726 -0.21627,-0.1548 -0.33231,-0.2706 -0.22431,-0.2238 -0.366474,-0.43287 -0.476934,-0.70161 -0.18369,-0.44685 -0.20955,-1.00887 -0.06888,-1.4958 0.1251,-0.43269 0.40821,-0.85758 0.757158,-1.13604 0.412605,-0.32928 0.936354,-0.43947 1.454181,-0.30603 0.21978,0.0567 0.4365,0.1665 0.641811,0.32499 0.09129,0.0705 0.301623,0.2802 0.381936,0.38106 0.27891,0.34977 0.429213,0.70716 0.48114,1.14414 0.0111,0.0903 0.0111,0.39948 0,0.48987 -0.06159,0.51813 -0.26865,0.92478 -0.661704,1.29948 -0.326436,0.31116 -0.709485,0.48696 -1.133997,0.52047 -0.07446,0.006 -0.19752,0.006 -0.25488,0.002 z"
       id="path2003" />
    <path
       style="fill:#ff7f2a;fill-opacity:1;stroke:#5c5f5c;stroke-width:0.0109968;stroke-linejoin:bevel"
       d="m 216.94123,189.36752 c -0.51726,-0.0315 -0.97512,-0.2949 -1.32675,-0.76323 -0.2478,-0.32988 -0.37818,-0.68661 -0.4131,-1.12965 -0.0519,-0.65604 0.1791,-1.2891 0.64977,-1.78191 0.2568,-0.2688 0.57717,-0.44529 0.92586,-0.5097 0.1413,-0.027 0.42816,-0.027 0.57111,-6e-4 0.38352,0.0693 0.71907,0.2577 1.02084,0.5739 0.40176,0.42084 0.61104,0.9003 0.63585,1.45689 0.027,0.5913 -0.1734,1.12062 -0.58497,1.54935 -0.42063,0.43821 -0.91278,0.63957 -1.47861,0.60495 z"
       id="path2005" />
    <path
       style="fill:#5c5f5c;fill-opacity:1;stroke:#5c5f5c;stroke-width:0.0225439;stroke-linejoin:bevel"
       d="m 102.26473,163.77071 c -0.48993,-0.096 -0.86955,-0.37644 -1.06938,-0.7896 -0.174,-0.35997 -0.2061,-0.52104 -0.2055,-1.03449 4.5e-4,-0.38628 0.006,-0.46284 0.0522,-0.63123 0.1728,-0.64161 0.60519,-1.10346 1.17597,-1.2561 0.183,-0.0489 0.65316,-0.054 0.83415,-0.009 0.1815,0.045 0.46689,0.1851 0.6063,0.2973 0.31089,0.2505 0.5793,0.66225 0.68235,1.04703 0.0705,0.2631 0.0708,0.84519 5.4e-4,1.10466 -0.1764,0.65178 -0.62106,1.10604 -1.22382,1.25055 -0.2031,0.0486 -0.65523,0.06 -0.85272,0.021 z"
       id="path2161" />
  </g>
  <g
     inkscape:groupmode="layer"
     id="layer3"
     inkscape:label="heading"
     transform="translate(144.84863,-39.0695)">
    <g
       aria-label="Infix"
       id="text1160"
       style="font-size:25.4px;font-family:'URW Bookman';-inkscape-font-specification:'URW Bookman, Normal';fill:#5c5f5c;stroke-width:1.029"
       inkscape:label="infix"
       transform="matrix(6,0,0,6,-498.93695,-594.0847)">
      <path
         d="m 85.532731,107.6593 0.508,0.0762 c 1.3462,0.1778 1.6256,0.635 1.651,2.794 v 9.9822 c -0.0254,2.159 -0.3048,2.6162 -1.651,2.794 l -0.508,0.0762 v 0.7874 h 6.858 v -0.7874 l -0.508,-0.0762 c -1.3462,-0.1778 -1.6256,-0.635 -1.651,-2.794 v -9.9822 c 0.0254,-2.159 0.3048,-2.6162 1.651,-2.794 l 0.508,-0.0762 v -0.7874 h -6.858 z"
         id="path2431" />
      <path
         d="m 98.588334,111.8503 h -0.8636 c -1.5748,0.3048 -2.413,0.4064 -3.8354,0.508 v 0.762 l 0.6096,0.0508 c 1.3462,0.1524 1.6764,0.5588 1.6764,2.1082 v 5.969 c 0,1.397 -0.4572,2.0066 -1.5748,2.1082 l -0.635,0.0508 v 0.762 h 6.832596 v -0.762 l -0.635,-0.0508 c -1.117596,-0.1016 -1.574796,-0.7112 -1.574796,-2.1082 v -6.2738 c 1.574796,-1.4224 3.073396,-2.1336 4.495796,-2.1336 1.397,0 2.159,0.889 2.159,2.54 v 5.8674 c 0,1.397 -0.4826,2.0066 -1.5748,2.1082 l -0.635,0.0508 v 0.762 h 6.8326 v -0.762 l -0.635,-0.0508 c -1.1176,-0.1016 -1.5748,-0.7112 -1.5748,-2.1082 v -6.2738 c 0,-2.1082 -1.4224,-3.3528 -3.8354,-3.3528 -1.9558,0 -3.429,0.635 -5.232396,2.2352 z"
         id="path2433" />
      <path
         d="m 115.27613,111.8503 v -1.5748 c 0,-1.651 0.0508,-1.9812 0.4064,-2.5908 0.4826,-0.8382 1.4986,-1.3462 2.6416,-1.3462 1.27,0 2.4638,0.762 2.4638,1.6256 0.0254,1.0414 0.0254,1.0414 0.2286,1.397 0.2286,0.4064 0.635,0.635 1.143,0.635 0.762,0 1.27,-0.5334 1.27,-1.27 0,-0.5842 -0.2286,-1.0668 -0.762,-1.6256 -1.016,-1.0414 -2.413,-1.5748 -4.191,-1.5748 -1.9558,0 -3.7338,0.6604 -4.6482,1.7272 -0.6858,0.8128 -0.9652,1.8542 -0.9652,3.6322 v 0.9652 h -2.159 v 0.8382 h 2.159 v 8.5598 c 0,1.397 -0.4572,2.0066 -1.5748,2.1082 l -0.635,0.0508 v 0.762 h 6.8326 v -0.762 l -0.635,-0.0508 c -1.1176,-0.1016 -1.5748,-0.7112 -1.5748,-2.1082 v -8.5598 h 3.3782 c 1.8288,0 2.3368,0.5842 2.3114,2.667 v 5.8928 c 0,1.397 -0.4572,2.0066 -1.5748,2.1082 l -0.635,0.0508 v 0.762 h 6.8326 v -0.762 l -0.635,-0.0508 c -1.1176,-0.1016 -1.5748,-0.7112 -1.5748,-2.1082 v -9.398 z"
         id="path2435" />
      <path
         d="m 134.09755,117.0827 2.2098,-2.3622 c 1.397,-1.3716 2.1082,-1.778 3.81,-2.1082 v -0.762 h -5.3594 v 0.762 c 0.9144,0.1016 1.143,0.2286 1.143,0.6604 0,0.2032 -0.0762,0.4064 -0.254,0.6096 l -2.159,2.4384 -2.0066,-2.4384 c -0.1778,-0.254 -0.3048,-0.4826 -0.3048,-0.635 0,-0.3556 0.3048,-0.5334 1.0414,-0.6096 l 0.254,-0.0254 v -0.762 h -6.2992 v 0.762 c 1.2192,0.1778 1.7018,0.4826 2.5908,1.5494 l 2.9718,3.7338 -3.2258,3.6322 c -1.143,1.2954 -1.8034,1.7018 -3.0226,1.8796 v 0.762 h 5.6896 v -0.762 c -0.889,-0.1524 -1.0922,-0.2032 -1.27,-0.3048 -0.254,-0.1524 -0.4318,-0.4064 -0.4318,-0.6604 0,-0.254 0.1778,-0.5842 0.4572,-0.9144 l 2.54,-2.8448 2.286,3.2004 c 0.1524,0.2286 0.254,0.4826 0.254,0.6858 0,0.4826 -0.3048,0.6604 -1.524,0.8382 v 0.762 h 7.0358 v -0.762 c -1.3716,-0.2286 -1.8288,-0.5334 -2.9464,-1.8796 z"
         id="path2437" />
    </g>
  </g>
  <g
     inkscape:label="tux"
     inkscape:groupmode="layer"
     id="layer1"
     style="display:inline"
     transform="translate(144.84863,-39.0695)">
    <path
       id="rect1698"
       style="fill:#f9f9f9;stroke:#5c5f5c;stroke-width:6.174;stroke-linejoin:round"
       inkscape:label="body"
       d="M -141.76163,48.090612 H -6.9369515 V 149.9153 H -141.76163 Z" />
    <path
       id="rect184-3"
       style="fill:#ff7f2a;stroke:#5c5f5c;stroke-width:6;stroke-linejoin:round"
       inkscape:label="foot-r"
       d="m -42.936952,125.9153 h 36.0000005 v 24 H -42.936952 Z" />
    <path
       id="rect184"
       style="fill:#ff7f2a;stroke:#5c5f5c;stroke-width:6;stroke-linejoin:round"
       inkscape:label="foot-l"
       d="m -141.76163,125.9153 h 36 v 24 h -36 z" />
    <path
       id="path11801"
       style="fill:#ff7f2a;stroke-width:6"
       inkscape:label="nose"
       inkscape:transform-center-y="2.9490877"
       d="M -74.349298,107.85026 -84.565276,90.155655 h 20.43195 z" />
    <path
       id="path6519-5"
       style="display:inline;fill:#5c5f5c;stroke-width:29.9999"
       inkscape:label="eye-r"
       d="m -56.67046,72.046755 a 3,3 0 0 1 -3,3 3,3 0 0 1 -3,-3 3,3 0 0 1 3,-3 3,3 0 0 1 3,3 z" />
    <path
       id="path6519"
       style="fill:#5c5f5c;stroke-width:29.9999"
       inkscape:label="eye-l"
       d="m -86.028172,72.046755 a 3,3 0 0 1 -3,3 3,3 0 0 1 -3,-3 3,3 0 0 1 3,-3 3,3 0 0 1 3,3 z" />
  </g>
</svg>
