<?xml version="1.0" encoding="UTF-8" standalone="no"?>
<!-- Created with Inkscape (http://www.inkscape.org/) -->

<svg
   width="163.09068mm"
   height="53.164967mm"
   viewBox="0 0 163.09068 53.164966"
   version="1.1"
   id="svg5"
   inkscape:version="1.2.2 (b0a8486541, 2022-12-01)"
   sodipodi:docname="logo-medium.svg"
   xmlns:inkscape="http://www.inkscape.org/namespaces/inkscape"
   xmlns:sodipodi="http://sodipodi.sourceforge.net/DTD/sodipodi-0.dtd"
   xmlns="http://www.w3.org/2000/svg"
   xmlns:svg="http://www.w3.org/2000/svg">
  <sodipodi:namedview
     id="namedview7"
     pagecolor="#ffffff"
     bordercolor="#000000"
     borderopacity="0.25"
     inkscape:showpageshadow="2"
     inkscape:pageopacity="0.0"
     inkscape:pagecheckerboard="0"
     inkscape:deskcolor="#d1d1d1"
     inkscape:document-units="mm"
     showgrid="false"
     inkscape:zoom="1.4929971"
     inkscape:cx="304.08633"
     inkscape:cy="286.0019"
     inkscape:window-width="2560"
     inkscape:window-height="1385"
     inkscape:window-x="1920"
     inkscape:window-y="0"
     inkscape:window-maximized="1"
     inkscape:current-layer="layer6" />
  <defs
     id="defs2" />
  <g
     inkscape:groupmode="layer"
     id="layer6"
     inkscape:label="bg"
     style="display:none;fill:#ff0000;fill-opacity:1"
     transform="matrix(1.2831201,0,0,3.2117929,-44.932163,-316.63259)">
    <rect
       style="fill:#22272e;fill-opacity:1;stroke:#000000;stroke-width:0;stroke-miterlimit:0;stroke-dasharray:none;stroke-opacity:1"
       id="rect10264"
       width="163.66356"
       height="92.471725"
       x="20.800945"
       y="69.866936"
       inkscape:label="bg" />
  </g>
  <g
     inkscape:groupmode="layer"
     id="layer5"
     inkscape:label="tagline"
     style="display:inline"
     transform="translate(-18.242052,-92.23446)">
    <g
       aria-label="Immutable . Friendly . Secure"
       transform="matrix(1.9025756,0,0,2.1024132,-99.78739,-118.81694)"
       id="text9503"
       style="font-size:6.44339px;font-family:Laksaman;-inkscape-font-specification:'Laksaman, Normal';stroke:#5c5f5c;stroke-width:0;stroke-miterlimit:0"
       inkscape:label="linux-netconf"
       inkscape:export-filename="../../../Pictures/logo-medium.svg"
       inkscape:export-xdpi="191.95932"
       inkscape:export-ydpi="191.95932">
      <path
         d="m 62.472956,124.15871 h -0.386604 v -4.61347 h 0.386604 z"
         id="path2380" />
      <path
         d="m 67.144418,120.79526 q 0.573462,0 0.869857,0.4317 0.296396,0.43171 0.296396,1.10182 v 1.82993 h -0.386603 v -1.82348 q 0,-0.54125 -0.219075,-0.8763 -0.212632,-0.3415 -0.663669,-0.3415 -0.367274,0 -0.657226,0.28995 -0.289953,0.28995 -0.289953,0.65722 v 2.09411 h -0.386603 v -1.99745 q 0,-1.04383 -0.831197,-1.04383 -0.38016,0 -0.689443,0.32861 -0.309283,0.32861 -0.309283,0.71522 v 1.99745 H 63.491016 V 121.678 q 0,-0.28995 -0.06443,-0.81187 h 0.354386 q 0.06443,0.19975 0.07732,0.58635 0.373717,-0.65722 1.108263,-0.65722 0.670113,0 0.998725,0.73454 0.386604,-0.73454 1.179141,-0.73454 z"
         id="path2382" />
      <path
         d="m 72.969238,120.79526 q 0.573462,0 0.869858,0.4317 0.296396,0.43171 0.296396,1.10182 v 1.82993 h -0.386604 v -1.82348 q 0,-0.54125 -0.219075,-0.8763 -0.212632,-0.3415 -0.663669,-0.3415 -0.367273,0 -0.657226,0.28995 -0.289953,0.28995 -0.289953,0.65722 v 2.09411 h -0.386603 v -1.99745 q 0,-1.04383 -0.831197,-1.04383 -0.38016,0 -0.689443,0.32861 -0.309283,0.32861 -0.309283,0.71522 v 1.99745 H 69.315836 V 121.678 q 0,-0.28995 -0.06443,-0.81187 h 0.354386 q 0.06443,0.19975 0.07732,0.58635 0.373717,-0.65722 1.108263,-0.65722 0.670113,0 0.998726,0.73454 0.386603,-0.73454 1.17914,-0.73454 z"
         id="path2384" />
      <path
         d="m 78.078841,124.14582 -0.36083,0.0838 q -0.115981,-0.32861 -0.154641,-0.64434 -0.431707,0.66367 -1.237131,0.66367 -1.185584,0 -1.185584,-1.53352 v -1.84926 h 0.386604 v 1.77838 q 0,1.28223 0.882744,1.28223 0.457481,0 0.786094,-0.30928 0.328613,-0.31572 0.328613,-0.76032 v -1.99101 h 0.386603 v 2.48715 q 0,0.34795 0.167528,0.79254 z"
         id="path2386" />
      <path
         d="m 79.973201,124.24891 q -0.39949,0 -0.625009,-0.29639 -0.219075,-0.30284 -0.219075,-0.76032 v -2.03611 h -0.657226 v -0.28996 h 0.657226 v -0.97939 l 0.386603,-0.17397 v 1.15336 h 1.050273 v 0.28996 H 79.51572 v 2.03611 q 0,0.73454 0.489698,0.73454 0.302839,0 0.444594,-0.058 l 0.03866,0.28996 q -0.199745,0.0902 -0.515471,0.0902 z"
         id="path2388" />
      <path
         d="m 82.015758,124.24891 q -0.43815,0 -0.747433,-0.25129 -0.302839,-0.25773 -0.302839,-0.66367 0,-1.23068 2.190752,-1.23068 0,-0.47037 -0.225519,-0.72811 -0.225518,-0.25773 -0.663669,-0.25773 -0.354386,0 -1.050272,0.21907 l -0.0451,-0.36727 q 0.541245,-0.17397 1.12115,-0.17397 1.250018,0 1.250018,1.37888 v 1.17914 q 0,0.40594 0.115981,0.80543 l -0.335057,0.0709 -0.135311,-0.5348 q -0.444594,0.55413 -1.172697,0.55413 z m -0.663669,-0.97939 q 0,0.30284 0.186858,0.48325 0.186859,0.17397 0.489698,0.17397 0.386603,0 0.753876,-0.2384 0.373717,-0.24485 0.373717,-0.59279 v -0.67012 q -1.804149,0 -1.804149,0.84409 z"
         id="path2390" />
      <path
         d="m 86.178189,120.79526 q 0.683,0 1.08249,0.47681 0.39949,0.47037 0.39949,1.19847 0,0.77965 -0.412377,1.28223 -0.412377,0.49614 -1.127593,0.49614 -0.766764,0 -1.224244,-0.67011 0,0.32861 -0.01933,0.57991 h -0.354387 q 0.02577,-0.22552 0.02577,-0.80543 v -4.09155 h 0.386603 v 2.22941 q 0.425264,-0.69588 1.243574,-0.69588 z m -1.243574,2.04255 q 0,0.46393 0.328613,0.77965 0.328613,0.30928 0.805424,0.30928 1.204914,0 1.204914,-1.44331 0,-0.61213 -0.30284,-0.98584 -0.302839,-0.38016 -0.863414,-0.38016 -0.489698,0 -0.831197,0.3415 -0.3415,0.3415 -0.3415,0.83119 z"
         id="path2392" />
      <path
         d="m 89.696285,123.92674 -0.03866,0.32217 q -1.224244,-0.058 -1.224244,-1.74615 v -3.24103 h 0.386603 v 3.10571 q 0,0.36728 0.03222,0.61857 0.03222,0.25129 0.115981,0.48325 0.09021,0.23197 0.270623,0.34795 0.180415,0.10953 0.457481,0.10953 z"
         id="path2394" />
      <path
         d="m 90.51459,122.54142 q 0.01933,0.625 0.373717,1.00516 0.36083,0.38016 0.960065,0.38016 0.560575,0 1.153367,-0.23196 l 0.03222,0.31573 q -0.573462,0.2384 -1.224245,0.2384 -0.740989,0 -1.211357,-0.45748 -0.470367,-0.46392 -0.470367,-1.19202 0,-0.77965 0.451037,-1.28868 0.457481,-0.51547 1.192027,-0.51547 1.385329,0 1.417546,1.74616 z m 2.287403,-0.32217 q -0.01289,-0.50259 -0.309282,-0.79898 -0.289953,-0.30284 -0.766764,-0.30284 -0.47681,0 -0.79898,0.31572 -0.322169,0.30929 -0.393047,0.7861 z"
         id="path2396" />
      <path
         d="m 96.345854,123.54658 q 0.135311,0 0.238405,0.1031 0.103095,0.10309 0.103095,0.2384 0,0.13532 -0.103095,0.23197 -0.103094,0.0966 -0.238405,0.0966 -0.135311,0 -0.231962,-0.0966 -0.09665,-0.0967 -0.09665,-0.23197 0,-0.13531 0.09665,-0.2384 0.09665,-0.1031 0.231962,-0.1031 z"
         id="path2398" />
      <path
         d="m 102.20934,121.94218 h -2.07477 v 2.21653 h -0.386608 v -4.61347 h 2.609578 v 0.32217 h -2.22297 v 1.7526 h 2.07477 z"
         id="path2400" />
      <path
         d="m 104.6385,121.13031 q -0.0387,-0.0129 -0.11598,-0.0129 -0.42527,0 -0.72166,0.34794 -0.28996,0.3415 -0.28996,0.9214 v 1.77194 h -0.3866 v -2.21653 q 0,-0.7281 -0.0967,-1.07605 h 0.32861 q 0.1031,0.20619 0.1031,0.65723 0.30928,-0.7281 0.99228,-0.7281 0.0902,0 0.18686,0.0193 z"
         id="path2402" />
      <path
         d="m 105.60501,124.15871 h -0.38661 v -3.29258 h 0.38661 z m -0.20619,-4.60058 q 0.13531,0 0.21907,0.0902 0.0902,0.0838 0.0902,0.21908 0,0.13531 -0.0902,0.21907 -0.0838,0.0773 -0.21907,0.0773 -0.13531,0 -0.21908,-0.0773 -0.0773,-0.0838 -0.0773,-0.21907 0,-0.13531 0.0773,-0.21908 0.0838,-0.0902 0.21908,-0.0902 z"
         id="path2404" />
      <path
         d="m 106.75838,122.54142 q 0.0193,0.625 0.37371,1.00516 0.36083,0.38016 0.96007,0.38016 0.56057,0 1.15336,-0.23196 l 0.0322,0.31573 q -0.57346,0.2384 -1.22424,0.2384 -0.74099,0 -1.21136,-0.45748 -0.47037,-0.46392 -0.47037,-1.19202 0,-0.77965 0.45104,-1.28868 0.45748,-0.51547 1.19203,-0.51547 1.38533,0 1.41754,1.74616 z m 2.2874,-0.32217 q -0.0129,-0.50259 -0.30928,-0.79898 -0.28996,-0.30284 -0.76677,-0.30284 -0.47681,0 -0.79898,0.31572 -0.32217,0.30929 -0.39304,0.7861 z"
         id="path2406" />
      <path
         d="m 113.00202,124.15871 h -0.3866 v -1.86859 q 0,-1.17269 -0.9794,-1.17269 -0.3866,0 -0.70233,0.32861 -0.31572,0.32861 -0.31572,0.71522 v 1.99745 h -0.38661 V 121.678 q 0,-0.28995 -0.0644,-0.81187 h 0.36083 q 0.0644,0.19975 0.0773,0.58635 0.37372,-0.65722 1.10826,-0.65722 1.28868,0 1.28868,1.49486 z"
         id="path2408" />
      <path
         d="m 113.77523,122.47054 q 0,-0.72166 0.39949,-1.19847 0.40593,-0.47681 1.08249,-0.47681 0.81831,0 1.24357,0.69588 v -2.22941 h 0.38661 v 4.09155 q 0,0.57991 0.0258,0.80543 h -0.35439 q -0.0193,-0.2513 -0.0193,-0.57991 -0.45748,0.67011 -1.22424,0.67011 -0.72166,0 -1.13404,-0.49614 -0.40593,-0.50258 -0.40593,-1.28223 z m 1.59152,1.4562 q 0.47681,0 0.80542,-0.30928 0.32861,-0.31572 0.32861,-0.77965 v -0.54769 q 0,-0.49614 -0.3415,-0.83119 -0.33505,-0.3415 -0.83119,-0.3415 -0.56058,0 -0.86342,0.38016 -0.30284,0.38016 -0.30284,0.98584 0,1.44331 1.20492,1.44331 z"
         id="path2410" />
      <path
         d="m 119.15547,123.92674 -0.0387,0.32217 q -1.22424,-0.058 -1.22424,-1.74615 v -3.24103 h 0.3866 v 3.10571 q 0,0.36728 0.0322,0.61857 0.0322,0.25129 0.11598,0.48325 0.0902,0.23197 0.27062,0.34795 0.18042,0.10953 0.45749,0.10953 z"
         id="path2412" />
      <path
         d="m 121.10781,124.15871 q -0.57346,1.28867 -1.52064,1.51419 l -0.0902,-0.30284 q 0.82476,-0.18685 1.25002,-1.32089 0,-0.058 -0.0258,-0.11598 l -1.366,-3.06706 h 0.40593 l 1.23069,2.78999 1.15337,-2.78999 h 0.41237 z"
         id="path2414" />
      <path
         d="m 125.44421,123.54658 q 0.13531,0 0.2384,0.1031 0.1031,0.10309 0.1031,0.2384 0,0.13532 -0.1031,0.23197 -0.10309,0.0966 -0.2384,0.0966 -0.13531,0 -0.23196,-0.0966 -0.0966,-0.0967 -0.0966,-0.23197 0,-0.13531 0.0966,-0.2384 0.0966,-0.1031 0.23196,-0.1031 z"
         id="path2416" />
      <path
         d="m 131.42367,122.95379 q 0,0.59924 -0.45103,0.94718 -0.4446,0.34794 -1.11471,0.34794 -0.76032,0 -1.26935,-0.35438 l 0.15464,-0.32862 q 0.47681,0.36083 1.15337,0.36083 0.50903,0 0.82475,-0.24484 0.31573,-0.24485 0.31573,-0.69589 0,-0.43815 -0.25129,-0.65723 -0.2513,-0.22551 -0.75388,-0.38016 -1.28868,-0.41882 -1.28868,-1.30156 0,-0.54125 0.41238,-0.85697 0.41238,-0.32217 1.01805,-0.32217 0.64434,0 1.05672,0.24485 -0.0129,0.0258 -0.0773,0.14175 -0.058,0.10954 -0.0838,0.16109 -0.41882,-0.22552 -0.90208,-0.22552 -0.45104,0 -0.74743,0.21263 -0.28995,0.21263 -0.28995,0.59924 0,0.63789 0.99872,0.98583 0.32217,0.11599 0.51547,0.21264 0.19975,0.0902 0.39949,0.24484 0.19975,0.15465 0.28995,0.38016 0.0902,0.22552 0.0902,0.52836 z"
         id="path2418" />
      <path
         d="m 132.38373,122.54142 q 0.0193,0.625 0.37372,1.00516 0.36083,0.38016 0.96006,0.38016 0.56058,0 1.15337,-0.23196 l 0.0322,0.31573 q -0.57347,0.2384 -1.22425,0.2384 -0.74099,0 -1.21136,-0.45748 -0.47036,-0.46392 -0.47036,-1.19202 0,-0.77965 0.45103,-1.28868 0.45749,-0.51547 1.19203,-0.51547 1.38533,0 1.41755,1.74616 z m 2.2874,-0.32217 q -0.0129,-0.50259 -0.30928,-0.79898 -0.28995,-0.30284 -0.76676,-0.30284 -0.47681,0 -0.79898,0.31572 -0.32217,0.30929 -0.39305,0.7861 z"
         id="path2420" />
      <path
         d="m 137.3387,121.11743 q -0.61212,0 -0.97295,0.3866 -0.36083,0.3866 -0.36083,1.01806 0,0.625 0.36727,1.01805 0.36727,0.3866 0.96651,0.3866 0.54124,0 0.90207,-0.23196 l 0.13531,0.31573 q -0.42526,0.2384 -1.01805,0.2384 -0.79898,0 -1.26935,-0.46392 -0.47037,-0.47037 -0.47037,-1.2629 0,-0.79254 0.47037,-1.25647 0.47037,-0.47036 1.26935,-0.47036 0.59923,0 1.01805,0.23196 l -0.13531,0.32217 q -0.36083,-0.23196 -0.90207,-0.23196 z"
         id="path2422" />
      <path
         d="m 141.99727,124.14582 -0.36083,0.0838 q -0.11598,-0.32861 -0.15464,-0.64434 -0.4317,0.66367 -1.23713,0.66367 -1.18558,0 -1.18558,-1.53352 v -1.84926 h 0.3866 v 1.77838 q 0,1.28223 0.88275,1.28223 0.45748,0 0.78609,-0.30928 0.32861,-0.31572 0.32861,-0.76032 v -1.99101 h 0.38661 v 2.48715 q 0,0.34795 0.16752,0.79254 z"
         id="path2424" />
      <path
         d="m 144.34911,121.13031 q -0.0387,-0.0129 -0.11598,-0.0129 -0.42526,0 -0.72166,0.34794 -0.28995,0.3415 -0.28995,0.9214 v 1.77194 h -0.38661 v -2.21653 q 0,-0.7281 -0.0967,-1.07605 h 0.32862 q 0.10309,0.20619 0.10309,0.65723 0.30928,-0.7281 0.99228,-0.7281 0.0902,0 0.18686,0.0193 z"
         id="path2426" />
      <path
         d="m 145.08366,122.54142 q 0.0193,0.625 0.37372,1.00516 0.36083,0.38016 0.96006,0.38016 0.56058,0 1.15337,-0.23196 l 0.0322,0.31573 q -0.57346,0.2384 -1.22424,0.2384 -0.74099,0 -1.21136,-0.45748 -0.47036,-0.46392 -0.47036,-1.19202 0,-0.77965 0.45103,-1.28868 0.45748,-0.51547 1.19203,-0.51547 1.38533,0 1.41755,1.74616 z m 2.2874,-0.32217 q -0.0129,-0.50259 -0.30928,-0.79898 -0.28995,-0.30284 -0.76676,-0.30284 -0.47681,0 -0.79898,0.31572 -0.32217,0.30929 -0.39305,0.7861 z"
         id="path2428" />
    </g>
    <path
       style="fill:#5c5f5c;fill-opacity:1;stroke:#5c5f5c;stroke-width:0.102789;stroke-linejoin:bevel"
       d="m 18.4196,137.38387 v -4.77968 h 0.308366 0.308367 v 4.77968 4.77967 H 18.727966 18.4196 Z"
       id="path1834" />
    <path
       style="fill:#5c5f5c;fill-opacity:1;stroke:#5c5f5c;stroke-width:0.102789;stroke-linejoin:bevel"
       d="m 21.091489,139.61951 c -3.38e-4,-1.3992 -0.03064,-2.92938 -0.06727,-3.40038 l -0.06666,-0.85636 0.298551,0.0341 c 0.282601,0.0322 0.300207,0.0629 0.329618,0.5737 0.01709,0.2968 0.06862,0.53964 0.114506,0.53964 0.04588,0 0.205999,-0.17686 0.355801,-0.39302 0.483621,-0.69786 1.412484,-1.05856 2.188136,-0.8497 0.45557,0.12267 1.080087,0.68663 1.271148,1.14789 0.06844,0.16522 0.153512,0.29916 0.189056,0.29764 0.03556,-0.002 0.179948,-0.18963 0.320907,-0.41803 0.86151,-1.39595 2.779512,-1.46325 3.563747,-0.12505 0.452284,0.77176 0.545121,1.41843 0.546878,3.80939 l 0.0016,2.18426 H 29.829126 29.52076 v -2.04174 c 0,-2.14263 -0.08611,-2.90488 -0.396013,-3.50568 -0.516064,-1.00047 -1.774417,-1.11815 -2.605103,-0.24362 -0.549672,0.57867 -0.596487,0.84739 -0.596487,3.4236 v 2.36744 h -0.299165 -0.299159 l -0.03826,-2.54402 c -0.04133,-2.74801 -0.08797,-3.00834 -0.62865,-3.50672 -0.282733,-0.26061 -0.991065,-0.39732 -1.455166,-0.28084 -0.383762,0.0963 -1.084458,0.76545 -1.302194,1.24354 -0.163359,0.35869 -0.187542,0.70953 -0.189511,2.7496 l -0.0021,2.33844 H 21.40057 21.092204 Z"
       id="path1836" />
    <path
       style="fill:#5c5f5c;fill-opacity:1;stroke:#5c5f5c;stroke-width:0.102789;stroke-linejoin:bevel"
       d="m 32.183632,139.72231 c -0.0053,-1.34268 -0.04001,-2.8691 -0.07709,-3.39205 l -0.06744,-0.95083 0.280712,3e-5 c 0.304086,3e-5 0.360744,0.11938 0.411411,0.86665 l 0.02741,0.40408 0.301149,-0.43628 c 0.530823,-0.76899 1.484852,-1.16209 2.292519,-0.94461 0.428345,0.11535 1.057302,0.70156 1.282123,1.19498 0.06301,0.1383 0.141838,0.24999 0.175165,0.24821 0.03334,-0.002 0.183076,-0.20523 0.332783,-0.45208 0.396927,-0.6545 1.092004,-1.03426 1.893903,-1.03474 0.708406,-4.2e-4 1.176676,0.24608 1.576827,0.83007 0.475265,0.6936 0.554132,1.18164 0.600831,3.71796 l 0.04397,2.38984 h -0.317982 -0.317986 l -0.0032,-1.8245 c -0.0037,-2.1373 -0.115041,-3.15188 -0.409073,-3.72823 -0.565943,-1.10934 -2.06848,-1.08989 -2.849885,0.0369 l -0.284083,0.40965 -0.03074,2.55309 -0.03074,2.5531 h -0.290708 -0.290709 l -0.04487,-2.49263 c -0.04069,-2.26087 -0.06513,-2.53776 -0.26261,-2.97813 -0.622786,-1.38872 -2.340472,-1.16857 -3.146657,0.40331 -0.142039,0.27694 -0.16872,0.70364 -0.16872,2.6982 v 2.36925 h -0.308367 -0.308366 z"
       id="path1838" />
    <path
       style="fill:#5c5f5c;fill-opacity:1;stroke:#5c5f5c;stroke-width:0.102789;stroke-linejoin:bevel"
       d="m 44.682109,142.21471 c -0.226134,-0.08 -0.55853,-0.30531 -0.738663,-0.50077 -0.573696,-0.62254 -0.673704,-1.15865 -0.726245,-3.89323 l -0.04688,-2.44123 h 0.319056 0.319056 l 0.0016,1.67032 c 0.0021,2.07123 0.132393,3.36977 0.387181,3.86361 0.598879,1.16075 2.276777,1.12311 3.141948,-0.0705 l 0.323623,-0.44647 0.0308,-2.50848 0.0308,-2.50849 h 0.354652 0.354653 l 0.0026,2.90378 c 0.0016,1.59708 0.04958,3.108 0.107119,3.35759 0.08069,0.35009 0.07425,0.4734 -0.0282,0.53951 -0.292529,0.18877 -0.440082,0.0295 -0.581883,-0.62829 -0.130079,-0.60338 -0.154559,-0.64319 -0.283675,-0.4613 -0.769922,1.0846 -1.884786,1.50683 -2.967652,1.12394 z"
       id="path1840" />
    <path
       style="fill:#5c5f5c;fill-opacity:1;stroke:#5c5f5c;stroke-width:0.0120987;stroke-linejoin:bevel"
       d="m 52.2447,142.39185 c -0.276966,-0.0172 -0.528791,-0.10938 -0.73742,-0.26992 -0.03762,-0.0289 -0.112533,-0.0992 -0.16645,-0.15621 -0.271129,-0.28643 -0.449294,-0.69967 -0.537929,-1.2477 l -0.02741,-0.16938 -0.0037,-2.32597 -0.0037,-2.32597 h -0.622729 -0.622729 v -0.29642 -0.29642 h 0.623084 0.623083 v -1.03151 -1.03151 l 0.356965,-0.17836 c 0.196331,-0.0981 0.359664,-0.17836 0.362961,-0.17836 0.0032,0 0.006,0.54444 0.006,1.20987 v 1.20987 h 0.998141 0.99814 v 0.29642 0.29642 h -0.998436 -0.998432 l 0.0037,2.34411 c 0.0042,2.51988 0.0016,2.40294 0.06325,2.67345 0.08484,0.37068 0.250846,0.6229 0.484198,0.73565 0.132477,0.064 0.213006,0.078 0.450972,0.0782 0.298259,2.5e-4 0.536226,-0.0288 0.701241,-0.0856 0.03715,-0.0127 0.06891,-0.0218 0.07065,-0.0201 0.0016,0.002 0.01889,0.13378 0.0381,0.29343 l 0.03493,0.29027 -0.02498,0.0147 c -0.04154,0.0245 -0.176763,0.0737 -0.272986,0.0993 -0.224272,0.0597 -0.538226,0.0879 -0.798513,0.0717 z"
       id="path1842" />
    <path
       style="fill:#5c5f5c;fill-opacity:1;stroke:#5c5f5c;stroke-width:0.0120987;stroke-linejoin:bevel"
       d="m 56.097753,142.39143 c -0.705813,-0.0372 -1.3422,-0.43424 -1.63658,-1.0211 -0.127498,-0.25417 -0.184251,-0.49817 -0.19294,-0.82947 -0.0086,-0.32827 0.02678,-0.59387 0.114131,-0.85727 0.183351,-0.55276 0.567785,-0.97115 1.166283,-1.26932 0.6311,-0.31439 1.474068,-0.48224 2.538513,-0.50543 l 0.343615,-0.008 -0.0077,-0.19473 c -0.04038,-1.02769 -0.479198,-1.67898 -1.242732,-1.84441 -0.06325,-0.0137 -0.189585,-0.0311 -0.280744,-0.0387 -0.44059,-0.0367 -1.094666,0.0916 -1.974221,0.38728 -0.09933,0.0334 -0.181985,0.0593 -0.183663,0.0577 -0.0016,-0.002 -0.01979,-0.15543 -0.04027,-0.34165 -0.02043,-0.18623 -0.03995,-0.35533 -0.04334,-0.37579 l -0.0061,-0.0372 0.196754,-0.0621 c 0.637069,-0.20122 1.231562,-0.29519 1.878468,-0.29691 0.408887,-10e-4 0.655648,0.0319 0.941155,0.12559 0.775726,0.25472 1.244626,0.86919 1.412033,1.85038 0.06374,0.37359 0.06299,0.35157 0.07318,2.15967 0.0053,0.9316 0.01259,1.71287 0.0163,1.73616 0.0037,0.0233 0.0154,0.12401 0.02598,0.22383 0.02461,0.23218 0.07722,0.54331 0.130916,0.77422 0.02318,0.0998 0.04043,0.18312 0.03831,0.18523 -0.0053,0.005 -0.615744,0.14743 -0.618146,0.1441 -0.0011,-0.002 -0.05738,-0.24757 -0.125249,-0.54701 -0.06786,-0.29945 -0.126195,-0.55261 -0.129624,-0.56259 -0.0048,-0.0137 -0.01275,-0.009 -0.0326,0.018 -0.132154,0.18141 -0.327337,0.39131 -0.492088,0.52919 -0.523002,0.43768 -1.14718,0.63796 -1.869694,0.5999 z m 0.49258,-0.68097 c 0.347737,-0.0524 0.68534,-0.18588 1.008036,-0.39851 0.430234,-0.28349 0.68181,-0.59654 0.788437,-0.98109 l 0.03355,-0.12099 0.0042,-0.82153 0.0042,-0.82154 -0.336365,0.008 c -1.883907,0.0422 -2.917237,0.54306 -3.083136,1.49441 -0.0236,0.13541 -0.02334,0.45028 5.29e-4,0.59023 0.09801,0.57468 0.455454,0.95443 0.989563,1.05132 0.120062,0.0218 0.447373,0.0219 0.591343,1.7e-4 z"
       id="path1844" />
    <path
       style="fill:#5c5f5c;fill-opacity:1;stroke:#5c5f5c;stroke-width:0.0120987;stroke-linejoin:bevel"
       d="m 63.895733,142.39183 c -0.512996,-0.0248 -0.97916,-0.20035 -1.403445,-0.52838 -0.21852,-0.16894 -0.498946,-0.48244 -0.682139,-0.7626 l -0.07403,-0.11321 -0.0026,0.0769 c -0.0016,0.0423 -0.0084,0.26475 -0.01513,0.49432 -0.0068,0.22957 -0.01588,0.47049 -0.02021,0.53537 l -0.0078,0.11796 h -0.331491 -0.331491 l 0.0072,-0.0696 c 0.03223,-0.31049 0.0345,-0.6209 0.03879,-5.32947 l 0.0042,-4.88484 h 0.362511 0.362516 l 3.81e-4,2.34411 c 3.07e-4,1.84593 0.0037,2.33976 0.01513,2.32358 0.0081,-0.0113 0.05011,-0.0785 0.09338,-0.14934 0.126519,-0.20718 0.259122,-0.37486 0.440923,-0.55755 0.420206,-0.42226 0.852196,-0.63367 1.47067,-0.71971 0.156581,-0.0218 0.571093,-0.0184 0.744067,0.006 0.699278,0.0991 1.238552,0.41993 1.670484,0.99381 0.40286,0.53525 0.631761,1.14756 0.721233,1.92925 0.02132,0.18644 0.02154,0.96995 3.17e-4,1.16752 -0.06336,0.58955 -0.199898,1.08804 -0.420856,1.53653 -0.546757,1.10979 -1.440683,1.64733 -2.642653,1.58912 z m 0.456104,-0.6822 c 0.932228,-0.12168 1.512713,-0.67791 1.768841,-1.69492 0.159104,-0.63178 0.18716,-1.53034 0.06786,-2.17381 -0.15712,-0.84753 -0.581861,-1.50598 -1.161939,-1.8013 -0.306869,-0.15623 -0.580342,-0.21754 -0.973587,-0.21827 -0.33537,-5.3e-4 -0.537718,0.0369 -0.824669,0.15292 -0.308012,0.12454 -0.642567,0.38412 -0.882439,0.68466 -0.236876,0.2968 -0.412025,0.67489 -0.4876,1.05259 -0.05249,0.26234 -0.05806,0.39371 -0.05281,1.24616 0.0053,0.8672 0.0055,0.86875 0.08313,1.16148 0.189346,0.71374 0.738627,1.30423 1.410732,1.51655 0.08591,0.0271 0.292094,0.0709 0.396727,0.0843 0.104499,0.0133 0.525007,0.007 0.655732,-0.0104 z"
       id="path1846" />
    <path
       style="fill:#5c5f5c;fill-opacity:1;stroke:#5c5f5c;stroke-width:0.0120987;stroke-linejoin:bevel"
       d="m 70.537912,142.37439 c -0.460163,-0.0669 -0.842968,-0.24895 -1.153102,-0.54846 -0.550248,-0.53142 -0.8383,-1.37267 -0.903409,-2.63839 -0.0075,-0.14657 -0.01217,-1.56597 -0.01222,-3.74757 l -1.16e-4,-3.51164 h 0.362548 0.362548 l 0.0048,3.63868 c 0.0048,3.71784 0.0042,3.70908 0.05117,4.13472 0.05598,0.5102 0.185235,1.02315 0.328575,1.30388 0.236347,0.46289 0.598599,0.69175 1.141487,0.72114 l 0.13962,0.008 -0.03567,0.32969 -0.03567,0.32969 -0.06764,-10e-4 c -0.0372,-5.3e-4 -0.119364,-0.009 -0.182579,-0.018 z"
       id="path1848" />
    <path
       style="fill:#5c5f5c;fill-opacity:1;stroke:#5c5f5c;stroke-width:0.0120987;stroke-linejoin:bevel"
       d="m 74.687759,142.39206 c -0.438674,-0.0197 -0.854054,-0.122 -1.21919,-0.30032 -0.200157,-0.0977 -0.290745,-0.15309 -0.474625,-0.28996 -0.537962,-0.40042 -0.94334,-1.00186 -1.148583,-1.70412 -0.04112,-0.14071 -0.08724,-0.36753 -0.116316,-0.57204 -0.03048,-0.21438 -0.03752,-0.82089 -0.01259,-1.08201 0.06128,-0.64148 0.189405,-1.10602 0.440478,-1.59707 0.326755,-0.63905 0.811811,-1.13656 1.375394,-1.4107 0.410306,-0.19957 0.788723,-0.28155 1.294559,-0.28043 0.299021,5.3e-4 0.50546,0.0249 0.750411,0.088 0.882597,0.22757 1.469935,0.90241 1.741805,2.00129 0.10141,0.40989 0.154083,0.81677 0.182203,1.40744 l 0.0076,0.16031 h -2.548287 -2.548287 l 0.0061,0.0575 c 0.0032,0.0316 0.0093,0.11192 0.01323,0.17846 0.03365,0.57114 0.201612,1.13688 0.462777,1.55908 0.166042,0.26844 0.422667,0.54692 0.65513,0.71094 0.295079,0.20821 0.653066,0.34273 1.044744,0.39258 0.197739,0.0252 0.718386,0.0187 0.949505,-0.0119 0.512974,-0.0678 1.079934,-0.22232 1.531371,-0.41744 0.03217,-0.0139 0.06254,-0.0253 0.06752,-0.0253 0.0095,0 0.06935,0.63808 0.06055,0.6454 -0.0026,0.002 -0.0595,0.0274 -0.126047,0.0557 -0.61631,0.26231 -1.278409,0.41151 -1.911594,0.43076 -0.113125,0.004 -0.224731,0.008 -0.248025,0.009 -0.02328,0.002 -0.12673,-0.001 -0.229876,-0.005 z m 2.093034,-4.29643 c -1.32e-4,-0.16386 -0.04334,-0.48319 -0.09136,-0.67545 -0.112416,-0.44993 -0.307927,-0.791 -0.631222,-1.10118 -0.315393,-0.3026 -0.682963,-0.45906 -1.163383,-0.49521 -0.749454,-0.0564 -1.381448,0.23465 -1.862021,0.8575 -0.276368,0.35818 -0.472345,0.81818 -0.552365,1.29652 -0.01058,0.0631 -0.02196,0.12704 -0.02529,0.14202 l -0.0061,0.0272 h 2.165895 2.165895 l -3.7e-5,-0.0514 z"
       id="path1850" />
    <path
       style="fill:#5c5f5c;fill-opacity:1;stroke:#5c5f5c;stroke-width:0.0120987;stroke-linejoin:bevel"
       d="m 89.992597,137.36668 v -4.84552 h 2.480231 2.480231 v 0.33272 0.33271 h -2.11727 -2.11727 v 1.8511 1.8511 h 1.972087 1.972088 v 0.33271 0.33271 h -1.972088 -1.972087 v 2.329 2.329 h -0.362961 -0.362961 z"
       id="path1852" />
    <path
       style="fill:#5c5f5c;fill-opacity:1;stroke:#5c5f5c;stroke-width:0.0120987;stroke-linejoin:bevel"
       d="m 96.416876,139.62007 c -1.32e-4,-2.80904 -0.0053,-3.09289 -0.06728,-3.65078 -0.02027,-0.18271 -0.06885,-0.48979 -0.09429,-0.59606 l -0.01667,-0.0698 0.309875,0.003 0.309874,0.003 0.03889,0.11494 c 0.08135,0.24051 0.12917,0.57711 0.146098,1.02834 l 0.0088,0.23589 0.05851,-0.1391 c 0.194162,-0.46157 0.459602,-0.82564 0.777457,-1.0663 0.118655,-0.0898 0.374475,-0.2173 0.518943,-0.25855 0.237776,-0.0679 0.546878,-0.0903 0.771435,-0.0559 l 0.10586,0.0162 v 0.32596 0.32596 l -0.04535,-0.01 c -0.07363,-0.0156 -0.341916,-0.007 -0.456459,0.0142 -0.325395,0.061 -0.591582,0.20022 -0.844672,0.44186 -0.369946,0.35321 -0.60244,0.79574 -0.715364,1.36164 -0.07461,0.37386 -0.07142,0.26872 -0.0762,2.5131 l -0.0042,2.05375 h -0.362468 -0.362469 z"
       id="path1854" />
    <path
       style="fill:#5c5f5c;fill-opacity:1;stroke:#5c5f5c;stroke-width:0.0120987;stroke-linejoin:bevel"
       d="m 100.40957,138.75804 v -3.45418 h 0.35691 0.35691 v 3.45418 3.45417 h -0.35691 -0.35691 z"
       id="path1856" />
    <path
       style="fill:#5c5f5c;fill-opacity:1;stroke:#5c5f5c;stroke-width:0.0120987;stroke-linejoin:bevel"
       d="m 105.59385,142.39151 c -0.6654,-0.0283 -1.25771,-0.24307 -1.76229,-0.63905 -0.13023,-0.1022 -0.37081,-0.34141 -0.47457,-0.47185 -0.53397,-0.67131 -0.78011,-1.48371 -0.75329,-2.48628 0.008,-0.28217 0.0183,-0.41825 0.0513,-0.64728 0.12221,-0.84944 0.4688,-1.58684 1.00869,-2.14604 0.448,-0.46404 0.99141,-0.73661 1.64587,-0.82555 0.20461,-0.0278 0.61454,-0.0275 0.82683,5.3e-4 1.15679,0.1536 1.85983,0.91064 2.1417,2.30622 0.0702,0.34747 0.12872,0.90685 0.12872,1.23003 v 0.10002 h -2.54072 -2.54072 l 2.4e-4,0.0756 c 3.4e-4,0.10274 0.0304,0.40549 0.0546,0.55015 0.19569,1.16863 0.86478,1.98358 1.82008,2.21685 0.25496,0.0623 0.42348,0.0772 0.78677,0.0695 0.64016,-0.0134 1.19157,-0.12927 1.86194,-0.3912 0.1091,-0.0427 0.20029,-0.0756 0.20264,-0.0732 0.01,0.01 0.0626,0.63225 0.0542,0.64075 -0.0197,0.0198 -0.3998,0.16871 -0.57879,0.22666 -0.63028,0.20408 -1.27382,0.29193 -1.93316,0.26391 z m 2.08308,-4.40477 c -0.0319,-0.66713 -0.26283,-1.2229 -0.67985,-1.63634 -0.3265,-0.32372 -0.69686,-0.48696 -1.19452,-0.52654 -0.43749,-0.0348 -0.88361,0.064 -1.22519,0.27142 -0.36492,0.22154 -0.69867,0.59578 -0.914,1.02486 -0.14147,0.2819 -0.25497,0.65096 -0.29651,0.96414 l -0.008,0.0628 h 2.16304 2.16303 z"
       id="path1858" />
    <path
       style="fill:#5c5f5c;fill-opacity:1;stroke:#5c5f5c;stroke-width:0.0120987;stroke-linejoin:bevel"
       d="m 109.94026,139.37809 c -0.004,-2.56706 -0.006,-2.85806 -0.0251,-3.08819 -0.0222,-0.26713 -0.0759,-0.83071 -0.0886,-0.92857 l -0.007,-0.0575 h 0.33932 0.33931 l 0.0248,0.10586 c 0.0525,0.22428 0.0924,0.5523 0.10604,0.87076 0.0115,0.26976 0.0122,0.27115 0.0761,0.15387 0.31286,-0.57401 0.75972,-0.97794 1.2836,-1.16029 0.58453,-0.20346 1.41078,-0.14755 1.9583,0.13251 0.47048,0.24066 0.81264,0.656 1.01711,1.23465 0.0865,0.2447 0.1633,0.60057 0.19974,0.9251 0.0357,0.31814 0.0423,0.73381 0.0425,2.68288 l 2.1e-4,1.96301 h -0.36242 -0.3624 l -0.005,-2.16264 c -0.005,-2.30523 -0.004,-2.24733 -0.0633,-2.59474 -0.14884,-0.86461 -0.56532,-1.39361 -1.23625,-1.57025 -0.26568,-0.0699 -0.64299,-0.086 -0.87468,-0.0371 -0.32007,0.0674 -0.59469,0.22305 -0.87551,0.49615 -0.38184,0.37133 -0.62351,0.794 -0.72359,1.26547 l -0.0281,0.13272 -0.003,2.23523 -0.003,2.23524 h -0.36229 -0.36229 z"
       id="path1860" />
    <path
       style="fill:#5c5f5c;fill-opacity:1;stroke:#5c5f5c;stroke-width:0.0120987;stroke-linejoin:bevel"
       d="m 119.4287,142.39186 c -0.97254,-0.0437 -1.72903,-0.53095 -2.22292,-1.43187 -0.20145,-0.36746 -0.36031,-0.83543 -0.43809,-1.2905 -0.17154,-1.00371 -0.0764,-2.02894 0.25996,-2.80075 0.38253,-0.87778 1.02011,-1.45538 1.81427,-1.64357 0.51957,-0.12312 1.12835,-0.09 1.60307,0.0872 0.48403,0.18069 0.89719,0.51746 1.22802,1.00097 0.0466,0.0681 0.10646,0.16266 0.13308,0.21019 0.0266,0.0475 0.0525,0.0866 0.0575,0.0867 0.005,1.5e-4 0.009,-1.05322 0.009,-2.34082 v -2.34109 h 0.36296 0.36296 l 3e-5,4.72151 c 3e-5,4.49762 0.004,5.11138 0.0346,5.46256 l 0.009,0.0998 h -0.32852 -0.32852 l -0.007,-0.0635 c -0.009,-0.0755 -0.032,-0.71082 -0.0357,-0.97697 l -0.003,-0.18753 -0.0591,0.0907 c -0.17859,0.27436 -0.47499,0.60953 -0.68659,0.77642 -0.44136,0.34808 -0.92914,0.52623 -1.49259,0.54514 -0.0532,0.002 -0.17574,-2.9e-4 -0.27222,-0.005 z m 0.71745,-0.69856 c 0.19011,-0.0387 0.33272,-0.0881 0.51057,-0.17686 0.19803,-0.0988 0.35003,-0.20695 0.51835,-0.36891 0.28197,-0.27134 0.48911,-0.61224 0.59377,-0.97721 0.0952,-0.33198 0.1071,-0.50072 0.10047,-1.42495 -0.006,-0.81632 -0.01,-0.87163 -0.0869,-1.17193 -0.11845,-0.46217 -0.34226,-0.83582 -0.71116,-1.18728 -0.31968,-0.30456 -0.66926,-0.47818 -1.09812,-0.54541 -0.16881,-0.0265 -0.52855,-0.0264 -0.70059,1.6e-4 -0.24499,0.0378 -0.49288,0.11817 -0.67013,0.2173 -0.59476,0.3326 -1.01376,1.0442 -1.14621,1.94662 -0.082,0.55841 -0.0544,1.32786 0.0679,1.89545 0.19097,0.8863 0.63787,1.46184 1.31894,1.69858 0.28636,0.0995 0.49681,0.12927 0.8821,0.12459 0.24186,-0.003 0.3122,-0.008 0.42103,-0.0302 z"
       id="path1862" />
    <path
       style="fill:#5c5f5c;fill-opacity:1;stroke:#5c5f5c;stroke-width:0.0120987;stroke-linejoin:bevel"
       d="m 126.58508,142.37401 c -0.7441,-0.1157 -1.27117,-0.50286 -1.61454,-1.18599 -0.21576,-0.42923 -0.33958,-0.91494 -0.42053,-1.64962 -0.019,-0.17193 -0.021,-0.49629 -0.0245,-3.8988 l -0.004,-3.71127 h 0.35644 0.35645 l 0.005,3.54794 c 0.005,3.61064 0.006,3.70542 0.0515,4.15287 0.0676,0.6674 0.21893,1.21647 0.42153,1.52965 0.0695,0.10744 0.23303,0.27902 0.32659,0.34265 0.20221,0.13754 0.50553,0.22655 0.77273,0.22675 0.066,5e-5 0.0938,0.004 0.0938,0.0149 0,0.0265 -0.0614,0.59531 -0.0673,0.62337 -0.005,0.0246 -0.0124,0.0271 -0.0751,0.0259 -0.0382,-5.3e-4 -0.11833,-0.009 -0.17822,-0.0183 z"
       id="path1864" />
    <path
       style="fill:#5c5f5c;fill-opacity:1;stroke:#5c5f5c;stroke-width:0.0120987;stroke-linejoin:bevel"
       d="m 127.7324,145.35991 c -0.004,-0.0178 -0.0421,-0.15751 -0.0836,-0.31056 -0.0415,-0.15305 -0.0746,-0.2787 -0.0736,-0.27923 0.001,-5.3e-4 0.0705,-0.0231 0.15437,-0.0501 0.59914,-0.19319 1.11392,-0.61986 1.53875,-1.27538 0.2291,-0.35349 0.45727,-0.82877 0.63229,-1.31709 0.0502,-0.14016 0.0546,-0.20052 0.0225,-0.31314 -0.0102,-0.0358 -0.5784,-1.45407 -1.26265,-3.1517 -0.68425,-1.69763 -1.26872,-3.14785 -1.29881,-3.22271 l -0.0547,-0.13611 h 0.37797 0.37798 l 0.62696,1.5698 c 0.34484,0.8634 0.87064,2.17958 1.16844,2.92486 0.29781,0.74528 0.5461,1.35384 0.55176,1.35235 0.006,-0.002 0.50152,-1.31572 1.1019,-2.92052 0.60038,-1.60481 1.09364,-2.91985 1.09611,-2.92233 0.003,-0.003 0.17572,-0.003 0.38497,-0.001 l 0.38046,0.003 -0.79047,1.98418 c -1.77735,4.46137 -2.01866,5.06474 -2.0928,5.23269 -0.68871,1.56017 -1.57313,2.50635 -2.64993,2.83496 l -0.0998,0.0305 z"
       id="path1866" />
    <path
       style="fill:#5c5f5c;fill-opacity:1;stroke:#5c5f5c;stroke-width:0.0120987;stroke-linejoin:bevel"
       d="m 147.05605,142.39197 c -0.76825,-0.0274 -1.45102,-0.23495 -2.00838,-0.61046 -0.0732,-0.0493 -0.1429,-0.0973 -0.15489,-0.10653 -0.0205,-0.0159 -0.0135,-0.0364 0.11888,-0.34769 0.0774,-0.18196 0.1427,-0.33284 0.14516,-0.33529 0.003,-0.003 0.0551,0.0336 0.11704,0.08 0.35576,0.26692 0.7116,0.43761 1.14209,0.54786 0.28966,0.0742 0.47291,0.0975 0.82376,0.10499 0.33529,0.007 0.48955,-0.004 0.72374,-0.0512 0.70304,-0.1424 1.24493,-0.57879 1.4436,-1.16254 0.0977,-0.28702 0.13792,-0.63374 0.11224,-0.96706 -0.0465,-0.60262 -0.2178,-0.97667 -0.58967,-1.28709 -0.32454,-0.27092 -0.67833,-0.46033 -1.25163,-0.67011 -0.6697,-0.24504 -1.08548,-0.45919 -1.4927,-0.76882 -0.14989,-0.11396 -0.43634,-0.39722 -0.5375,-0.53151 -0.34518,-0.45821 -0.50377,-0.97168 -0.48098,-1.55734 0.0282,-0.72534 0.27565,-1.25816 0.78826,-1.69748 0.34079,-0.29206 0.75946,-0.50034 1.19386,-0.59391 0.24353,-0.0524 0.35146,-0.0638 0.66934,-0.0702 0.56757,-0.0114 1.05374,0.0604 1.48926,0.21979 0.1272,0.0466 0.42057,0.1876 0.51541,0.24777 l 0.0568,0.036 -0.146,0.29984 c -0.0803,0.16492 -0.14983,0.30408 -0.15451,0.30926 -0.005,0.005 -0.0544,-0.016 -0.11041,-0.0471 -0.38284,-0.21229 -0.83065,-0.349 -1.28744,-0.39301 -0.18737,-0.018 -0.61451,-0.008 -0.7684,0.0188 -0.45543,0.0782 -0.81327,0.24969 -1.08435,0.51973 -0.22271,0.22186 -0.34527,0.45664 -0.41185,0.78898 -0.031,0.15489 -0.0311,0.5621 -9e-5,0.70596 0.10269,0.47659 0.35349,0.8406 0.81802,1.18722 0.26831,0.2002 0.59107,0.36927 1.09568,0.57396 0.92096,0.37356 1.4131,0.66047 1.80326,1.05124 0.23261,0.23298 0.36319,0.44472 0.46447,0.75316 0.11162,0.33991 0.15126,0.64579 0.14238,1.09875 -0.007,0.33168 -0.02,0.45179 -0.0768,0.68358 -0.14897,0.60758 -0.51561,1.10908 -1.08106,1.4787 -0.56172,0.36718 -1.19687,0.52128 -2.02653,0.49166 z"
       id="path1868" />
    <path
       style="fill:#5c5f5c;fill-opacity:1;stroke:#5c5f5c;stroke-width:0.0120987;stroke-linejoin:bevel"
       d="m 154.34551,142.39237 c -0.93633,-0.0436 -1.74092,-0.46045 -2.29038,-1.18669 -0.1415,-0.18703 -0.2246,-0.32227 -0.32938,-0.53606 -0.17644,-0.36 -0.28018,-0.71552 -0.3407,-1.16752 -0.0313,-0.23338 -0.0309,-0.91863 5.3e-4,-1.17962 0.0979,-0.81132 0.33808,-1.44177 0.7663,-2.01189 0.12116,-0.16132 0.37713,-0.42994 0.51786,-0.54349 0.40208,-0.32438 0.86305,-0.51957 1.3974,-0.59169 0.18197,-0.0246 0.60018,-0.0275 0.78037,-0.005 0.8494,0.10383 1.46071,0.52612 1.83722,1.26914 0.28454,0.56151 0.43276,1.24515 0.47459,2.18889 l 0.008,0.1845 h -2.54533 -2.54534 l 0.009,0.16555 c 0.0563,1.06062 0.47749,1.90828 1.18294,2.38047 0.27673,0.18522 0.63503,0.31124 1.01604,0.35736 0.13282,0.0161 0.57208,0.0159 0.75043,-3.2e-4 0.53418,-0.0485 1.11645,-0.19394 1.64319,-0.41031 0.0686,-0.0282 0.1265,-0.0494 0.12856,-0.047 0.002,0.002 0.017,0.14769 0.0332,0.32301 l 0.0294,0.31877 -0.0673,0.0298 c -0.61392,0.27213 -1.32296,0.43735 -1.96676,0.45829 -0.10646,0.004 -0.21807,0.008 -0.24802,0.01 -0.0299,0.002 -0.13883,-5.3e-4 -0.24197,-0.005 z m 2.09294,-4.31489 c -2e-4,-0.10786 -0.0332,-0.3947 -0.0616,-0.53536 -0.10447,-0.51724 -0.33713,-0.93701 -0.70159,-1.26584 -0.36904,-0.33297 -0.88736,-0.49499 -1.44846,-0.45276 -0.30028,0.0226 -0.50922,0.0779 -0.7584,0.20095 -0.21202,0.10465 -0.35671,0.21048 -0.54464,0.39836 -0.31889,0.31879 -0.52107,0.6493 -0.66579,1.0883 -0.0619,0.18767 -0.13858,0.51844 -0.13858,0.59748 v 0.0385 h 2.15961 2.15962 l -1.3e-4,-0.0696 z"
       id="path1870" />
    <path
       style="fill:#5c5f5c;fill-opacity:1;stroke:#5c5f5c;stroke-width:0.0120987;stroke-linejoin:bevel"
       d="m 161.33855,142.392 c -1.08146,-0.0419 -1.9512,-0.51556 -2.50721,-1.36546 -0.10294,-0.15736 -0.25407,-0.45753 -0.32128,-0.63812 -0.19148,-0.51457 -0.28369,-1.12781 -0.26423,-1.75742 0.033,-1.06909 0.31429,-1.85258 0.89587,-2.49558 0.42512,-0.47001 0.97385,-0.7784 1.61611,-0.90825 0.72196,-0.14596 1.606,-0.0776 2.23826,0.17321 0.12357,0.049 0.36769,0.16666 0.44228,0.21315 l 0.037,0.023 -0.12413,0.32509 c -0.0683,0.1788 -0.12584,0.32681 -0.12794,0.32891 -0.002,0.002 -0.0418,-0.0209 -0.0883,-0.0513 -0.12185,-0.0795 -0.37704,-0.20073 -0.53816,-0.25561 -0.62717,-0.21363 -1.41267,-0.22325 -1.98375,-0.0243 -0.73735,0.25688 -1.30777,0.93118 -1.52981,1.80841 -0.0831,0.32819 -0.11001,0.57875 -0.10909,1.01444 0.001,0.38027 0.0158,0.54993 0.073,0.828 0.22062,1.07202 0.91126,1.84151 1.84616,2.05697 0.36099,0.0832 0.91731,0.0829 1.3345,-5.3e-4 0.33635,-0.0674 0.6823,-0.20489 0.91791,-0.36472 0.0544,-0.0369 0.0733,-0.0445 0.0809,-0.0322 0.026,0.042 0.24219,0.62052 0.23699,0.63407 -0.0101,0.0261 -0.44052,0.23221 -0.59454,0.28462 -0.48293,0.16433 -0.94852,0.22632 -1.53048,0.20377 z"
       id="path1872" />
    <path
       style="fill:#5c5f5c;fill-opacity:1;stroke:#5c5f5c;stroke-width:0.0120987;stroke-linejoin:bevel"
       d="m 166.87975,142.39219 c -1.09932,-0.0508 -1.77948,-0.75484 -2.00236,-2.07265 -0.0851,-0.50312 -0.0905,-0.68132 -0.0906,-3.00428 l -1.2e-4,-2.0114 h 0.36243 0.36243 l 0.005,2.11425 c 0.005,2.27223 0.003,2.2088 0.0684,2.61029 0.11061,0.68288 0.34684,1.15772 0.71377,1.4347 0.11673,0.0881 0.30387,0.17589 0.46903,0.21998 0.14095,0.0376 0.14586,0.038 0.43294,0.0383 0.31989,2e-4 0.42138,-0.014 0.65333,-0.0913 0.51872,-0.1729 0.98371,-0.59183 1.24056,-1.11767 0.11752,-0.24057 0.18647,-0.48562 0.21689,-0.77082 0.008,-0.0765 0.0126,-0.87114 0.0126,-2.27757 v -2.1601 h 0.36268 0.36269 l 0.004,2.77968 c 0.004,2.55555 0.006,2.79126 0.0248,2.92345 0.0476,0.32802 0.13184,0.694 0.23181,1.00724 0.0293,0.0918 0.0522,0.16798 0.0509,0.1692 -0.001,0.001 -0.14395,0.0384 -0.31696,0.0827 -0.17301,0.0443 -0.32331,0.083 -0.334,0.0862 -0.0443,0.0128 -0.21624,-0.67688 -0.28249,-1.13319 -0.0166,-0.11446 -0.0325,-0.21037 -0.0352,-0.21315 -0.003,-0.003 -0.0226,0.0256 -0.044,0.0631 -0.10303,0.18009 -0.3558,0.49817 -0.50744,0.63856 -0.38939,0.36051 -0.82188,0.57279 -1.33751,0.65651 -0.15846,0.0257 -0.41937,0.0375 -0.62308,0.0281 z"
       id="path1874" />
    <path
       style="fill:#5c5f5c;fill-opacity:1;stroke:#5c5f5c;stroke-width:0.0120987;stroke-linejoin:bevel"
       d="m 171.97328,139.71685 c -10e-6,-2.8742 -0.008,-3.25807 -0.085,-3.8625 -0.0226,-0.17862 -0.0767,-0.49221 -0.0915,-0.53078 -0.007,-0.0179 0.0209,-0.0197 0.30138,-0.0197 h 0.30894 l 0.0264,0.0696 c 0.0401,0.10575 0.0913,0.31969 0.11376,0.47487 0.0186,0.12825 0.0288,0.26245 0.0524,0.68357 l 0.009,0.15729 0.035,-0.0907 c 0.0553,-0.14348 0.20724,-0.43657 0.2964,-0.57185 0.31828,-0.48289 0.72215,-0.76117 1.23538,-0.85122 0.14036,-0.0246 0.46486,-0.0259 0.58074,-0.002 l 0.0786,0.016 0.003,0.32456 0.003,0.32456 -0.0335,-0.007 c -0.13988,-0.0275 -0.38784,-0.0144 -0.56781,0.03 -0.41872,0.10307 -0.78347,0.37645 -1.07019,0.8021 -0.19819,0.29421 -0.33003,0.63119 -0.40431,1.03334 -0.0656,0.35503 -0.0661,0.3745 -0.0661,2.52689 v 1.9883 h -0.36296 -0.36296 l -1e-5,-2.49536 z"
       id="path1876" />
    <path
       style="fill:#5c5f5c;fill-opacity:1;stroke:#5c5f5c;stroke-width:0.0120987;stroke-linejoin:bevel"
       d="m 178.51869,142.39237 c -0.87552,-0.0378 -1.62691,-0.39454 -2.17739,-1.03372 -0.44146,-0.51261 -0.68852,-1.09177 -0.79453,-1.8626 -0.0308,-0.22357 -0.0312,-0.90321 -5.3e-4,-1.15542 0.0412,-0.34132 0.0893,-0.57998 0.17202,-0.85315 0.2745,-0.90691 0.87117,-1.66615 1.60037,-2.0364 0.44485,-0.22586 0.96728,-0.32731 1.5107,-0.29336 0.5693,0.0356 1.00217,0.1861 1.3773,0.47894 0.10919,0.0853 0.2997,0.27809 0.38237,0.38707 0.3813,0.50265 0.6127,1.19849 0.7001,2.10518 0.0168,0.17461 0.0366,0.49894 0.0366,0.6019 l 4e-5,0.0817 h -2.5426 -2.5426 l 0.008,0.16125 c 0.025,0.52051 0.14698,1.01238 0.35318,1.42368 0.12473,0.24878 0.26497,0.45022 0.44112,0.63357 0.33792,0.35174 0.73007,0.56283 1.21951,0.65643 0.14112,0.027 0.20985,0.0326 0.45819,0.0378 0.17493,0.004 0.35699,3.9e-4 0.4537,-0.008 0.53796,-0.0467 1.05367,-0.17101 1.5935,-0.38408 0.10884,-0.043 0.19966,-0.0764 0.20182,-0.0742 0.002,0.002 0.0151,0.12906 0.0288,0.28201 0.0137,0.15295 0.0274,0.29599 0.0304,0.31787 0.005,0.0383 0.003,0.0409 -0.0634,0.0707 -0.5972,0.26839 -1.32847,0.43829 -1.97442,0.45871 -0.1098,0.004 -0.21868,0.008 -0.24198,0.009 -0.0233,0.002 -0.12673,-5.3e-4 -0.22987,-0.005 z m 2.07711,-4.39518 c -0.0197,-0.38967 -0.11707,-0.78249 -0.26862,-1.0842 -0.15264,-0.3039 -0.41191,-0.60374 -0.67806,-0.78415 -0.33987,-0.23038 -0.79273,-0.34064 -1.25576,-0.30574 -0.3014,0.0227 -0.52695,0.0829 -0.77603,0.20692 -0.19637,0.0978 -0.3464,0.20757 -0.5206,0.38087 -0.34692,0.34511 -0.57419,0.73203 -0.71275,1.21346 -0.0424,0.14728 -0.10355,0.43817 -0.10355,0.49253 v 0.0302 h 2.16148 2.16148 z"
       id="path1878" />
    <path
       style="fill:#ff7f2a;fill-opacity:1;stroke:#5c5f5c;stroke-width:0.00206706;stroke-linejoin:bevel"
       d="m 83.478942,142.33576 c -0.101097,-0.008 -0.184928,-0.0352 -0.26252,-0.084 -0.03842,-0.0242 -0.07209,-0.0516 -0.11077,-0.0902 -0.07477,-0.0746 -0.122158,-0.14429 -0.158978,-0.23387 -0.06123,-0.14895 -0.06985,-0.33629 -0.02296,-0.4986 0.0417,-0.14423 0.13607,-0.28586 0.252386,-0.37868 0.137535,-0.10976 0.312118,-0.14649 0.484727,-0.10201 0.07326,0.0189 0.1455,0.0555 0.213937,0.10833 0.03043,0.0235 0.100541,0.0934 0.127312,0.12702 0.09297,0.11659 0.143071,0.23572 0.16038,0.38138 0.0037,0.0301 0.0037,0.13316 0,0.16329 -0.02053,0.17271 -0.08955,0.30826 -0.220568,0.43316 -0.108812,0.10372 -0.236495,0.16232 -0.377999,0.17349 -0.02482,0.002 -0.06584,0.002 -0.08496,5.3e-4 z"
       id="path2003" />
    <path
       style="fill:#ff7f2a;fill-opacity:1;stroke:#5c5f5c;stroke-width:0.00366559;stroke-linejoin:bevel"
       d="m 138.83867,142.3338 c -0.17242,-0.0105 -0.32504,-0.0983 -0.44225,-0.25441 -0.0826,-0.10996 -0.12606,-0.22887 -0.1377,-0.37655 -0.0173,-0.21868 0.0597,-0.4297 0.21659,-0.59397 0.0856,-0.0896 0.19239,-0.14843 0.30862,-0.1699 0.0471,-0.009 0.14272,-0.009 0.19037,-2e-4 0.12784,0.0231 0.23969,0.0859 0.34028,0.1913 0.13392,0.14028 0.20368,0.3001 0.21195,0.48563 0.009,0.1971 -0.0578,0.37354 -0.19499,0.51645 -0.14021,0.14607 -0.30426,0.21319 -0.49287,0.20165 z"
       id="path2005" />
    <path
       style="fill:#5c5f5c;fill-opacity:1;stroke:#5c5f5c;stroke-width:0.00751464;stroke-linejoin:bevel"
       d="m 100.61317,133.80153 c -0.16331,-0.032 -0.28985,-0.12548 -0.35646,-0.2632 -0.058,-0.11999 -0.0687,-0.17368 -0.0685,-0.34483 1.5e-4,-0.12876 0.002,-0.15428 0.0174,-0.21041 0.0576,-0.21387 0.20173,-0.36782 0.39199,-0.4187 0.061,-0.0163 0.21772,-0.018 0.27805,-0.003 0.0605,0.015 0.15563,0.0617 0.2021,0.0991 0.10363,0.0835 0.1931,0.22075 0.22745,0.34901 0.0235,0.0877 0.0236,0.28173 1.8e-4,0.36822 -0.0588,0.21726 -0.20702,0.36868 -0.40794,0.41685 -0.0677,0.0162 -0.21841,0.02 -0.28424,0.007 z"
       id="path2161" />
  </g>
  <g
     inkscape:groupmode="layer"
     id="layer3"
     inkscape:label="heading"
     transform="translate(-18.242052,-92.23446)">
    <g
       aria-label="Infix"
       id="text1160"
       style="font-size:25.4px;font-family:'URW Bookman';-inkscape-font-specification:'URW Bookman, Normal';fill:#5c5f5c;stroke-width:1.029"
       inkscape:label="infix"
       transform="matrix(2,0,0,2,-99.78739,-118.81694)">
      <path
         d="m 85.532731,107.6593 0.508,0.0762 c 1.3462,0.1778 1.6256,0.635 1.651,2.794 v 9.9822 c -0.0254,2.159 -0.3048,2.6162 -1.651,2.794 l -0.508,0.0762 v 0.7874 h 6.858 v -0.7874 l -0.508,-0.0762 c -1.3462,-0.1778 -1.6256,-0.635 -1.651,-2.794 v -9.9822 c 0.0254,-2.159 0.3048,-2.6162 1.651,-2.794 l 0.508,-0.0762 v -0.7874 h -6.858 z"
         id="path2431" />
      <path
         d="m 98.588334,111.8503 h -0.8636 c -1.5748,0.3048 -2.413,0.4064 -3.8354,0.508 v 0.762 l 0.6096,0.0508 c 1.3462,0.1524 1.6764,0.5588 1.6764,2.1082 v 5.969 c 0,1.397 -0.4572,2.0066 -1.5748,2.1082 l -0.635,0.0508 v 0.762 h 6.832596 v -0.762 l -0.635,-0.0508 c -1.117596,-0.1016 -1.574796,-0.7112 -1.574796,-2.1082 v -6.2738 c 1.574796,-1.4224 3.073396,-2.1336 4.495796,-2.1336 1.397,0 2.159,0.889 2.159,2.54 v 5.8674 c 0,1.397 -0.4826,2.0066 -1.5748,2.1082 l -0.635,0.0508 v 0.762 h 6.8326 v -0.762 l -0.635,-0.0508 c -1.1176,-0.1016 -1.5748,-0.7112 -1.5748,-2.1082 v -6.2738 c 0,-2.1082 -1.4224,-3.3528 -3.8354,-3.3528 -1.9558,0 -3.429,0.635 -5.232396,2.2352 z"
         id="path2433" />
      <path
         d="m 115.27613,111.8503 v -1.5748 c 0,-1.651 0.0508,-1.9812 0.4064,-2.5908 0.4826,-0.8382 1.4986,-1.3462 2.6416,-1.3462 1.27,0 2.4638,0.762 2.4638,1.6256 0.0254,1.0414 0.0254,1.0414 0.2286,1.397 0.2286,0.4064 0.635,0.635 1.143,0.635 0.762,0 1.27,-0.5334 1.27,-1.27 0,-0.5842 -0.2286,-1.0668 -0.762,-1.6256 -1.016,-1.0414 -2.413,-1.5748 -4.191,-1.5748 -1.9558,0 -3.7338,0.6604 -4.6482,1.7272 -0.6858,0.8128 -0.9652,1.8542 -0.9652,3.6322 v 0.9652 h -2.159 v 0.8382 h 2.159 v 8.5598 c 0,1.397 -0.4572,2.0066 -1.5748,2.1082 l -0.635,0.0508 v 0.762 h 6.8326 v -0.762 l -0.635,-0.0508 c -1.1176,-0.1016 -1.5748,-0.7112 -1.5748,-2.1082 v -8.5598 h 3.3782 c 1.8288,0 2.3368,0.5842 2.3114,2.667 v 5.8928 c 0,1.397 -0.4572,2.0066 -1.5748,2.1082 l -0.635,0.0508 v 0.762 h 6.8326 v -0.762 l -0.635,-0.0508 c -1.1176,-0.1016 -1.5748,-0.7112 -1.5748,-2.1082 v -9.398 z"
         id="path2435" />
      <path
         d="m 134.09755,117.0827 2.2098,-2.3622 c 1.397,-1.3716 2.1082,-1.778 3.81,-2.1082 v -0.762 h -5.3594 v 0.762 c 0.9144,0.1016 1.143,0.2286 1.143,0.6604 0,0.2032 -0.0762,0.4064 -0.254,0.6096 l -2.159,2.4384 -2.0066,-2.4384 c -0.1778,-0.254 -0.3048,-0.4826 -0.3048,-0.635 0,-0.3556 0.3048,-0.5334 1.0414,-0.6096 l 0.254,-0.0254 v -0.762 h -6.2992 v 0.762 c 1.2192,0.1778 1.7018,0.4826 2.5908,1.5494 l 2.9718,3.7338 -3.2258,3.6322 c -1.143,1.2954 -1.8034,1.7018 -3.0226,1.8796 v 0.762 h 5.6896 v -0.762 c -0.889,-0.1524 -1.0922,-0.2032 -1.27,-0.3048 -0.254,-0.1524 -0.4318,-0.4064 -0.4318,-0.6604 0,-0.254 0.1778,-0.5842 0.4572,-0.9144 l 2.54,-2.8448 2.286,3.2004 c 0.1524,0.2286 0.254,0.4826 0.254,0.6858 0,0.4826 -0.3048,0.6604 -1.524,0.8382 v 0.762 h 7.0358 v -0.762 c -1.3716,-0.2286 -1.8288,-0.5334 -2.9464,-1.8796 z"
         id="path2437" />
    </g>
  </g>
  <g
     inkscape:label="tux"
     inkscape:groupmode="layer"
     id="layer1"
     style="display:inline"
     transform="translate(-18.242052,-92.23446)">
    <path
       id="rect1698"
       style="fill:#f9f9f9;stroke:#5c5f5c;stroke-width:2.058;stroke-linejoin:round"
       inkscape:label="body"
       d="M 19.271052,95.241499 H 64.21261 V 129.18306 H 19.271052 Z" />
    <path
       id="rect184-3"
       style="fill:#ff7f2a;stroke:#5c5f5c;stroke-width:2;stroke-linejoin:round"
       inkscape:label="foot-r"
       d="m 52.21261,121.18306 h 12 v 8 h -12 z" />
    <path
       id="rect184"
       style="fill:#ff7f2a;stroke:#5c5f5c;stroke-width:2;stroke-linejoin:round"
       inkscape:label="foot-l"
       d="m 19.271052,121.18306 h 12 v 8 h -12 z" />
    <path
       id="path11801"
       style="fill:#ff7f2a;stroke-width:2"
       inkscape:label="nose"
       inkscape:transform-center-y="0.98302844"
       d="m 41.741828,115.16138 -3.405326,-5.8982 h 6.81065 z" />
    <path
       id="path6519-5"
       style="display:inline;fill:#5c5f5c;stroke-width:9.99998"
       inkscape:label="eye-r"
       d="m 47.634774,103.22688 a 1,1 0 0 1 -1,1 1,1 0 0 1 -1,-1 1,1 0 0 1 1,-1 1,1 0 0 1 1,1 z" />
    <path
       id="path6519"
       style="fill:#5c5f5c;stroke-width:9.99998"
       inkscape:label="eye-l"
       d="m 37.84887,103.22688 a 1,1 0 0 1 -1,1 1,1 0 0 1 -1,-1 1,1 0 0 1 1,-1 1,1 0 0 1 1,1 z" />
  </g>
</svg>
