<svg xmlns="http://www.w3.org/2000/svg" viewBox="0 0 250.9 169.3" width="350" xmlns:v="https://vecta.io/nano"><path d="M128.1 92l-2.3 1.4-2.3-1.4c-.6-.4-7.6-4.7-16-13.2h-.2-2.7-10.2-.7H91h-2-9-19.1v21.5h19.2 9 4.7 13.7 35.3 13.7 9.8 3.9 1.3V78.8h-1.3-3.9-7.1-2.7-3.7-.8-7.9c-8.3 8.5-15.3 12.9-16 13.2zM17.5 143.7h49.7v22H17.5zm60.7 0h49.7v22H78.2zm-39.8-10.4h49.8v-22h-32-17.8zm60.2-22h49.7v22H98.6zM.7 79.3h49.7v21.5H.7zm175.8-32.4h-6.6-4.2c-3.7 8.6-8.2 15.9-12.8 22h8.7 44.5 3.2v-22h-32.8zm-138.1 0v22H99c-4.6-6.1-9.2-13.4-12.8-22H38.4z" fill="#aaa"/><g fill="#00be3b"><path d="M163 25.7c1.3-6 1.7-10.8 1.7-13.8v-.1-.9-.1c-7-3.5-14.1-6.2-21.2-7.8-5.4-1.3-11-2-16.6-2.1h-.1-1-1-.1c-5.6.1-11.2.8-16.6 2-7 1.7-14.1 4.4-21.1 7.9v1c.1 3.1.4 7.9 1.7 13.8 6.7 33.1 29.8 52 37.1 57.3 7.4-5.3 30.5-24.2 37.2-57.2z"/><circle cx="127.6" cy="38" r="26.9"/></g><path d="M122.2 51.2c-1 0-1.9-.4-2.6-1.2l-6.8-7.8c-1.2-1.4-1.1-3.6.3-4.8s3.6-1.1 4.8.3l4.3 4.9 15.1-16.7c1.3-1.4 3.4-1.5 4.8-.2s1.5 3.4.2 4.8L124.7 50c-.6.8-1.5 1.2-2.5 1.2z" fill="#fff"/><path d="M236.7 91.8l-6 28.2L218 73.5l-.1.3h0l-10.3 37.5-2.4 8.8-1.9-8.8-4.2-19.4c-2.5 5.2-5.4 12-8 19.4-2.4 7.1-4.4 14.7-5.2 22-.4 3.6-.5 7.1-.2 10.5.3 4.1 1.3 8 3 11.4.3.6.6 1.1.9 1.6 4.8 8 14.4 12.1 28.3 12.2l.1 2.6V169c13.9 0 23.4-4.1 28.3-12.2 4.6-7.6 5.2-18.7 2-33.1-2.7-11.7-7.4-23-11.6-31.9z" fill="#db9300"/><path d="M180.5 143.7h-42.1v22h50.3v-1.6c-1.4-1.4-2.6-3-3.6-4.7-2.6-4.4-4.2-9.6-4.6-15.7zm5.1-32.4h-8.4-18.3v22h21.9c.3-3.4.9-7 1.8-10.8.7-3.9 1.8-7.6 3-11.2z" fill="#aaa"/><path d="M217.4 117.4s-21.9 47.2.7 47.2c22.5 0-.7-47.2-.7-47.2" fill="#bd0001"/></svg>